<svg width="60px" height="60px" viewBox="0 0 60 60" version="1.1" xmlns="http://www.w3.org/2000/svg" xmlns:xlink="http://www.w3.org/1999/xlink">
   <!-- Generator: Sketch 49 (51002) - http://www.bohemiancoding.com/sketch -->
   <desc>Created with Sketch.</desc>
   <defs></defs>
   <g id="Page-1" stroke="none" stroke-width="1" fill="none" fill-rule="evenodd">
       <g id="Desktop-HD-Copy-4" transform="translate(-297.000000, -1225.000000)" fill="#545458">
           <g id="--Features" transform="translate(-1151.000000, -900.000000)">
               <g id="Content" transform="translate(1301.000000, 2082.000000)">
                   <g id="1" transform="translate(0.000000, 43.000000)">
                       <path d="M199,10 C197.897,10 197,9.103 197,8 C197,6.897 197.897,6 199,6 C200.103,6 201,6.897 201,8 C201,9.103 200.103,10 199,10 L199,10 Z M205.535,3.121 L203.879,1.464 C202.934,0.52 201.679,0 200.343,0 C199.007,0 197.751,0.52 196.816,1.456 L168.607,29.011 C166.817,28.34 164.934,28 163,28 C154.178,28 147,35.178 147,44 C147,45.834 147.325,47.663 147.966,49.434 C148.082,49.756 148.355,49.996 148.689,50.07 C149.025,50.146 149.372,50.043 149.613,49.801 L160,39.414 L167.586,47 L157.199,57.387 C156.957,57.628 156.856,57.977 156.93,58.311 C157.004,58.645 157.244,58.918 157.566,59.034 C159.337,59.675 161.165,60 163,60 C171.822,60 179,52.822 179,44 C179,41.843 178.578,39.75 177.738,37.762 C177.698,37.672 176.734,35.534 174.531,34.153 C174.064,33.86 173.447,34.002 173.153,34.469 C172.859,34.936 173.001,35.554 173.469,35.847 C175.136,36.893 175.902,38.556 175.902,38.556 C176.631,40.28 177,42.112 177,44 C177,51.72 170.72,58 163,58 C161.926,58 160.854,57.872 159.796,57.619 L169.707,47.707 C170.098,47.316 170.098,46.684 169.707,46.293 L160.707,37.293 C160.316,36.902 159.684,36.902 159.293,37.293 L149.381,47.204 C149.128,46.146 149,45.074 149,44 C149,36.28 155.28,30 163,30 C164.891,30 166.725,30.371 168.451,31.101 C168.82,31.257 169.251,31.178 169.54,30.895 L198.222,2.878 C199.354,1.746 201.331,1.746 202.465,2.878 L204.121,4.535 C204.688,5.102 205,5.855 205,6.657 C205,7.458 204.688,8.211 204.113,8.787 L178.756,34.757 C178.37,35.153 178.378,35.786 178.773,36.171 C179.168,36.558 179.802,36.551 180.187,36.155 L205.535,10.192 C206.48,9.248 207,7.993 207,6.657 C207,5.321 206.48,4.065 205.535,3.121 L205.535,3.121 Z M168,40 C168.256,40 168.512,39.902 168.707,39.707 L170.707,37.707 C171.098,37.316 171.098,36.684 170.707,36.293 C170.316,35.902 169.684,35.902 169.293,36.293 L167.293,38.293 C166.902,38.684 166.902,39.316 167.293,39.707 C167.488,39.902 167.744,40 168,40 L168,40 Z M171,43 C171.256,43 171.512,42.902 171.707,42.707 L173.707,40.707 C174.098,40.316 174.098,39.684 173.707,39.293 C173.316,38.902 172.684,38.902 172.293,39.293 L170.293,41.293 C169.902,41.684 169.902,42.316 170.293,42.707 C170.488,42.902 170.744,43 171,43 L171,43 Z M167.707,33.293 C167.316,32.902 166.684,32.902 166.293,33.293 L164.293,35.293 C163.902,35.684 163.902,36.316 164.293,36.707 C164.488,36.902 164.744,37 165,37 C165.256,37 165.512,36.902 165.707,36.707 L167.707,34.707 C168.098,34.316 168.098,33.684 167.707,33.293 L167.707,33.293 Z" id="swiss-key"></path>
                   </g>
               </g>
           </g>
       </g>
   </g>
</svg>