<?xml version="1.0" encoding="utf-8"?>
<!-- Generator: Adobe Illustrator 22.1.0, SVG Export Plug-In . SVG Version: 6.00 Build 0)  -->
<svg version="1.1" id="Calque_1" xmlns="http://www.w3.org/2000/svg" xmlns:xlink="http://www.w3.org/1999/xlink" x="0px" y="0px"
	 viewBox="0 0 1440 6906" style="enable-background:new 0 0 1440 6906;" xml:space="preserve">
<style type="text/css">
	.st0{fill:#4FA0C1;}
	.st1{fill:#B3B3B2;}
	.st2{fill:#989898;}
	.st3{fill:#E0F6FF;}
	.st4{fill:url(#path-4_2_);}
	.st5{fill:#4D8FE8;fill-opacity:0.2;}
	.st6{fill:url(#path-8_2_);}
	.st7{fill:url(#on_7_);fill-opacity:0.2;}
	.st8{fill:url(#Fond_3_);}
	.st9{opacity:0.21;}
	.st10{opacity:0.76;}
	.st11{opacity:0.98;}
	.st12{opacity:0.95;}
	.st13{opacity:0.92;}
	.st14{fill:#FFFFFF;}
	.st15{opacity:0.72;}
	.st16{opacity:0.94;}
	.st17{opacity:0.7;}
	.st18{opacity:0.71;}
	.st19{fill:url(#on_14_);fill-opacity:0.2;}
	.st20{opacity:0.84;}
	.st21{fill:none;}
	.st22{fill:#0FB6CF;}
	.st23{fill:#6CC3C6;}
	.st24{fill:url(#on_15_);fill-opacity:0.2;}
	.st25{fill:url(#Rectangle-7_1_);}
	.st26{fill:url(#on_16_);fill-opacity:0.2;}
	.st27{fill:url(#Fond_4_);}
	.st28{fill:url(#on_17_);fill-opacity:0.2;}
	.st29{fill:url(#on_18_);fill-opacity:0.2;}
	.st30{fill:#4D8FE8;fill-opacity:0.7;}
	.st31{fill:url(#Fond_5_);}
	.st32{fill:url(#on-dark-copy_1_);}
	.st33{fill:url(#on-dark-copy-2_1_);}
	.st34{fill:#4D8FE8;fill-opacity:4.000000e-02;}
	.st35{font-family:'ArialMT';}
	.st36{font-size:50px;}
	.st37{fill:#FFFDFD;}
	.st38{fill:#009593;}
</style>
<polygon class="st0" points="598.1,2621.5 695.2,2604.2 795,2621.5 696,2637.2 "/>
<polygon class="st0" points="599.6,2440.7 696.7,2423.5 796.5,2440.7 697.5,2456.5 "/>
<polygon class="st0" points="599.6,2259.2 696.7,2242 796.5,2259.2 697.5,2275 "/>
<polygon class="st0" points="599.6,2092 696.7,2074.7 796.5,2092 697.5,2107.7 "/>
<polygon class="st0" points="598.1,1916.5 695.2,1899.2 795,1916.5 696,1932.2 "/>
<rect x="644.1" y="1880.4" class="st1" width="47.2" height="915.2"/>
<rect x="691.3" y="1880.4" class="st2" width="47.2" height="915.2"/>
<title>Desktop HD Copy 4</title>
<desc>Created with Sketch.</desc>
<g id="_x2D_-Foot" transform="translate(-365.000000, 5571.000000)">
	
		<g id="bg" transform="translate(1073.582235, 1316.935853) rotate(172.274556) translate(-1073.582235, -1316.935853) translate(80.582235, 650.435853)">
		<g id="background" transform="translate(192.274170, 142.076906)">
			<g id="on">
				<path id="path-1_1_" class="st3" d="M117.5,8.5c12.4,0,53.5-15.8,112.4-8c47.1,6.3,67.1,18.9,144,30.3
					c14.9,2.2,73.3,8.2,94.9,19.5c28.5,4.2,62.3,8.7,94.6,12.1c60.8,6.3,128.1,14.8,200.7,26c108.8,16.8,156,9.6,292.7,31.1
					c58,20.7,103.9,35.8,124.7,39.1c10.9,1.7,30.6,9.5,61.4,14.4c17.3,2.7,71.7,11.4,163.3,25.9l0,0c74.4,11.8,131.1,73,137.2,148.1
					l0,0c0,0.5,22.6-6.6,33.4,54.6s-3.4,86.7-3.4,120.9c0,9.1,17.1,90.1-16.8,144.4c-6.1,17.8-43.1,109.9-65.3,135.9
					c-16.3,18.1-46.4,31.4-62.9,44.4c-26.6,20.9-47.4,37.7-72.9,47c-52.6,19.1-100,22.4-128,22.4c-17.8,0-144.9,11.2-376.2,11.2
					c-31.3,4.5-76-5.7-106.2-5.7c-48.2,0-80.5,1.2-160,1.2c-55.6,0-164,23.9-280,21.5c-27.9-0.6-69.9-13.7-115.4-17
					c-35-2.5-97.6-6.6-187.6-12.4c0-470.7,0-734,0-789.9c0-29.5,6.3-52.7,18-70.4c12.4-18.8,23.2-32.4,46.5-39.6
					C83.8,10,95.7,8.5,117.5,8.5z"/>
			</g>
			<g id="Dark-support">
				
					<linearGradient id="path-4_2_" gradientUnits="userSpaceOnUse" x1="-474.2038" y1="7033.2969" x2="-474.8898" y2="7034.229" gradientTransform="matrix(1567.774 -1.223081e-03 6.592859e-04 903.3474 743769.5625 -6353378.5)">
					<stop  offset="0" style="stop-color:#0D81FE"/>
					<stop  offset="1" style="stop-color:#61CEFF"/>
				</linearGradient>
				<path id="path-4_1_" class="st4" d="M132.8,8.5c49.6,0,472.4,63.1,1268.6,189.4l0,0c97.2,15.4,168.7,99.2,168.7,197.5l0,65.6
					c0,8.6,0,39.1,0,91.6c0,78.8,0,131.7-93.3,241.3c-96.4,107.1-202.6,118-252.5,118c-33.3,0-440.6,0-1222,0
					c0-468.5,0-730.6,0-786.5C2.3,41.6,53.3,8.5,132.8,8.5z"/>
			</g>
			<g id="dark">
				<path id="path-6_1_" class="st5" d="M132.8,8.5c49.6,0,472.4,63.1,1268.6,189.4l0,0c97.2,15.4,168.7,99.2,168.7,197.5l0,65.6
					c0,8.6,0,39.1,0,91.6c0,78.8,0,131.7-93.3,241.3c-96.4,107.1-202.6,118-252.5,118c-23.3,0-229.2,0-617.7,0
					c-83.9,0-176.3,0-277.2,0c-67,0-176.1,0-327,0c0-468.5,0-730.6,0-786.5C2.3,41.6,53.3,8.5,132.8,8.5z"/>
			</g>
			<g id="fon">
				
					<linearGradient id="path-8_2_" gradientUnits="userSpaceOnUse" x1="-474.2036" y1="7033.2964" x2="-474.8895" y2="7034.2285" gradientTransform="matrix(1568.9117 -1.223512e-03 6.949060e-04 903.3474 744308 -6353378.5)">
					<stop  offset="0" style="stop-color:#0D81FE"/>
					<stop  offset="1" style="stop-color:#61CEFF"/>
				</linearGradient>
				<path id="path-8_1_" class="st6" d="M132.8,8.5c18.1,0,71.3,12.8,189.5,29.7c67.4,9.6,166.1,17.7,266.1,32.8
					c50.1,7.6,94.8,22.3,153.1,31.3c41.2,6.3,93.9,11.1,139.1,18.2c42.8,6.7,111.7,16.3,206.8,31.3c18.3,2.9,0,2.9,90.6,19.4
					s78.2,6.3,126.9,13.7c8.3,1.3,40,6,94.8,14.2l0,0c97.9,14.7,170.3,98.8,170.3,197.8l0,64c-3.8,15.5-5.7,49.5-5.7,102
					c0,53.9-2.6,83.3-32.4,139.4c-13.8,25.9-25.7,56.9-55.2,91.5c-45.9,51-92.4,72.3-135.6,88.9c-47.5,18.3-90.7,29.1-116.9,29.1
					c-4.6,0-16.4,0-35.3,0c-42,0-100-5.4-212.5-5.4c-50.7,0-151.1-7.5-216.1-7.5c-51.5,0-84.1,9.8-144.5,9.8
					c-32.5,0-65.9-2.4-101-2.4c-44.9,0-92.3,5.4-141.4,5.4c-27,0,8.9,0-30.6,0c-30.9,0-21.9-1.7-109.1-8.8c-42.1-2.3-109,0-142.4,0
					c-17,0-47,1.8-90.2,5.4c0.8-466.2,1.1-727.2,1.1-783.1C2.3,41.6,53.3,8.5,132.8,8.5z"/>
			</g>
		</g>
	</g>
</g>
<g id="_x2D_-FAQ" transform="translate(-1100.000000, 3838.000000)">
	
		<g id="_x3E_formecool" transform="translate(1908.455118, 1925.659579) rotate(133.000000) translate(-1908.455118, -1925.659579) translate(378.455118, 743.659579)">
		<g id="_x3E_illu" transform="translate(0.000000, -0.000000)">
			
				<g id="Bg-Copy" transform="translate(784.292428, 654.747828) rotate(7.000000) translate(-784.292428, -654.747828) translate(64.292428, 83.747828)">
				
					<linearGradient id="on_7_" gradientUnits="userSpaceOnUse" x1="-1613.3929" y1="4430.6641" x2="-1613.537" y2="4431.6348" gradientTransform="matrix(1610.7092 -523.3483 357.0513 1098.8969 1017504.5625 -5713520.5)">
					<stop  offset="0" style="stop-color:#0D81FE"/>
					<stop  offset="1" style="stop-color:#61CEFF"/>
				</linearGradient>
				<path id="on_1_" class="st7" d="M-17.9-133.4l1099.1-20.1c33.2-0.6,64.5,15.3,83.6,42.4l133.5,189.8
					c18.6,26.4,23.3,60.3,12.5,90.8c-46,130.6-89.9,244.5-131.8,341.7c-52.5,122.1-77.7,187.2-251.2,257.2
					c-59.1,23.9-138.6,38.6-235.9,75.8c-125.6,48-190.3,29.3-331,73.1C220.3,961.2,118.5,956.8,68.8,987
					c-49.7,30.2-151.5,59.3-192.4,48.3l0,0l0,0c-42.1-11.3-70.1-50.9-66.8-94.3l74.7-982C-111.8-92.5-69.5-132.5-17.9-133.4z"/>
				<path id="on-dark" class="st5" d="M9.2-124.9l1057.4-19.3c26.3-0.5,51.8,9.5,70.9,27.6l186.7,178.2
					c34.5,32.9,40.9,85.6,15.5,125.8l-310,489.6c-12.9,20.4-32.7,35.4-55.8,42.3L-32.5,1021c-52.9,15.9-108.6-14.2-124.5-67.1
					c-3.5-11.8-4.9-24.1-3.9-36.3l72.3-950.2C-84.8-84-42.4-124,9.2-124.9z"/>
				
					<linearGradient id="Fond_3_" gradientUnits="userSpaceOnUse" x1="-1613.7573" y1="4431.0249" x2="-1614.4099" y2="4431.5605" gradientTransform="matrix(1608.244 -522.5473 340.7745 1048.8016 1085633.875 -5490444.5)">
					<stop  offset="0" style="stop-color:#0D81FE"/>
					<stop  offset="1" style="stop-color:#61CEFF"/>
				</linearGradient>
				<path id="Fond" class="st8" d="M9.1-124l1057.3-20.2c26.4-0.5,52,9.5,71.1,27.8c71,68,114.5,110.8,130.6,128.3
					c19.9,19.8,37.6,39.4,44.5,46.5l0,0l0,0c41.2,26.9,52.9,82.1,26,123.3c-0.6,0.9-1.2,1.7-1.8,2.6c-11.1,15.8-17.4,24.8-18.9,26.9
					c-20.8,30.5-36.3,56.2-53.9,83.7c-38.7,60.5-70.3,113.1-93.1,158.9c-37.8,75.8-84.1,150.8-139,225.2l0,0
					c-14,19-34.3,32.4-57.2,37.9c-29.1,7-47.9,11.7-56.3,14.2c-91.7,27.5-179.3,58.6-271,86.1c-64.5,19.4-96.9,12.7-189.8,47.5
					c-19.1,7.2-86.4,28-178.7,54.9c-45.3,13.2-102.2,23.1-159.2,40.7c-24.5,7.6-73.4,24.4-146.9,50.5l0,0
					c-52,18.5-109.2-8.7-127.7-60.7c-4.7-13.2-6.5-27.2-5.5-41.1l71.6-940.6C-84.8-83-42.4-123,9.1-124z"/>
				
					<g id="etoile-confet_x7B_:linearEase_x3B_0_x2C_0.65_x2C_4.07_x2C_1745_x2C_1171_x2C_360_x2C_0.21_x3B_10_x2C_0.2_x2C_4.99_x2C_1745_x2C_1171_x2C_360_x2C_0.21_x3B_20_x2C_0.76_x2C_3.73_x2C_1745_x2C_1171_x2C_360_x2C_0.21_x3B_30_x2C_0.65_x2C_4.07_x2C_1745_x2C_1171_x2C_360_x2C_0.21_x3B__x7D_" transform="translate(-93.000000, -265.000000)" class="st9">
					
						<g id="Group" transform="translate(1491.591462, 678.874520) scale(1, -1) rotate(-20.000000) translate(-1491.591462, -678.874520) translate(1268.591462, 551.374520)" class="st10">
					</g>
					
						<g id="Group_1_" transform="translate(1533.116191, 467.757501) rotate(-82.000000) translate(-1533.116191, -467.757501) translate(1370.116191, 374.257501)" class="st11">
					</g>
					
						<g id="Group_2_" transform="translate(1177.266533, 529.135227) scale(-1, 1) rotate(-237.000000) translate(-1177.266533, -529.135227) translate(926.266533, 385.635227)" class="st12">
					</g>
					
						<g id="Group_3_" transform="translate(978.221725, 711.130704) scale(-1, -1) rotate(-2.000000) translate(-978.221725, -711.130704) translate(775.721725, 595.130704)" class="st10">
					</g>
					<g id="Group-2">
						
							<g id="Group_4_" transform="translate(1484.555096, 816.991635) rotate(-332.000000) translate(-1484.555096, -816.991635) translate(1321.555096, 723.991635)" class="st13">
							<path id="Fill-98" class="st14" d="M242.2,71.1c-1.3,0-2.4,1.1-2.4,2.3c0,1.3,1.1,2.3,2.4,2.3c1.3,0,2.4-1.1,2.4-2.3
								C244.5,72.2,243.5,71.1,242.2,71.1"/>
							<path id="Fill-100" class="st14" d="M258.6,179.8c-1.3,0-2.4,1.1-2.4,2.3c0,1.3,1.1,2.3,2.4,2.3s2.4-1.1,2.4-2.3
								C261,180.8,259.9,179.8,258.6,179.8"/>
							<path id="Fill-102" class="st14" d="M4.7,111c-1.3,0-2.4,1.1-2.4,2.3c0,1.3,1.1,2.3,2.4,2.3s2.4-1.1,2.4-2.3S6,111,4.7,111"
								/>
							<path id="Fill-104" class="st14" d="M123.8,83.6c-1.3,0-2.4,1.1-2.4,2.3c0,1.3,1.1,2.3,2.4,2.3s2.4-1.1,2.4-2.3
								S125.1,83.6,123.8,83.6"/>
							<path id="Fill-108" class="st14" d="M229.6,15.7c-0.5,0-1,0.3-1.1,0.8l-0.7,2.1l-2.1,0.7c-0.5,0.2-0.8,0.6-0.8,1.1
								s0.3,1,0.8,1.1l2.1,0.7l0.7,2.1c0.2,0.5,0.6,0.8,1.1,0.8s1-0.3,1.1-0.8l0.7-2.1l2.1-0.7c0.5-0.2,0.8-0.6,0.8-1.1
								s-0.3-1-0.8-1.1l-2.1-0.7l-0.7-2.1C230.6,16,230.1,15.7,229.6,15.7 M229.5,20.3l0.1-0.1l0.1,0.1l-0.1,0.1
								C229.6,20.4,229.6,20.4,229.5,20.3 M228.9,20.6L228.9,20.6l-0.2,0.6l-1.1,0.4l1.1-0.4L228.9,20.6"/>
							<path id="Fill-112" class="st14" d="M152.8,146.9c-0.5,0-1,0.3-1.1,0.8l-0.7,2.1l-2.1,0.7c-0.5,0.2-0.8,0.6-0.8,1.1
								s0.3,1,0.8,1.1l2.1,0.7l0.7,2.1c0.2,0.5,0.6,0.8,1.1,0.8s1-0.3,1.1-0.8l0.7-2.1l2.1-0.7c0.5-0.2,0.8-0.6,0.8-1.1
								s-0.3-1-0.8-1.1l-2.1-0.7l-0.7-2.1C153.8,147.3,153.3,146.9,152.8,146.9 M152.7,151.6l0.1-0.1l0.1,0.1l-0.1,0.1
								C152.8,151.7,152.8,151.7,152.7,151.6 M152.1,151.9L152.1,151.9l-0.2,0.6l-1.1,0.4l1.1-0.4L152.1,151.9"/>
							<path id="Fill-116" class="st14" d="M73.7-1.5c-0.5,0-1,0.3-1.2,0.9l-1.1,3.2l-3.2,1.1c-0.5,0.2-0.9,0.6-0.9,1.2
								s0.3,1,0.9,1.2L71.4,7l1.1,3.2c0.2,0.5,0.6,0.9,1.2,0.9c0.5,0,1-0.3,1.2-0.9l1-3.2l3.2-1.1C79.6,5.7,80,5.3,80,4.7
								s-0.3-1-0.9-1.2l-3.2-1.1l-1.1-3.2C74.7-1.2,74.2-1.5,73.7-1.5 M74.9,3.5L74.9,3.5l1.2-0.4L74.9,3.5l-0.4,1.2l0.2,0.1
								l-0.2,0.1c-0.4,0.1-0.7,0.4-0.8,0.8l-0.1,0.2l-0.1-0.2c-0.1-0.4-0.4-0.7-0.8-0.8l-0.2-0.1l0.2-0.1c0.4-0.1,0.7-0.4,0.8-0.8
								l0.1-0.2l0.1,0.2c0.1,0.4,0.4,0.7,0.8,0.8L74.9,3.5"/>
							<path id="Fill-120" class="st14" d="M322.1,115.7c-0.5,0-1,0.3-1.2,0.9l-1.1,3.2l-3.2,1.1c-0.5,0.2-0.9,0.6-0.9,1.2
								c0,0.5,0.3,1,0.9,1.2l3.2,1.1l1.1,3.2c0.2,0.5,0.6,0.9,1.2,0.9s1-0.3,1.2-0.9l1.1-3.2l3.2-1.1c0.5-0.2,0.9-0.6,0.9-1.2
								c0-0.5-0.3-1-0.9-1.2l-3.2-1.1l-1.1-3.2C323.1,116,322.6,115.7,322.1,115.7 M322,121.1l0.1-0.2l0.1,0.2
								c0.1,0.4,0.4,0.7,0.8,0.8l0.2,0.1H323c-0.4,0.1-0.7,0.4-0.8,0.8l-0.1,0.2l-0.1-0.2c-0.1-0.4-0.4-0.7-0.8-0.8l-0.2-0.1
								l0.2-0.1C321.6,121.8,321.9,121.5,322,121.1"/>
						</g>
						<path id="Fill-98_1_" class="st14" d="M1583.8,739.6c-1.8,0-3.2,1.4-3.2,3.2s1.4,3.2,3.2,3.2c1.8,0,3.2-1.4,3.2-3.2
							C1587,741.1,1585.6,739.6,1583.8,739.6"/>
						<path id="Fill-100_1_" class="st14" d="M1655.9,607.4c-1.8,0-3.2,1.4-3.2,3.2s1.4,3.2,3.2,3.2s3.2-1.4,3.2-3.2
							C1659.1,608.8,1657.7,607.4,1655.9,607.4"/>
						<path id="Fill-104_1_" class="st14" d="M1437.5,668.2c-1.8,0-3.2,1.4-3.2,3.2s1.4,3.2,3.2,3.2c1.8,0,3.2-1.4,3.2-3.2
							C1440.8,669.6,1439.3,668.2,1437.5,668.2"/>
						<path id="Fill-108_1_" class="st14" d="M1541.9,804.2c-0.7,0-1.3,0.4-1.5,1.1l-1,2.9l-2.9,1c-0.7,0.2-1.1,0.8-1.1,1.5
							s0.4,1.3,1.1,1.5l2.9,1l1,2.9c0.2,0.7,0.8,1.1,1.5,1.1s1.3-0.4,1.5-1.1l1-2.9l2.9-1c0.7-0.2,1.1-0.8,1.1-1.5s-0.4-1.3-1.1-1.5
							l-2.9-1l-1-2.9C1543.2,804.6,1542.6,804.2,1541.9,804.2 M1541.7,810.6L1541.7,810.6c0.1,0,0.2,0,0.2,0
							C1541.8,810.6,1541.8,810.7,1541.7,810.6C1541.8,810.7,1541.8,810.6,1541.7,810.6 M1540.9,811L1540.9,811l-0.3,0.8l-1.5,0.5
							l1.5-0.5L1540.9,811"/>
						<path id="Fill-112_1_" class="st14" d="M1504.7,599.1c-0.7,0-1.3,0.4-1.5,1.1l-1,2.9l-2.9,1c-0.7,0.2-1.1,0.8-1.1,1.5
							s0.4,1.3,1.1,1.5l2.9,0.9l1,2.9c0.2,0.7,0.8,1.1,1.5,1.1s1.3-0.4,1.5-1.1l1-2.9l2.9-1c0.7-0.2,1.1-0.8,1.1-1.5
							s-0.4-1.3-1.1-1.5l-2.9-1l-1-2.9C1506,599.5,1505.4,599.1,1504.7,599.1 M1504.6,605.5L1504.6,605.5h0.2
							C1504.7,605.5,1504.7,605.6,1504.6,605.5C1504.7,605.6,1504.6,605.6,1504.6,605.5 M1503.8,605.9L1503.8,605.9l-0.3,0.8
							l-1.5,0.5l1.5-0.5L1503.8,605.9"/>
						<path id="Fill-116_1_" class="st14" d="M1333.4,752.6c-0.7,0-1.4,0.5-1.6,1.2l-1.4,4.3l-4.3,1.4c-0.7,0.2-1.2,0.9-1.2,1.6
							c0,0.7,0.5,1.4,1.2,1.6l4.3,1.4l1.4,4.3c0.2,0.7,0.9,1.2,1.6,1.2s1.4-0.5,1.6-1.2l1.4-4.3l4.3-1.4c0.7-0.2,1.2-0.9,1.2-1.6
							c0-0.7-0.5-1.4-1.2-1.6l-4.3-1.4l-1.4-4.3C1334.8,753.1,1334.2,752.6,1333.4,752.6 M1335.2,759.5L1335.2,759.5l1.6-0.5
							L1335.2,759.5l-0.5,1.6l0.3,0.1l-0.3,0.1c-0.5,0.2-0.9,0.6-1.1,1.1l-0.1,0.3l-0.1-0.3c-0.2-0.5-0.6-0.9-1.1-1.1l-0.3-0.1
							l0.3-0.1c0.5-0.2,0.9-0.6,1.1-1.1l0.1-0.3l0.1,0.3c0.2,0.5,0.6,0.9,1.1,1.1L1335.2,759.5"/>
						<path id="Fill-120_1_" class="st14" d="M1707.8,717.8c-0.7,0-1.4,0.5-1.6,1.2l-1.4,4.3l-4.3,1.4c-0.7,0.2-1.2,0.9-1.2,1.6
							c0,0.7,0.5,1.4,1.2,1.6l4.3,1.4l1.4,4.3c0.2,0.7,0.9,1.2,1.6,1.2s1.4-0.5,1.6-1.2l1.4-4.3l4.3-1.4c0.7-0.2,1.2-0.9,1.2-1.6
							c0-0.7-0.5-1.4-1.2-1.6l-4.3-1.4l-1.4-4.3C1709.2,718.3,1708.5,717.8,1707.8,717.8 M1707.7,725.2l0.1-0.3l0.1,0.3
							c0.2,0.5,0.6,0.9,1.1,1.1l0.3,0.1l-0.3,0.1c-0.5,0.2-0.9,0.6-1.1,1.1l-0.1,0.3l-0.1-0.3c-0.2-0.5-0.6-0.9-1.1-1.1l-0.3-0.1
							l0.3-0.1C1707.1,726.1,1707.5,725.7,1707.7,725.2"/>
						<path id="Fill-98_2_" class="st14" d="M1528.4,390.9c-1.3,0-2.4,1.1-2.4,2.4s1.1,2.4,2.4,2.4s2.4-1.1,2.4-2.4
							S1529.7,390.9,1528.4,390.9"/>
						<path id="Fill-100_2_" class="st14" d="M1638.9,389.8c-1.3,0-2.4,1.1-2.4,2.4s1.1,2.4,2.4,2.4c1.3,0,2.4-1.1,2.4-2.4
							C1641.2,390.9,1640.2,389.8,1638.9,389.8"/>
						<path id="Fill-102_1_" class="st14" d="M1535.1,631.7c-1.3,0-2.4,1.1-2.4,2.4c0,1.3,1.1,2.4,2.4,2.4s2.4-1.1,2.4-2.4
							C1537.4,632.7,1536.3,631.7,1535.1,631.7"/>
						<path id="Fill-104_2_" class="st14" d="M1524.4,509.9c-1.3,0-2.4,1.1-2.4,2.4c0,1.3,1.1,2.4,2.4,2.4s2.4-1.1,2.4-2.4
							C1526.7,510.9,1525.7,509.9,1524.4,509.9"/>
						<path id="Fill-112_2_" class="st14" d="M1593.5,492.3c-0.5,0-1,0.3-1.1,0.8l-0.7,2.1l-2.1,0.7c-0.5,0.2-0.8,0.6-0.8,1.1
							s0.3,1,0.8,1.1l2.1,0.7l0.7,2.1c0.2,0.5,0.6,0.8,1.1,0.8s1-0.3,1.1-0.8l0.7-2.1l2.1-0.7c0.5-0.2,0.8-0.6,0.8-1.1
							s-0.3-1-0.8-1.1l-2.1-0.7l-0.7-2.1C1594.4,492.7,1594,492.3,1593.5,492.3 M1593.4,497.1l0.1-0.1l0.1,0.1l-0.1,0.1
							C1593.4,497.1,1593.4,497.1,1593.4,497.1 M1592.8,497.4L1592.8,497.4l-0.2,0.6l-1.1,0.4l1.1-0.4L1592.8,497.4"/>
						<path id="Fill-116_2_" class="st14" d="M1436,551.5c-0.5,0-1,0.3-1.2,0.9l-1.1,3.2l-3.2,1.1c-0.5,0.2-0.9,0.6-0.9,1.2
							s0.3,1,0.9,1.2l3.2,1.1l1.1,3.2c0.2,0.5,0.6,0.9,1.2,0.9c0.5,0,1-0.3,1.2-0.9l1.1-3.2l3.2-1.1c0.5-0.2,0.9-0.6,0.9-1.2
							s-0.3-1-0.9-1.2l-3.2-1.1l-1.1-3.2C1437,551.8,1436.5,551.5,1436,551.5 M1437.2,556.5L1437.2,556.5l1.2-0.4L1437.2,556.5
							l-0.4,1.2l0.2,0.1l-0.2,0.1c-0.4,0.1-0.7,0.4-0.8,0.8l-0.1,0.2l-0.1-0.2c-0.1-0.4-0.4-0.7-0.8-0.8l-0.2-0.1l0.2-0.1
							c0.4-0.1,0.7-0.4,0.8-0.8l0.1-0.2l0.1,0.2c0.1,0.4,0.4,0.7,0.8,0.8L1437.2,556.5"/>
						<path id="Fill-120_2_" class="st14" d="M1587.3,321.9c-0.5,0-1,0.3-1.2,0.9l-1.1,3.2l-3.2,1.1c-0.5,0.2-0.9,0.6-0.9,1.2
							s0.3,1,0.9,1.2l3.2,1.1l1.1,3.2c0.2,0.5,0.6,0.9,1.2,0.9c0.5,0,1-0.3,1.2-0.9l1.1-3.2l3.2-1.1c0.5-0.2,0.9-0.6,0.9-1.2
							s-0.3-1-0.9-1.2l-3.2-1.1l-1.1-3.2C1588.3,322.2,1587.8,321.9,1587.3,321.9 M1587.2,327.3l0.1-0.2l0.1,0.2
							c0.1,0.4,0.4,0.7,0.8,0.8l0.2,0.1l-0.2,0.1c-0.4,0.1-0.7,0.4-0.8,0.8l-0.1,0.2l-0.1-0.2c-0.1-0.4-0.4-0.7-0.8-0.8l-0.2-0.1
							l0.2-0.1C1586.8,328,1587.1,327.7,1587.2,327.3"/>
						
							<g id="Group_5_" transform="translate(1541.329961, 318.679120) scale(-1, 1) rotate(-84.000000) translate(-1541.329961, -318.679120) translate(1361.829961, 216.179120)" class="st15">
							<path id="Fill-102_2_" class="st14" d="M2.5,121.2c-1.4,0-2.6,1.2-2.6,2.6s1.2,2.6,2.6,2.6s2.6-1.2,2.6-2.6
								C5.1,122.4,4,121.2,2.5,121.2"/>
							<path id="Fill-104_3_" class="st14" d="M133.7,91.1c-1.4,0-2.6,1.2-2.6,2.6c0,1.4,1.2,2.6,2.6,2.6c1.4,0,2.6-1.2,2.6-2.6
								S135.1,91.1,133.7,91.1"/>
							<path id="Fill-116_3_" class="st14" d="M78.5-2.8c-0.6,0-1.1,0.4-1.3,0.9L76,1.6l-3.5,1.2c-0.6,0.2-0.9,0.7-0.9,1.3
								c0,0.6,0.4,1.1,0.9,1.3L76,6.5l1.2,3.5c0.2,0.6,0.7,0.9,1.3,0.9c0.6,0,1.1-0.4,1.3-0.9L81,6.5l3.5-1.2
								c0.6-0.2,0.9-0.7,0.9-1.3c0-0.6-0.4-1.1-0.9-1.3L81,1.6l-1.2-3.5C79.6-2.5,79.1-2.8,78.5-2.8 M79.9,2.7L79.9,2.7l1.3-0.4
								L79.9,2.7L79.4,4l0.2,0.1l-0.2,0.1C79,4.3,78.7,4.6,78.6,5l-0.1,0.2L78.4,5c-0.1-0.4-0.5-0.7-0.9-0.9L77.3,4h0.2
								c0.4-0.1,0.7-0.5,0.9-0.9l0.1-0.2l0.1,0.2C78.7,3.5,79,3.9,79.4,4L79.9,2.7"/>
						</g>
						
							<g id="Group_6_" transform="translate(1319.995802, 926.505740) scale(-1, -1) rotate(-31.000000) translate(-1319.995802, -926.505740) translate(1117.495802, 810.505740)" class="st16">
							<path id="Fill-98_3_" class="st14" d="M295.4,89.4c-1.6,0-2.9,1.3-2.9,2.9c0,1.6,1.3,2.9,2.9,2.9s2.9-1.3,2.9-2.9
								C298.3,90.7,297,89.4,295.4,89.4"/>
							<path id="Fill-100_3_" class="st14" d="M315.8,224.9c-1.6,0-2.9,1.3-2.9,2.9c0,1.6,1.3,2.9,2.9,2.9s2.9-1.3,2.9-2.9
								C318.7,226.2,317.4,224.9,315.8,224.9"/>
							<path id="Fill-102_3_" class="st14" d="M0.4,139.1c-1.6,0-2.9,1.3-2.9,2.9c0,1.6,1.3,2.9,2.9,2.9c1.6,0,2.9-1.3,2.9-2.9
								C3.3,140.4,2,139.1,0.4,139.1"/>
							<path id="Fill-104_4_" class="st14" d="M148.4,105c-1.6,0-2.9,1.3-2.9,2.9s1.3,2.9,2.9,2.9c1.6,0,2.9-1.3,2.9-2.9
								C151.3,106.3,150,105,148.4,105"/>
							<path id="Fill-108_2_" class="st14" d="M279.8,20.2c-0.6,0-1.2,0.4-1.4,1l-0.9,2.6l-2.6,0.9c-0.6,0.2-1,0.8-1,1.4
								c0,0.6,0.4,1.2,1,1.4l2.6,0.9l0.9,2.6c0.2,0.6,0.8,1,1.4,1c0.6,0,1.2-0.4,1.4-1l0.9-2.6l2.6-0.9c0.6-0.2,1-0.8,1-1.4
								s-0.4-1.2-1-1.4l-2.6-0.9l-0.9-2.6C281,20.6,280.4,20.2,279.8,20.2 M279.7,26.1l0.1-0.1l0.1,0.1l-0.1,0.1
								C279.7,26.1,279.7,26.1,279.7,26.1 M278.9,26.4L278.9,26.4l-0.2,0.7l-1.4,0.5l1.4-0.5L278.9,26.4"/>
							<path id="Fill-112_3_" class="st14" d="M184.4,184c-0.6,0-1.2,0.4-1.4,1l-0.9,2.6l-2.6,0.9c-0.6,0.2-1,0.8-1,1.4
								s0.4,1.2,1,1.4l2.6,0.9l0.9,2.6c0.2,0.6,0.8,1,1.4,1c0.6,0,1.2-0.4,1.4-1l0.9-2.6l2.6-0.9c0.6-0.2,1-0.8,1-1.4
								s-0.4-1.2-1-1.4l-2.6-0.9l-0.9-2.6C185.6,184.4,185,184,184.4,184 M184.3,189.8l0.1-0.1l0.1,0.1l-0.1,0.1
								C184.3,189.9,184.3,189.9,184.3,189.8 M183.5,190.2L183.5,190.2l-0.2,0.7l-1.4,0.5l1.4-0.5L183.5,190.2"/>
							<path id="Fill-116_4_" class="st14" d="M86.1-1.2c-0.7,0-1.3,0.4-1.5,1.1l-1.3,3.9l-3.9,1.3c-0.6,0.2-1.1,0.8-1.1,1.5
								s0.4,1.3,1.1,1.5l3.9,1.3l1.3,3.9c0.2,0.6,0.8,1.1,1.5,1.1c0.7,0,1.3-0.4,1.5-1.1l1.3-3.9L92.8,8c0.6-0.2,1.1-0.8,1.1-1.5
								S93.5,5.2,92.8,5l-3.9-1.3l-1.3-3.9C87.3-0.8,86.7-1.2,86.1-1.2 M87.6,5L87.6,5l1.5-0.5L87.6,5l-0.5,1.5l0.2,0.1l-0.2,0.1
								c-0.5,0.2-0.8,0.5-1,1L86,7.9V7.6c-0.2-0.5-0.5-0.8-1-1l-0.2-0.1l0.2,0c0.5-0.2,0.8-0.5,1-1l0.1-0.2l0.1,0.2
								c0.2,0.5,0.5,0.8,1,1L87.6,5"/>
							<path id="Fill-120_3_" class="st14" d="M394.7,145c-0.7,0-1.3,0.4-1.5,1.1l-1.3,3.9l-3.9,1.3c-0.6,0.2-1.1,0.8-1.1,1.5
								s0.4,1.3,1.1,1.5l3.9,1.3l1.3,3.9c0.2,0.6,0.8,1.1,1.5,1.1s1.3-0.4,1.5-1.1l1.3-3.9l3.9-1.3c0.6-0.2,1.1-0.8,1.1-1.5
								s-0.4-1.3-1.1-1.5l-3.9-1.3l-1.3-3.9C395.9,145.4,395.3,145,394.7,145 M394.6,151.7l0.1-0.2l0.1,0.2c0.2,0.5,0.5,0.8,1,1
								l0.2,0.1l-0.2,0.1c-0.5,0.2-0.8,0.5-1,1l-0.1,0.2l-0.1-0.2c-0.2-0.5-0.5-0.8-1-1l-0.2-0.1l0.2-0.1
								C394.1,152.5,394.4,152.2,394.6,151.7"/>
						</g>
						
							<g id="Group_7_" transform="translate(1233.185100, 784.124789) scale(1, -1) rotate(-95.000000) translate(-1233.185100, -784.124789) translate(1011.685100, 657.624789)" class="st16">
							<path id="Fill-98_4_" class="st14" d="M325.4,101.6c-1.8,0-3.2,1.4-3.2,3.2s1.4,3.2,3.2,3.2c1.8,0,3.2-1.4,3.2-3.2
								C328.6,103.1,327.1,101.6,325.4,101.6"/>
							<path id="Fill-100_4_" class="st14" d="M347.7,249.4c-1.8,0-3.2,1.4-3.2,3.2s1.4,3.2,3.2,3.2c1.8,0,3.2-1.4,3.2-3.2
								C350.9,250.8,349.5,249.4,347.7,249.4"/>
							<path id="Fill-108_3_" class="st14" d="M308.3,26.2c-0.7,0-1.3,0.4-1.5,1.1l-0.9,2.8L303,31c-0.7,0.2-1.1,0.8-1.1,1.5
								c0,0.7,0.4,1.3,1.1,1.5l2.8,0.9l0.9,2.8c0.2,0.7,0.8,1.1,1.5,1.1s1.3-0.4,1.5-1.1l0.9-2.8l2.8-0.9c0.7-0.2,1.1-0.8,1.1-1.5
								s-0.4-1.3-1.1-1.5l-2.8-0.9l-0.9-2.8C309.6,26.6,309,26.2,308.3,26.2 M308.2,32.6l0.1-0.1c0,0.1,0.1,0.1,0.1,0.1
								c-0.1,0-0.1,0.1-0.1,0.1C308.3,32.6,308.2,32.6,308.2,32.6 M307.4,32.9L307.4,32.9l-0.3,0.8l-1.5,0.5l1.5-0.5L307.4,32.9"/>
							<path id="Fill-112_4_" class="st14" d="M204,204.8c-0.7,0-1.3,0.4-1.5,1.1l-0.9,2.8l-2.8,0.9c-0.7,0.2-1.1,0.8-1.1,1.5
								s0.4,1.3,1.1,1.5l2.8,0.9l0.9,2.8c0.2,0.7,0.8,1.1,1.5,1.1s1.3-0.4,1.5-1.1l0.9-2.8l2.8-0.9c0.7-0.2,1.1-0.8,1.1-1.5
								s-0.4-1.3-1.1-1.5l-2.8-0.9l-0.9-2.8C205.3,205.2,204.7,204.8,204,204.8 M203.8,211.1l0.1-0.1l0.1,0.1
								c-0.1,0-0.1,0.1-0.1,0.1C203.9,211.2,203.9,211.2,203.8,211.1 M203,211.5L203,211.5l-0.3,0.8l-1.5,0.5l1.5-0.5L203,211.5"/>
							<path id="Fill-120_4_" class="st14" d="M434,162.2c-0.7,0-1.4,0.5-1.6,1.2l-1.4,4.3l-4.3,1.4c-0.7,0.2-1.2,0.9-1.2,1.6
								c0,0.7,0.5,1.4,1.2,1.6l4.3,1.4l1.4,4.3c0.2,0.7,0.9,1.2,1.6,1.2s1.4-0.5,1.6-1.2l1.4-4.3l4.3-1.4c0.7-0.2,1.2-0.9,1.2-1.6
								c0-0.7-0.5-1.4-1.2-1.6l-4.3-1.4l-1.4-4.3C435.4,162.7,434.7,162.2,434,162.2 M433.9,169.6l0.1-0.3l0.1,0.3
								c0.2,0.5,0.6,0.9,1.1,1.1l0.3,0.1l-0.3,0.1c-0.5,0.2-0.9,0.6-1.1,1.1l-0.1,0.3l-0.1-0.3c-0.2-0.5-0.6-0.9-1.1-1.1l-0.3-0.1
								l0.3-0.1C433.3,170.5,433.7,170.1,433.9,169.6"/>
						</g>
						
							<g id="Group_8_" transform="translate(1291.697500, 529.464924) rotate(-243.000000) translate(-1291.697500, -529.464924) translate(1058.697500, 396.464924)" class="st17">
							<path id="Fill-108_4_" class="st14" d="M323.4,22.2c-0.7,0-1.4,0.5-1.6,1.1l-1,3l-3,1c-0.7,0.2-1.1,0.9-1.1,1.6
								s0.5,1.4,1.1,1.6l3,1l1,3c0.2,0.7,0.9,1.1,1.6,1.1s1.4-0.5,1.6-1.1l1-3l3-1c0.7-0.2,1.1-0.9,1.1-1.6s-0.5-1.4-1.1-1.6l-3-1
								l-1-3C324.7,22.6,324.1,22.2,323.4,22.2 M323.2,28.9c0.1,0,0.1-0.1,0.1-0.1c0,0.1,0.1,0.1,0.1,0.1c-0.1,0-0.1,0.1-0.1,0.1
								C323.3,29,323.3,28.9,323.2,28.9 M322.4,29.3L322.4,29.3l-0.3,0.8l-1.6,0.5l1.6-0.5L322.4,29.3"/>
							<path id="Fill-116_5_" class="st14" d="M100.4-2.4c-0.8,0-1.5,0.5-1.7,1.2l-1.5,4.5l-4.5,1.5C92,5,91.5,5.7,91.5,6.5
								S92,8,92.7,8.2l4.5,1.5l1.5,4.5c0.2,0.7,0.9,1.2,1.7,1.2c0.8,0,1.5-0.5,1.7-1.2l1.5-4.5l4.5-1.5c0.7-0.2,1.2-0.9,1.2-1.7
								s-0.5-1.5-1.2-1.7l-4.5-1.5l-1.5-4.5C101.9-1.9,101.2-2.4,100.4-2.4 M102.2,4.8L102.2,4.8l1.7-0.6L102.2,4.8l-0.6,1.7
								l0.3,0.1l-0.3,0.1c-0.5,0.2-1,0.6-1.1,1.1L100.4,8l-0.1-0.3c-0.2-0.5-0.6-1-1.1-1.1l-0.3-0.1l0.3-0.1c0.5-0.2,1-0.6,1.1-1.1
								l0.1-0.3l0.1,0.3c0.2,0.5,0.6,1,1.1,1.1L102.2,4.8"/>
						</g>
						
							<g id="Group_9_" transform="translate(1161.599632, 847.236445) scale(-1, -1) rotate(-258.000000) translate(-1161.599632, -847.236445) translate(923.099632, 710.736445)" class="st18">
							<path id="Fill-100_5_" class="st14" d="M375.8,268.8c-1.9,0-3.4,1.5-3.4,3.4s1.5,3.4,3.4,3.4s3.4-1.5,3.4-3.4
								C379.2,270.4,377.7,268.8,375.8,268.8"/>
							<path id="Fill-102_4_" class="st14" d="M4.3,167.9c-1.9,0-3.4,1.5-3.4,3.4s1.5,3.4,3.4,3.4s3.4-1.5,3.4-3.4
								C7.7,169.4,6.2,167.9,4.3,167.9"/>
							<path id="Fill-104_5_" class="st14" d="M178.6,127.7c-1.9,0-3.4,1.5-3.4,3.4c0,1.9,1.5,3.4,3.4,3.4c1.9,0,3.4-1.5,3.4-3.4
								C182,129.3,180.4,127.7,178.6,127.7"/>
							<path id="Fill-112_5_" class="st14" d="M221,220.6c-0.7,0-1.4,0.5-1.6,1.2l-1,3.1l-3.1,1c-0.7,0.2-1.2,0.9-1.2,1.6
								c0,0.7,0.5,1.4,1.2,1.6l3.1,1l1,3.1c0.2,0.7,0.9,1.2,1.6,1.2c0.7,0,1.4-0.5,1.6-1.2l1-3.1l3.1-1c0.7-0.2,1.2-0.9,1.2-1.6
								c0-0.7-0.5-1.4-1.2-1.6l-3.1-1l-1-3.1C222.4,221.1,221.7,220.6,221,220.6 M220.8,227.5c0.1,0,0.1-0.1,0.2-0.2
								c0,0.1,0.1,0.1,0.2,0.2c-0.1,0-0.1,0.1-0.2,0.2C220.9,227.6,220.9,227.6,220.8,227.5 M220,228L220,228l-0.3,0.9l-1.6,0.5
								l1.6-0.5L220,228"/>
						</g>
						
							<g id="Group_10_" transform="translate(1133.604122, 759.450421) scale(1, -1) rotate(-177.000000) translate(-1133.604122, -759.450421) translate(903.604122, 627.950421)" class="st16">
							<path id="Fill-102_5_" class="st14" d="M0.5,159c-1.8,0-3.3,1.5-3.3,3.3s1.5,3.3,3.3,3.3s3.3-1.5,3.3-3.3
								C3.8,160.5,2.3,159,0.5,159"/>
							<path id="Fill-112_6_" class="st14" d="M209.5,209.9c-0.7,0-1.3,0.5-1.6,1.1l-1,2.9l-2.9,1c-0.7,0.2-1.1,0.9-1.1,1.6
								c0,0.7,0.5,1.3,1.1,1.6l2.9,1l1,2.9c0.2,0.7,0.9,1.1,1.6,1.1s1.3-0.5,1.6-1.1l1-2.9l2.9-1c0.7-0.2,1.1-0.9,1.1-1.6
								c0-0.7-0.5-1.3-1.1-1.6l-2.9-1l-1-2.9C210.8,210.3,210.2,209.9,209.5,209.9 M209.3,216.5c0.1,0,0.1-0.1,0.1-0.1
								c0,0.1,0.1,0.1,0.1,0.1c-0.1,0-0.1,0.1-0.1,0.1C209.4,216.6,209.4,216.5,209.3,216.5 M208.5,216.9L208.5,216.9l-0.3,0.8
								l-1.6,0.5l1.6-0.5L208.5,216.9"/>
						</g>
						<path id="Fill-100_6_" class="st14" d="M1374.2,572.1c-2,0-3.6,1.6-3.6,3.6s1.6,3.6,3.6,3.6s3.6-1.6,3.6-3.6
							S1376.2,572.1,1374.2,572.1"/>
						<path id="Fill-120_5_" class="st14" d="M1347.3,702.8c-0.8,0-1.6,0.5-1.8,1.3l-1.6,4.9l-4.9,1.6c-0.8,0.3-1.3,1-1.3,1.8
							s0.5,1.6,1.3,1.8l4.9,1.6l1.6,4.9c0.3,0.8,1,1.3,1.8,1.3s1.6-0.5,1.8-1.3l1.6-4.9l4.9-1.6c0.8-0.3,1.3-1,1.3-1.8
							s-0.5-1.6-1.3-1.8l-4.9-1.6l-1.6-4.9C1348.8,703.4,1348.1,702.8,1347.3,702.8 M1347.2,711.2l0.1-0.3l0.1,0.3
							c0.2,0.6,0.6,1,1.2,1.2l0.3,0.1l-0.3,0.1c-0.6,0.2-1,0.6-1.2,1.2l-0.1,0.3l-0.1-0.3c-0.2-0.6-0.6-1-1.2-1.2l-0.3-0.1l0.3-0.1
							C1346.5,712.2,1347,711.7,1347.2,711.2"/>
					</g>
				</g>
			</g>
			
				<g id="Bg-Copy-3" transform="translate(2338.430578, 1706.198420) rotate(160.636885) translate(-2338.430578, -1706.198420) translate(1745.930578, 1217.698420)">
				
					<linearGradient id="on_14_" gradientUnits="userSpaceOnUse" x1="4007.6663" y1="2616.3748" x2="4007.5222" y2="2617.3455" gradientTransform="matrix(1323.6804 -430.0876 304.3759 936.7773 -6100554 -727226.75)">
					<stop  offset="0" style="stop-color:#0D81FE"/>
					<stop  offset="1" style="stop-color:#61CEFF"/>
				</linearGradient>
				<path id="on_2_" class="st19" d="M-7.3-118.5l879.7-6.3c33.2-0.2,64.3,16,83.1,43.3l103.9,151.2c17.9,26.1,22.5,59.1,12.2,89.1
					c-39.4,114.9-67,192.8-82.8,233.5c-6.7,17.3-13.4,34-20,50.2c-19.4,47.6-16.1,49.1-80.7,106c-64.6,56.9-73.9,48-150.9,79.3
					c-51.7,21-57,56.1-95.1,73c-18.7,8.3-46,10.6-72.3,20.7c-80,30.7-125.1,9-272.5,59.1C150,830.7,97.6,811.8,56.8,837
					C16,862.2-67.7,886.1-101.5,876.3l0,0l0,0c-35.1-10.1-58.4-43.2-56.2-79.6l51.3-821.5C-103.1-77.2-59.8-118.1-7.3-118.5z"/>
				<path id="on-dark_1_" class="st5" d="M15.2-111.4l847-6.1c26.5-0.2,52,10.2,70.9,28.8L1077.9,54c32.8,32.4,39.3,83,15.6,122.5
					C1030.6,281.8,990,349.4,972,379.3c-11.7,19.4-22.7,30.6-32.3,46.4c-34.8,57.3-51.1,72.9-62.5,106.7
					c-21.4,63.4-124.3,50-171.2,90c-46.9,40.1-70.1,48.5-93.4,60.7c-81.5,42.9-298,62.5-412.3,122.6
					c-52.8,27.8-123.7,51.2-212.7,70.4l0,0c-54,11.6-107.2-22.8-118.8-76.8c-1.9-8.9-2.6-18.1-2-27.2l49.3-789.8
					C-80.6-70.1-37.3-111,15.2-111.4z"/>
				
					<g id="etoile-confet_x7B_:linearEase_x3B_0_x2C_0.65_x2C_4.07_x2C_1745_x2C_1171_x2C_360_x2C_0.21_x3B_10_x2C_0.2_x2C_4.99_x2C_1745_x2C_1171_x2C_360_x2C_0.21_x3B_20_x2C_0.76_x2C_3.73_x2C_1745_x2C_1171_x2C_360_x2C_0.21_x3B_30_x2C_0.65_x2C_4.07_x2C_1745_x2C_1171_x_1_" transform="translate(-78.486569, -224.614127)" class="st9">
					
						<g id="Group_11_" transform="translate(1228.680113, 578.547106) scale(1, -1) rotate(-20.000000) translate(-1228.680113, -578.547106) translate(1045.285617, 469.514061)" class="st10">
					</g>
					
						<g id="Group_12_" transform="translate(715.359208, 728.349274) scale(-1, 1) rotate(-149.000000) translate(-715.359208, -728.349274) translate(579.663729, 647.964127)" class="st20">
					</g>
					<g id="Group-2_1_" transform="translate(-0.000000, 0.000000)">
						
							<g id="Group_13_" transform="translate(1223.069490, 697.285433) rotate(-332.000000) translate(-1223.069490, -697.285433) translate(1088.569490, 617.285433)" class="st13">
							<path id="Fill-98_5_" class="st14" d="M194.4,62.5c-1.1,0-1.9,0.9-1.9,2c0,1.1,0.9,2,1.9,2s1.9-0.9,1.9-2
								C196.3,63.4,195.5,62.5,194.4,62.5"/>
							<path id="Fill-100_7_" class="st14" d="M207.9,155.4c-1.1,0-1.9,0.9-1.9,2s0.9,2,1.9,2c1,0,1.9-0.9,1.9-2
								C209.9,156.3,209,155.4,207.9,155.4"/>
							<path id="Fill-104_6_" class="st14" d="M97.1,73.2c-1.1,0-1.9,0.9-1.9,2s0.9,2,1.9,2s1.9-0.9,1.9-2S98.1,73.2,97.1,73.2"/>
							<path id="Fill-108_5_" class="st14" d="M184.1,15c-0.4,0-0.8,0.3-0.9,0.7l-0.6,1.8l-1.7,0.6c-0.4,0.1-0.7,0.5-0.7,1
								s0.3,0.8,0.7,1l1.7,0.6l0.6,1.8c0.1,0.4,0.5,0.7,0.9,0.7c0.4,0,0.8-0.3,0.9-0.7l0.6-1.8l1.7-0.6c0.4-0.1,0.7-0.5,0.7-1
								c0-0.5-0.3-0.8-0.7-1l-1.7-0.6l-0.6-1.8C184.9,15.3,184.5,15,184.1,15 M184,19C184,19,184.1,19,184,19c0.1-0.1,0.1,0,0.2,0
								C184.1,19.1,184.1,19.1,184,19C184.1,19.1,184,19.1,184,19 M183.5,19.3L183.5,19.3l-0.2,0.5l-0.9,0.3l0.9-0.3L183.5,19.3"/>
							<path id="Fill-112_7_" class="st14" d="M120.9,127.3c-0.4,0-0.8,0.3-0.9,0.7l-0.6,1.8l-1.7,0.6c-0.4,0.1-0.7,0.5-0.7,1
								c0,0.4,0.3,0.8,0.7,1l1.7,0.6l0.6,1.8c0.1,0.4,0.5,0.7,0.9,0.7s0.8-0.3,0.9-0.7l0.6-1.8l1.7-0.6c0.4-0.1,0.7-0.5,0.7-1
								c0-0.4-0.3-0.8-0.7-1l-1.7-0.6l-0.6-1.8C121.7,127.6,121.3,127.3,120.9,127.3 M120.8,131.3
								C120.9,131.3,120.9,131.3,120.8,131.3c0.1-0.1,0.1,0,0.2,0C121,131.3,121,131.4,120.8,131.3
								C120.9,131.4,120.9,131.3,120.8,131.3 M120.4,131.6L120.4,131.6l-0.2,0.5l-0.9,0.3l0.9-0.3L120.4,131.6"/>
							<path id="Fill-120_6_" class="st14" d="M260.1,100.6c-0.4,0-0.8,0.3-1,0.7l-0.9,2.7l-2.6,0.9c-0.4,0.1-0.7,0.6-0.7,1
								c0,0.5,0.3,0.9,0.7,1l2.6,0.9l0.9,2.7c0.1,0.4,0.5,0.7,1,0.7s0.8-0.3,1-0.7l0.9-2.7l2.6-0.9c0.4-0.1,0.7-0.6,0.7-1
								c0-0.5-0.3-0.9-0.7-1L262,104l-0.9-2.7C261,100.9,260.6,100.6,260.1,100.6 M260.1,105.2l0.1-0.2l0.1,0.2
								c0.1,0.3,0.3,0.6,0.7,0.7l0.2,0.1l-0.2,0.1c-0.3,0.1-0.5,0.4-0.7,0.7l-0.1,0.2l-0.1-0.2c-0.1-0.3-0.3-0.6-0.7-0.7l-0.2-0.1
								l0.2-0.1C259.7,105.8,260,105.5,260.1,105.2"/>
						</g>
						<path id="Fill-98_6_" class="st14" d="M1299.6,629.7c-1.5,0-2.6,1.2-2.6,2.7s1.2,2.7,2.6,2.7c1.5,0,2.6-1.2,2.6-2.7
							S1301,629.7,1299.6,629.7"/>
						<path id="Fill-108_6_" class="st14" d="M1265.1,684.9c-0.6,0-1.1,0.4-1.3,0.9l-0.8,2.4l-2.3,0.8c-0.5,0.2-0.9,0.7-0.9,1.3
							s0.4,1.1,0.9,1.3l2.3,0.8l0.8,2.4c0.2,0.6,0.7,0.9,1.3,0.9s1.1-0.4,1.3-0.9l0.8-2.4l2.3-0.8c0.5-0.2,0.9-0.7,0.9-1.3
							s-0.4-1.1-0.9-1.3l-2.3-0.8l-0.8-2.4C1266.1,685.2,1265.6,684.9,1265.1,684.9 M1265,690.4L1265,690.4h0.2H1265
							C1265,690.4,1265,690.4,1265,690.4 M1264.3,690.7L1264.3,690.7l-0.2,0.7l-1.3,0.4l1.3-0.4L1264.3,690.7"/>
						<path id="Fill-120_7_" class="st14" d="M1401.5,611c-0.6,0-1.1,0.4-1.3,1l-1.2,3.7l-3.6,1.2c-0.6,0.2-1,0.8-1,1.4
							s0.4,1.2,1,1.4l3.6,1.2l1.2,3.7c0.2,0.6,0.7,1,1.3,1c0.6,0,1.1-0.4,1.3-1l1.2-3.7l3.6-1.2c0.6-0.2,1-0.8,1-1.4s-0.4-1.2-1-1.4
							l-3.6-1.2l-1.2-3.7C1402.7,611.4,1402.1,611,1401.5,611 M1401.4,617.4l0.1-0.2l0.1,0.2c0.1,0.4,0.5,0.8,0.9,0.9l0.2,0.1
							l-0.2,0.1c-0.4,0.1-0.8,0.5-0.9,0.9l-0.1,0.2l-0.1-0.2c-0.1-0.4-0.5-0.8-0.9-0.9l-0.2-0.1l0.2-0.1
							C1401,618.1,1401.3,617.8,1401.4,617.4"/>
						
							<g id="Group_14_" transform="translate(1087.006925, 790.292737) scale(-1, -1) rotate(-31.000000) translate(-1087.006925, -790.292737) translate(920.006925, 690.792737)" class="st16">
							<path id="Fill-98_7_" class="st14" d="M246.7,79.8c-1.3,0-2.4,1.1-2.4,2.5s1.1,2.5,2.4,2.5c1.3,0,2.4-1.1,2.4-2.5
								C249.1,80.9,248,79.8,246.7,79.8"/>
							<path id="Fill-100_8_" class="st14" d="M263.5,195.6c-1.3,0-2.4,1.1-2.4,2.5s1.1,2.5,2.4,2.5s2.4-1.1,2.4-2.5
								S264.9,195.6,263.5,195.6"/>
							<path id="Fill-102_6_" class="st14" d="M4.1,122.3c-1.3,0-2.4,1.1-2.4,2.5s1.1,2.5,2.4,2.5s2.4-1.1,2.4-2.5
								C6.5,123.4,5.4,122.3,4.1,122.3"/>
							<path id="Fill-104_7_" class="st14" d="M125.8,93.1c-1.3,0-2.4,1.1-2.4,2.5c0,1.4,1.1,2.5,2.4,2.5s2.4-1.1,2.4-2.5
								S127.1,93.1,125.8,93.1"/>
							<path id="Fill-108_7_" class="st14" d="M233.9,20.6c-0.5,0-1,0.3-1.1,0.9l-0.7,2.2l-2.1,0.7c-0.5,0.2-0.8,0.6-0.8,1.2
								c0,0.5,0.3,1,0.8,1.2l2.1,0.7l0.7,2.2c0.2,0.5,0.6,0.9,1.1,0.9c0.5,0,1-0.3,1.1-0.9l0.7-2.2l2.1-0.7c0.5-0.2,0.8-0.6,0.8-1.2
								s-0.3-1-0.8-1.2l-2.1-0.7l-0.7-2.2C234.9,20.9,234.4,20.6,233.9,20.6 M233.8,25.6l0.1-0.1l0.1,0.1l-0.1,0.1
								C233.9,25.7,233.8,25.6,233.8,25.6 M233.2,25.9L233.2,25.9l-0.2,0.6l-1.1,0.4l1.1-0.4L233.2,25.9"/>
							<path id="Fill-112_8_" class="st14" d="M155.5,160.6c-0.5,0-1,0.3-1.1,0.9l-0.7,2.2l-2.1,0.7c-0.5,0.2-0.8,0.6-0.8,1.2
								c0,0.6,0.3,1,0.8,1.2l2.1,0.7l0.7,2.2c0.2,0.5,0.6,0.9,1.1,0.9s1-0.3,1.1-0.9l0.7-2.2l2.1-0.7c0.5-0.2,0.8-0.6,0.8-1.2
								c0-0.5-0.3-1-0.8-1.2l-2.1-0.7l-0.7-2.2C156.4,161,156,160.6,155.5,160.6 M155.3,165.6l0.1-0.1l0.1,0.1l-0.1,0.1
								C155.4,165.7,155.4,165.7,155.3,165.6 M154.8,165.9L154.8,165.9l-0.2,0.6l-1.1,0.4l1.1-0.4L154.8,165.9"/>
							<path id="Fill-116_6_" class="st14" d="M74.6,2.2c-0.6,0-1,0.4-1.2,0.9l-1.1,3.4l-3.2,1.1c-0.5,0.2-0.9,0.7-0.9,1.3
								s0.3,1.1,0.9,1.3l3.2,1.1l1.1,3.4c0.2,0.5,0.7,0.9,1.2,0.9c0.6,0,1-0.4,1.2-0.9l1.1-3.4l3.2-1.1C80.6,10,81,9.5,81,8.9
								s-0.4-1.1-0.9-1.3l-3.2-1.1l-1.1-3.4C75.6,2.6,75.1,2.2,74.6,2.2 M75.9,7.6L75.9,7.6l1.2-0.4L75.9,7.6l-0.4,1.3L75.7,9h-0.2
								c-0.4,0.1-0.7,0.4-0.8,0.8L74.6,10l-0.1-0.2c-0.1-0.4-0.4-0.7-0.8-0.8l-0.2-0.1l0.2-0.1c0.4-0.1,0.7-0.4,0.8-0.8l0.1-0.2
								L74.7,8c0.1,0.4,0.4,0.7,0.8,0.8L75.9,7.6"/>
							<path id="Fill-120_8_" class="st14" d="M328.4,127.3c-0.6,0-1,0.4-1.2,0.9l-1.1,3.4l-3.2,1.1c-0.5,0.2-0.9,0.7-0.9,1.3
								s0.4,1.1,0.9,1.3l3.2,1.1l1.1,3.4c0.2,0.5,0.7,0.9,1.2,0.9c0.6,0,1-0.4,1.2-0.9l1.1-3.4l3.2-1.1c0.5-0.2,0.9-0.7,0.9-1.3
								s-0.4-1.1-0.9-1.3l-3.2-1.1l-1.1-3.4C329.4,127.6,328.9,127.3,328.4,127.3 M328.3,133l0.1-0.2l0.1,0.2
								c0.1,0.4,0.4,0.7,0.8,0.8l0.2,0.1l-0.2,0.1c-0.4,0.1-0.7,0.4-0.8,0.8l-0.1,0.2l-0.1-0.2c-0.1-0.4-0.4-0.7-0.8-0.8l-0.2-0.1
								l0.2-0.1C327.9,133.7,328.2,133.4,328.3,133"/>
						</g>
						
							<g id="Group_15_" transform="translate(1016.458872, 668.918929) scale(1, -1) rotate(-95.000000) translate(-1016.458872, -668.918929) translate(833.958872, 560.418929)" class="st16">
							<path id="Fill-98_8_" class="st14" d="M267.2,81.8c-1.4,0-2.6,1.2-2.6,2.7s1.2,2.7,2.6,2.7s2.6-1.2,2.6-2.7
								S268.6,81.8,267.2,81.8"/>
							<path id="Fill-100_9_" class="st14" d="M285.6,208.2c-1.4,0-2.6,1.2-2.6,2.7s1.2,2.7,2.6,2.7s2.6-1.2,2.6-2.7
								S287,208.2,285.6,208.2"/>
							<path id="Fill-108_8_" class="st14" d="M253.2,17.3c-0.6,0-1.1,0.4-1.2,0.9l-0.8,2.4l-2.3,0.8c-0.5,0.2-0.9,0.7-0.9,1.3
								s0.4,1.1,0.9,1.3l2.3,0.8l0.8,2.4c0.2,0.6,0.7,0.9,1.2,0.9c0.6,0,1.1-0.4,1.2-0.9l0.8-2.4l2.3-0.8c0.5-0.2,0.9-0.7,0.9-1.3
								s-0.4-1.1-0.9-1.3l-2.3-0.8l-0.8-2.4C254.2,17.7,253.7,17.3,253.2,17.3 M253.1,22.7l0.1-0.1l0.1,0.1l-0.1,0.1
								C253.1,22.8,253.1,22.8,253.1,22.7 M252.4,23.1L252.4,23.1l-0.2,0.7l-1.2,0.4l1.2-0.4L252.4,23.1"/>
							<path id="Fill-120_9_" class="st14" d="M356.5,133.6c-0.6,0-1.1,0.4-1.3,1l-1.2,3.7l-3.5,1.2c-0.6,0.2-1,0.8-1,1.4
								s0.4,1.2,1,1.4l3.5,1.2l1.2,3.7c0.2,0.6,0.7,1,1.3,1s1.1-0.4,1.3-1l1.2-3.7l3.5-1.2c0.6-0.2,1-0.8,1-1.4s-0.4-1.2-1-1.4
								l-3.5-1.2l-1.2-3.7C357.7,134,357.1,133.6,356.5,133.6 M356.4,139.9l0.1-0.2l0.1,0.2c0.1,0.4,0.5,0.8,0.9,0.9l0.2,0.1
								l-0.2,0.1c-0.4,0.1-0.7,0.5-0.9,0.9l-0.1,0.2l-0.1-0.2c-0.1-0.4-0.5-0.8-0.9-0.9l-0.2-0.1l0.2-0.1
								C356,140.7,356.3,140.4,356.4,139.9"/>
						</g>
						
							<g id="Group_16_" transform="translate(1063.879894, 450.998118) rotate(-243.000000) translate(-1063.879894, -450.998118) translate(871.879894, 336.998118)" class="st17">
						</g>
						
							<g id="Group_17_" transform="translate(957.634972, 722.229401) scale(-1, -1) rotate(-258.000000) translate(-957.634972, -722.229401) translate(761.134972, 605.229401)" class="st18">
							<path id="Fill-102_7_" class="st14" d="M3.3,138.5c-1.6,0-2.8,1.3-2.8,2.9c0,1.6,1.3,2.9,2.8,2.9s2.8-1.3,2.8-2.9
								C6.1,139.8,4.8,138.5,3.3,138.5"/>
							<path id="Fill-104_8_" class="st14" d="M146.6,104.1c-1.6,0-2.8,1.3-2.8,2.9s1.3,2.9,2.8,2.9c1.6,0,2.8-1.3,2.8-2.9
								C149.5,105.5,148.2,104.1,146.6,104.1"/>
							<path id="Fill-112_9_" class="st14" d="M181.5,183.6c-0.6,0-1.1,0.4-1.3,1l-0.8,2.6l-2.5,0.9c-0.6,0.2-1,0.8-1,1.4
								s0.4,1.2,1,1.4l2.5,0.9l0.8,2.6c0.2,0.6,0.7,1,1.3,1c0.6,0,1.1-0.4,1.3-1l0.8-2.6l2.5-0.9c0.6-0.2,1-0.8,1-1.4
								s-0.4-1.2-1-1.4l-2.5-0.9l-0.8-2.6C182.7,184,182.1,183.6,181.5,183.6 M181.4,189.5l0.1-0.1l0.1,0.1l-0.1,0.1L181.4,189.5
								 M180.7,189.8L180.7,189.8l-0.2,0.7l-1.3,0.5l1.3-0.5L180.7,189.8"/>
							<path id="Fill-116_7_" class="st14" d="M86.3-2.8c-0.7,0-1.2,0.4-1.4,1.1l-1.3,4l-3.8,1.3c-0.6,0.2-1,0.8-1,1.5
								s0.4,1.3,1,1.5l3.8,1.3l1.3,4c0.2,0.6,0.8,1.1,1.4,1.1c0.6,0,1.2-0.4,1.4-1.1l1.3-4l3.8-1.3c0.6-0.2,1-0.8,1-1.5
								s-0.4-1.3-1-1.5L89,2.2l-1.3-4C87.5-2.4,86.9-2.8,86.3-2.8 M87.8,3.5L87.8,3.5L89.2,3L87.8,3.5L87.3,5l0.2,0.1l-0.2,0.1
								c-0.4,0.2-0.8,0.5-1,1l-0.1,0.2l-0.1-0.2c-0.1-0.5-0.5-0.8-1-1L85,5.1L85.2,5c0.4-0.2,0.8-0.5,1-1l0.1-0.2l0,0.2
								c0.1,0.5,0.5,0.8,1,1L87.8,3.5"/>
						</g>
						
							<g id="Group_18_" transform="translate(933.926630, 647.516983) scale(1, -1) rotate(-177.000000) translate(-933.926630, -647.516983) translate(744.426630, 535.016983)" class="st16">
							<path id="Fill-102_8_" class="st14" d="M5.3,134.9c-1.5,0-2.7,1.3-2.7,2.8c0,1.6,1.2,2.8,2.7,2.8s2.7-1.3,2.7-2.8
								C8,136.2,6.8,134.9,5.3,134.9"/>
						</g>
						<path id="Fill-116_8_" class="st14" d="M687.9,839.9c-0.5,0-0.8,0.3-1,0.7l-0.9,2.7l-2.6,0.9c-0.4,0.1-0.7,0.6-0.7,1
							s0.3,0.9,0.7,1l2.6,0.9l0.9,2.7c0.1,0.4,0.5,0.7,1,0.7s0.8-0.3,1-0.7l0.9-2.7l2.6-0.9c0.4-0.1,0.7-0.6,0.7-1s-0.3-0.9-0.7-1
							l-2.6-0.9l-0.9-2.7C688.7,840.2,688.3,839.9,687.9,839.9 M688.9,844.2L688.9,844.2l1-0.3L688.9,844.2l-0.3,1l0.2,0.1l-0.2,0.1
							c-0.3,0.1-0.6,0.4-0.7,0.7l-0.1,0.2l-0.1-0.2c-0.1-0.3-0.3-0.6-0.7-0.7l-0.2-0.1l0.2-0.1c0.3-0.1,0.6-0.4,0.7-0.7l0.1-0.2
							l0.1,0.2c0.1,0.3,0.3,0.6,0.7,0.7L688.9,844.2"/>
					</g>
				</g>
			</g>
		</g>
	</g>
</g>
<rect x="1043.6" y="6619.3" transform="matrix(-0.1736 0.9848 -0.9848 -0.1736 7751.7935 6740.0454)" class="st21" width="9" height="6"/>
<polyline class="st22" points="599.6,2258.9 697.1,2275.4 697.1,2362.4 599.6,2345.9 "/>
<polyline class="st23" points="796.8,2258.9 697.1,2275.4 697.1,2362.4 796.8,2345.9 "/>
<polyline class="st22" points="598.1,1916.1 695.6,1932.6 695.6,2019.6 598.1,2003.1 "/>
<polyline class="st23" points="795.3,1916.1 695.6,1932.6 695.6,2019.6 795.3,2003.1 "/>
<polyline class="st23" points="599.6,2091.6 697.1,2108.1 697.1,2195.1 599.6,2178.6 "/>
<polyline class="st22" points="796.8,2091.6 697.1,2108.1 697.1,2195.1 796.8,2178.6 "/>
<polyline class="st23" points="599.6,2440.4 697.1,2456.9 697.1,2543.9 599.6,2527.4 "/>
<polyline class="st22" points="796.8,2440.4 697.1,2456.9 697.1,2543.9 796.8,2527.4 "/>
<polyline class="st22" points="598.1,2621.1 695.6,2637.6 695.6,2724.6 598.1,2708.1 "/>
<polyline class="st23" points="795.3,2621.1 695.6,2637.6 695.6,2724.6 795.3,2708.1 "/>
<g id="Bloc_de_texte_xA0_1_6_">
	<path class="st22" d="M523.4,2129.4c3.3,0,6,3.8,6,8.5s-2.6,8.6-5.9,8.6c-3.3,0-6-3.8-6.1-8.5
		C517.4,2133.3,520.1,2129.5,523.4,2129.4z"/>
	<path class="st22" d="M523.2,2067l1,142c0.1,13.7-7.6,24.9-17.2,25l-204.6,1.4c-9.6,0.1-17.5-11-17.6-24.7l-1-142
		c-0.1-13.7,7.6-24.9,17.2-25l204.6-1.4C515.2,2042.2,523.1,2053.3,523.2,2067z M286.4,2210.6c0.1,12.5,7.3,22.5,16,22.5l204.6-1.4
		c8.7-0.1,15.8-10.2,15.7-22.7l-1-142c-0.1-12.5-7.3-22.5-16-22.5l-204.6,1.4c-8.7,0.1-15.8,10.2-15.7,22.7L286.4,2210.6z"/>
</g>
<g id="Roadmapbien" transform="translate(398.000000, 1632.000000)">
	
		<g id="fomre" transform="translate(1192.558126, 763.763622) rotate(123.546581) translate(-1192.558126, -763.763622) translate(600.058126, 275.263622)">
		
			<linearGradient id="on_15_" gradientUnits="userSpaceOnUse" x1="539.7303" y1="-1008.388" x2="539.5863" y2="-1007.4173" gradientTransform="matrix(1323.6796 -430.0901 304.3776 936.7768 -406450.9375 1176537.25)">
			<stop  offset="0" style="stop-color:#0D81FE"/>
			<stop  offset="1" style="stop-color:#61CEFF"/>
		</linearGradient>
		<path id="on_3_" class="st24" d="M314.6-194.9l879.7-6.3c33.2-0.2,64.3,16,83.1,43.3L1381.3-6.7c17.9,26.1,22.5,59.1,12.2,89.1
			c-39.4,114.9-67,192.8-82.8,233.5c-6.7,17.3-13.4,34-20,50.2c-19.4,47.6-16.1,49.1-80.7,106s-73.9,48-150.9,79.3
			c-51.7,21-57,56.1-95.1,73c-18.7,8.3-46,10.6-72.3,20.7c-80,30.7-125.1,9-272.5,59.1s-199.8,31.3-240.6,56.5
			c-40.8,25.2-124.5,49.1-158.3,39.3l0,0l0,0c-35.1-10.1-58.4-43.2-56.2-79.6l51.4-821.6C218.7-153.6,262-194.6,314.6-194.9z"/>
		<path id="on-dark_2_" class="st5" d="M337.1-187.8l847-6.1c26.5-0.2,52,10.2,70.9,28.8l144.7,142.7c32.8,32.4,39.3,83,15.6,122.5
			c-63,105.3-103.5,172.9-121.5,202.8c-11.7,19.4-22.7,30.6-32.3,46.4c-34.8,57.3-51.1,72.9-62.5,106.7
			c-21.4,63.4-124.3,50-171.2,90c-46.9,40.1-70.1,48.5-93.4,60.7c-81.5,42.9-298,62.5-412.3,122.6c-52.8,27.8-123.7,51.2-212.7,70.4
			l0,0c-54,11.6-107.2-22.8-118.8-76.8c-1.9-8.9-2.6-18.1-2-27.2l49.3-789.8C241.2-146.5,284.5-187.4,337.1-187.8z"/>
		
			<g id="etoile-confet_x7B_:linearEase_x3B_0_x2C_0.65_x2C_4.07_x2C_1745_x2C_1171_x2C_360_x2C_0.21_x3B_10_x2C_0.2_x2C_4.99_x2C_1745_x2C_1171_x2C_360_x2C_0.21_x3B_20_x2C_0.76_x2C_3.73_x2C_1745_x2C_1171_x2C_360_x2C_0.21_x3B_30_x2C_0.65_x2C_4.07_x2C_1745_x2C_1171_x_2_" transform="translate(-78.486569, -224.614127)" class="st9">
			
				<g id="Group_19_" transform="translate(1228.680113, 578.547106) scale(1, -1) rotate(-20.000000) translate(-1228.680113, -578.547106) translate(1045.285617, 469.514061)" class="st10">
			</g>
			
				<g id="Group_20_" transform="translate(1262.829919, 398.008036) rotate(-82.000000) translate(-1262.829919, -398.008036) translate(1128.779233, 318.050470)" class="st11">
			</g>
			
				<g id="Group_21_" transform="translate(970.180283, 450.495882) scale(-1, 1) rotate(-237.000000) translate(-970.180283, -450.495882) translate(763.758674, 327.780259)" class="st12">
			</g>
			
				<g id="Group_22_" transform="translate(806.486460, 606.131341) scale(-1, -1) rotate(-2.000000) translate(-806.486460, -606.131341) translate(639.951099, 506.932650)" class="st10">
			</g>
			<g id="Group-2_2_" transform="translate(-0.000000, 0.000000)">
				
					<g id="Group_23_" transform="translate(1223.069490, 697.285433) rotate(-332.000000) translate(-1223.069490, -697.285433) translate(1088.569490, 617.285433)" class="st13">
					<path id="Fill-98_9_" class="st14" d="M442.8-156.1c-1.1,0-1.9,0.9-1.9,2c0,1.1,0.9,2,1.9,2c1.1,0,1.9-0.9,1.9-2
						C444.7-155.2,443.8-156.1,442.8-156.1"/>
					<path id="Fill-100_10_" class="st14" d="M456.3-63.2c-1.1,0-1.9,0.9-1.9,2c0,1.1,0.9,2,1.9,2c1.1,0,1.9-0.9,1.9-2
						S457.4-63.2,456.3-63.2"/>
					<path id="Fill-102_9_" class="st14" d="M247.5-122c-1.1,0-1.9,0.9-1.9,2s0.9,2,1.9,2s1.9-0.9,1.9-2
						C249.4-121.1,248.5-122,247.5-122"/>
					<path id="Fill-104_9_" class="st14" d="M345.4-145.4c-1.1,0-1.9,0.9-1.9,2c0,1.1,0.9,2,1.9,2s1.9-0.9,1.9-2
						C347.4-144.5,346.5-145.4,345.4-145.4"/>
					<path id="Fill-108_9_" class="st14" d="M432.4-203.6c-0.4,0-0.8,0.3-0.9,0.7l-0.6,1.8l-1.7,0.6c-0.4,0.1-0.7,0.5-0.7,1
						s0.3,0.8,0.7,1l1.7,0.6l0.6,1.8c0.1,0.4,0.5,0.7,0.9,0.7s0.8-0.3,0.9-0.7l0.6-1.8l1.7-0.6c0.4-0.1,0.7-0.5,0.7-1
						s-0.3-0.8-0.7-1l-1.7-0.6l-0.6-1.8C433.2-203.3,432.9-203.6,432.4-203.6 M432.4-199.5C432.4-199.6,432.4-199.6,432.4-199.5
						c0.1-0.1,0.1,0,0.2,0C432.5-199.5,432.5-199.5,432.4-199.5L432.4-199.5 M431.9-199.3L431.9-199.3l-0.2,0.5l-0.9,0.3l0.9-0.3
						L431.9-199.3"/>
					<path id="Fill-112_10_" class="st14" d="M369.3-91.3c-0.4,0-0.8,0.3-0.9,0.7l-0.6,1.8l-1.7,0.6c-0.4,0.1-0.7,0.5-0.7,1
						c0,0.4,0.3,0.8,0.7,1l1.7,0.6l0.6,1.8c0.1,0.4,0.5,0.7,0.9,0.7s0.8-0.3,0.9-0.7l0.6-1.8l1.7-0.6c0.4-0.1,0.7-0.5,0.7-1
						c0-0.4-0.3-0.8-0.7-1l-1.7-0.6l-0.6-1.8C370.1-91,369.7-91.3,369.3-91.3 M369.2-87.3C369.2-87.3,369.3-87.3,369.2-87.3
						c0.1-0.1,0.1,0,0.2,0C369.3-87.2,369.3-87.2,369.2-87.3C369.3-87.2,369.2-87.2,369.2-87.3 M368.7-87L368.7-87l-0.2,0.5
						l-0.9,0.3l0.9-0.3L368.7-87"/>
					<path id="Fill-116_9_" class="st14" d="M304.2-218.3c-0.4,0-0.8,0.3-1,0.7l-0.9,2.7l-2.6,0.9c-0.4,0.1-0.7,0.6-0.7,1
						c0,0.5,0.3,0.9,0.7,1l2.6,0.9l0.9,2.7c0.1,0.4,0.5,0.7,1,0.7s0.8-0.3,1-0.7l0.9-2.7l2.6-0.9c0.4-0.1,0.7-0.6,0.7-1
						s-0.3-0.9-0.7-1l-2.6-0.9l-0.9-2.7C305-218,304.6-218.3,304.2-218.3 M305.2-214L305.2-214l1-0.3L305.2-214l-0.3,1l0.2,0.1
						l-0.2,0.1c-0.3,0.1-0.5,0.4-0.7,0.7l-0.1,0.2l-0.1-0.2c-0.1-0.3-0.3-0.6-0.7-0.7l-0.2-0.1l0.2-0.1c0.3-0.1,0.5-0.4,0.7-0.7
						l0.1-0.2l0.1,0.2c0.1,0.3,0.3,0.6,0.7,0.7L305.2-214"/>
					<path id="Fill-120_10_" class="st14" d="M508.5-118c-0.4,0-0.8,0.3-1,0.7l-0.9,2.7l-2.6,0.9c-0.4,0.1-0.7,0.6-0.7,1
						c0,0.5,0.3,0.9,0.7,1l2.6,0.9l0.9,2.7c0.1,0.4,0.5,0.7,1,0.7c0.4,0,0.8-0.3,1-0.7l0.9-2.7l2.6-0.9c0.4-0.1,0.7-0.6,0.7-1
						c0-0.5-0.3-0.9-0.7-1l-2.6-0.9l-0.9-2.7C509.3-117.7,508.9-118,508.5-118 M508.4-113.4l0.1-0.2l0.1,0.2
						c0.1,0.3,0.3,0.6,0.7,0.7l0.2,0.1l-0.2,0.1c-0.3,0.1-0.5,0.4-0.7,0.7l-0.1,0.2l-0.1-0.2c-0.1-0.3-0.3-0.6-0.7-0.7l-0.2-0.1
						l0.2-0.1C508.1-112.8,508.3-113.1,508.4-113.4"/>
				</g>
				<path id="Fill-98_10_" class="st14" d="M1621.4,553.3c-1.5,0-2.6,1.2-2.6,2.7s1.2,2.7,2.6,2.7c1.5,0,2.6-1.2,2.6-2.7
					S1622.9,553.3,1621.4,553.3"/>
				<path id="Fill-100_11_" class="st14" d="M1680.7,440.2c-1.5,0-2.6,1.2-2.6,2.7s1.2,2.7,2.6,2.7s2.6-1.2,2.6-2.7
					C1683.3,441.4,1682.1,440.2,1680.7,440.2"/>
				<path id="Fill-104_10_" class="st14" d="M1501.1,492.2c-1.5,0-2.6,1.2-2.6,2.7s1.2,2.7,2.6,2.7s2.6-1.2,2.6-2.7
					S1502.6,492.2,1501.1,492.2"/>
				<path id="Fill-108_10_" class="st14" d="M1586.9,608.5c-0.6,0-1.1,0.4-1.3,0.9l-0.8,2.4l-2.3,0.8c-0.5,0.2-0.9,0.7-0.9,1.3
					s0.4,1.1,0.9,1.3l2.3,0.8l0.8,2.4c0.2,0.6,0.7,0.9,1.3,0.9s1.1-0.4,1.3-0.9l0.8-2.4l2.3-0.8c0.5-0.2,0.9-0.7,0.9-1.3
					s-0.4-1.1-0.9-1.3l-2.3-0.8l-0.8-2.4C1588,608.8,1587.5,608.5,1586.9,608.5 M1586.8,613.9L1586.8,613.9h0.2H1586.8
					C1586.9,614,1586.8,614,1586.8,613.9 M1586.1,614.3L1586.1,614.3l-0.2,0.7l-1.3,0.4l1.3-0.4L1586.1,614.3"/>
				<path id="Fill-112_11_" class="st14" d="M1556.3,433.1c-0.6,0-1.1,0.4-1.3,0.9l-0.8,2.4l-2.3,0.8c-0.5,0.2-0.9,0.7-0.9,1.3
					s0.4,1.1,0.9,1.3l2.3,0.8l0.8,2.4c0.2,0.6,0.7,0.9,1.3,0.9c0.6,0,1.1-0.4,1.3-0.9l0.8-2.4l2.3-0.8c0.5-0.2,0.9-0.7,0.9-1.3
					s-0.4-1.1-0.9-1.3l-2.3-0.8l-0.8-2.4C1557.4,433.5,1556.9,433.1,1556.3,433.1 M1556.2,438.6L1556.2,438.6h0.2H1556.2
					C1556.3,438.7,1556.3,438.6,1556.2,438.6 M1555.6,438.9L1555.6,438.9l-0.2,0.7l-1.3,0.4l1.3-0.4L1555.6,438.9"/>
				<path id="Fill-116_10_" class="st14" d="M1415.5,564.4c-0.6,0-1.1,0.4-1.3,1l-1.2,3.7l-3.6,1.2c-0.6,0.2-1,0.8-1,1.4
					s0.4,1.2,1,1.4l3.6,1.2l1.2,3.7c0.2,0.6,0.7,1,1.3,1c0.6,0,1.1-0.4,1.3-1l1.2-3.7l3.6-1.2c0.6-0.2,1-0.8,1-1.4s-0.4-1.2-1-1.4
					l-3.6-1.2l-1.2-3.7C1416.7,564.8,1416.1,564.4,1415.5,564.4 M1416.9,570.2L1416.9,570.2l1.3-0.5L1416.9,570.2l-0.4,1.4l0.2,0.1
					l-0.2,0.1c-0.4,0.1-0.8,0.5-0.9,0.9l-0.1,0.2l-0.1-0.2c-0.1-0.4-0.5-0.8-0.9-0.9l-0.2-0.1l0.2-0.1c0.4-0.1,0.8-0.5,0.9-0.9
					l0.1-0.2l0.1,0.2c0.1,0.4,0.5,0.8,0.9,0.9L1416.9,570.2"/>
				<path id="Fill-120_11_" class="st14" d="M1723.4,534.6c-0.6,0-1.1,0.4-1.3,1l-1.2,3.7l-3.6,1.2c-0.6,0.2-1,0.8-1,1.4
					s0.4,1.2,1,1.4l3.6,1.2l1.2,3.7c0.2,0.6,0.7,1,1.3,1c0.6,0,1.1-0.4,1.3-1l1.2-3.7l3.6-1.2c0.6-0.2,1-0.8,1-1.4s-0.4-1.2-1-1.4
					l-3.6-1.2l-1.2-3.7C1724.5,535,1724,534.6,1723.4,534.6 M1723.3,540.9l0.1-0.2l0.1,0.2c0.1,0.4,0.5,0.8,0.9,0.9l0.2,0.1
					l-0.2,0.1c-0.4,0.1-0.8,0.5-0.9,0.9l-0.1,0.2l-0.1-0.2c-0.1-0.4-0.5-0.8-0.9-0.9l-0.2-0.1l0.2-0.1
					C1722.8,541.7,1723.1,541.4,1723.3,540.9"/>
				<path id="Fill-102_10_" class="st14" d="M1581.3,460.9c-1.1,0-1.9,0.9-1.9,2s0.9,2,1.9,2c1,0,1.9-0.9,1.9-2
					C1583.2,461.8,1582.4,460.9,1581.3,460.9"/>
				
					<g id="Group_24_" transform="translate(1087.006925, 790.292737) scale(-1, -1) rotate(-31.000000) translate(-1087.006925, -790.292737) translate(920.006925, 690.792737)" class="st16">
					<path id="Fill-98_11_" class="st14" d="M-68.6-20.5c-1.3,0-2.4,1.1-2.4,2.5s1.1,2.5,2.4,2.5c1.3,0,2.4-1.1,2.4-2.5
						C-66.2-19.3-67.2-20.5-68.6-20.5"/>
					<path id="Fill-100_12_" class="st14" d="M-51.7,95.4c-1.4,0-2.4,1.1-2.4,2.5c0,1.4,1.1,2.5,2.4,2.5c1.3,0,2.4-1.1,2.4-2.5
						C-49.3,96.5-50.4,95.4-51.7,95.4"/>
					<path id="Fill-102_11_" class="st14" d="M-311.1,22c-1.3,0-2.4,1.1-2.4,2.5s1.1,2.5,2.4,2.5c1.3,0,2.4-1.1,2.4-2.5
						C-308.7,23.2-309.8,22-311.1,22"/>
					<path id="Fill-104_11_" class="st14" d="M-189.5-7.1c-1.3,0-2.4,1.1-2.4,2.5s1.1,2.5,2.4,2.5c1.3,0,2.4-1.1,2.4-2.5
						C-187-6-188.1-7.1-189.5-7.1"/>
					<path id="Fill-108_11_" class="st14" d="M-81.4-79.7c-0.5,0-1,0.3-1.1,0.9l-0.7,2.2l-2.1,0.7c-0.5,0.2-0.8,0.6-0.8,1.2
						s0.3,1,0.8,1.2l2.1,0.7l0.7,2.2c0.2,0.5,0.6,0.9,1.1,0.9s1-0.3,1.1-0.9l0.7-2.2l2.1-0.7c0.5-0.2,0.8-0.6,0.8-1.2
						s-0.3-1-0.8-1.2l-2.1-0.7l-0.7-2.2C-80.4-79.3-80.8-79.7-81.4-79.7 M-81.5-74.7l0.1-0.1l0.1,0.1l-0.1,0.1
						C-81.4-74.6-81.4-74.6-81.5-74.7 M-82.1-74.3L-82.1-74.3l-0.2,0.6l-1.1,0.4l1.1-0.4L-82.1-74.3"/>
					<path id="Fill-112_12_" class="st14" d="M-159.8,60.4c-0.5,0-1,0.3-1.1,0.9l-0.7,2.2l-2.1,0.7c-0.5,0.2-0.8,0.6-0.8,1.2
						s0.3,1,0.8,1.2l2.1,0.7l0.7,2.2c0.2,0.5,0.6,0.9,1.1,0.9s1-0.3,1.1-0.9l0.7-2.2l2.1-0.7c0.5-0.2,0.8-0.6,0.8-1.2
						c0-0.6-0.3-1-0.8-1.2l-2.1-0.7l-0.7-2.2C-158.9,60.7-159.3,60.4-159.8,60.4 M-159.9,65.4l0.1-0.1l0.1,0.1l-0.1,0.1
						C-159.9,65.5-159.9,65.4-159.9,65.4 M-160.5,65.7L-160.5,65.7l-0.2,0.6l-1.1,0.4l1.1-0.4L-160.5,65.7"/>
					<path id="Fill-116_11_" class="st14" d="M-240.7-98c-0.6,0-1,0.4-1.2,0.9l-1.1,3.4l-3.2,1.1c-0.5,0.2-0.9,0.7-0.9,1.3
						s0.3,1.1,0.9,1.3l3.2,1.1l1.1,3.4c0.2,0.5,0.7,0.9,1.2,0.9c0.6,0,1-0.4,1.2-0.9l1.1-3.4l3.2-1.1c0.5-0.2,0.9-0.7,0.9-1.3
						s-0.4-1.1-0.9-1.3l-3.2-1.1l-1.1-3.4C-239.7-97.6-240.1-98-240.7-98 M-239.4-92.7L-239.4-92.7l1.2-0.4L-239.4-92.7l-0.4,1.3
						l0.2,0.1l-0.2,0.1c-0.4,0.1-0.7,0.4-0.8,0.8l-0.1,0.2l-0.1-0.2c-0.1-0.4-0.4-0.7-0.8-0.8l-0.2-0.1l0.2-0.1
						c0.4-0.1,0.7-0.4,0.8-0.8l0.1-0.2l0.1,0.2c0.1,0.4,0.4,0.7,0.8,0.8L-239.4-92.7"/>
					<path id="Fill-120_12_" class="st14" d="M13.1,27c-0.6,0-1,0.4-1.2,0.9l-1.1,3.4l-3.2,1.1c-0.5,0.2-0.9,0.7-0.9,1.3
						s0.4,1.1,0.9,1.3l3.2,1.1l1.1,3.4c0.2,0.5,0.7,0.9,1.2,0.9c0.6,0,1-0.4,1.2-0.9l1.1-3.4l3.2-1.1c0.5-0.2,0.9-0.7,0.9-1.3
						s-0.4-1.1-0.9-1.3l-3.2-1.1l-1.1-3.4C14.2,27.4,13.7,27,13.1,27 M13,32.8l0.1-0.2l0.1,0.2c0.1,0.4,0.4,0.7,0.8,0.8l0.2,0.1
						L14,33.8c-0.4,0.1-0.7,0.4-0.8,0.8l-0.1,0.2L13,34.6c-0.1-0.4-0.4-0.7-0.8-0.8L12,33.7l0.2-0.1C12.6,33.5,12.9,33.2,13,32.8"/>
				</g>
				
					<g id="Group_25_" transform="translate(1016.458872, 668.918929) scale(1, -1) rotate(-95.000000) translate(-1016.458872, -668.918929) translate(833.958872, 560.418929)" class="st16">
					<path id="Fill-98_12_" class="st14" d="M163,395.8c-1.4,0-2.6,1.2-2.6,2.7s1.2,2.7,2.6,2.7c1.4,0,2.6-1.2,2.6-2.7
						C165.7,397,164.5,395.8,163,395.8"/>
					<path id="Fill-100_13_" class="st14" d="M181.4,522.2c-1.4,0-2.6,1.2-2.6,2.7s1.2,2.7,2.6,2.7c1.4,0,2.6-1.2,2.6-2.7
						C184,523.4,182.9,522.2,181.4,522.2"/>
					<path id="Fill-108_12_" class="st14" d="M149,331.3c-0.6,0-1.1,0.4-1.2,0.9l-0.8,2.4l-2.3,0.8c-0.5,0.2-0.9,0.7-0.9,1.3
						c0,0.6,0.4,1.1,0.9,1.3l2.3,0.8l0.8,2.4c0.2,0.6,0.7,0.9,1.2,0.9s1.1-0.4,1.2-0.9l0.8-2.4l2.3-0.8c0.5-0.2,0.9-0.7,0.9-1.3
						c0-0.6-0.4-1.1-0.9-1.3l-2.3-0.8l-0.8-2.4C150.1,331.6,149.6,331.3,149,331.3 M148.9,336.7l0.1-0.1l0.1,0.1l-0.1,0.1
						C149,336.8,148.9,336.8,148.9,336.7 M148.3,337.1L148.3,337.1l-0.2,0.7l-1.2,0.4l1.2-0.4L148.3,337.1"/>
					<path id="Fill-112_13_" class="st14" d="M63.2,484c-0.6,0-1.1,0.4-1.2,0.9l-0.8,2.4l-2.3,0.8c-0.5,0.2-0.9,0.7-0.9,1.3
						c0,0.6,0.4,1.1,0.9,1.3l2.3,0.8l0.8,2.4c0.2,0.6,0.7,0.9,1.2,0.9c0.6,0,1.1-0.4,1.2-0.9l0.8-2.4l2.3-0.8
						c0.5-0.2,0.9-0.7,0.9-1.3s-0.4-1.1-0.9-1.3l-2.3-0.8l-0.8-2.4C64.3,484.4,63.8,484,63.2,484 M63.1,489.4l0.1-0.1l0.1,0.1
						l-0.1,0.1C63.2,489.5,63.1,489.5,63.1,489.4 M62.4,489.8L62.4,489.8l-0.2,0.7l-1.2,0.4l1.2-0.4L62.4,489.8"/>
					<path id="Fill-120_13_" class="st14" d="M252.4,447.6c-0.6,0-1.1,0.4-1.3,1l-1.2,3.7l-3.5,1.2c-0.6,0.2-1,0.8-1,1.4
						s0.4,1.2,1,1.4l3.5,1.2l1.2,3.7c0.2,0.6,0.7,1,1.3,1s1.1-0.4,1.3-1l1.2-3.7l3.5-1.2c0.6-0.2,1-0.8,1-1.4s-0.4-1.2-1-1.4
						l-3.5-1.2l-1.2-3.7C253.5,448,253,447.6,252.4,447.6 M252.3,453.9l0.1-0.2l0.1,0.2c0.1,0.4,0.5,0.8,0.9,0.9l0.2,0.1l-0.2,0.1
						c-0.4,0.1-0.7,0.5-0.9,0.9l-0.1,0.2l-0.1-0.2c-0.1-0.4-0.5-0.8-0.9-0.9l-0.2-0.1l0.2-0.1C251.8,454.7,252.1,454.3,252.3,453.9"
						/>
				</g>
				
					<g id="Group_26_" transform="translate(1063.879894, 450.998118) rotate(-243.000000) translate(-1063.879894, -450.998118) translate(871.879894, 336.998118)" class="st17">
				</g>
				
					<g id="Group_27_" transform="translate(957.634972, 722.229401) scale(-1, -1) rotate(-258.000000) translate(-957.634972, -722.229401) translate(761.134972, 605.229401)" class="st18">
					<path id="Fill-100_14_" class="st14" d="M450.4,523.8c-1.6,0-2.8,1.3-2.8,2.9s1.3,2.9,2.8,2.9s2.8-1.3,2.8-2.9
						C453.3,525.1,452,523.8,450.4,523.8"/>
					<path id="Fill-102_12_" class="st14" d="M144.9,437.4c-1.6,0-2.8,1.3-2.8,2.9c0,1.6,1.3,2.9,2.8,2.9c1.6,0,2.8-1.3,2.8-2.9
						S146.5,437.4,144.9,437.4"/>
					<path id="Fill-104_12_" class="st14" d="M288.3,403.1c-1.6,0-2.8,1.3-2.8,2.9s1.3,2.9,2.8,2.9c1.6,0,2.8-1.3,2.8-2.9
						S289.8,403.1,288.3,403.1"/>
					<path id="Fill-112_14_" class="st14" d="M323.1,482.6c-0.6,0-1.1,0.4-1.3,1l-0.8,2.6l-2.5,0.9c-0.6,0.2-1,0.8-1,1.4
						c0,0.6,0.4,1.2,1,1.4l2.5,0.9l0.8,2.6c0.2,0.6,0.7,1,1.3,1s1.1-0.4,1.3-1l0.8-2.6l2.5-0.9c0.6-0.2,1-0.8,1-1.4
						c0-0.6-0.4-1.2-1-1.4l-2.5-0.9l-0.8-2.6C324.3,483,323.8,482.6,323.1,482.6 M323,488.5l0.1-0.1l0.1,0.1l-0.1,0.1
						C323.1,488.5,323.1,488.5,323,488.5 M322.3,488.8L322.3,488.8l-0.2,0.7l-1.3,0.5l1.3-0.5L322.3,488.8"/>
					<path id="Fill-116_12_" class="st14" d="M227.9,296.2c-0.7,0-1.2,0.4-1.4,1.1l-1.3,4l-3.8,1.3c-0.6,0.2-1,0.8-1,1.5
						s0.4,1.3,1,1.5l3.8,1.3l1.3,4c0.2,0.6,0.8,1.1,1.4,1.1s1.2-0.4,1.4-1.1l1.3-4l3.8-1.3c0.6-0.2,1-0.8,1-1.5c0-0.7-0.4-1.3-1-1.5
						l-3.8-1.3l-1.3-4C229.1,296.6,228.6,296.2,227.9,296.2 M229.4,302.5L229.4,302.5l1.4-0.5L229.4,302.5l-0.5,1.5l0.2,0.1
						l-0.2,0.1c-0.4,0.2-0.8,0.5-1,1l-0.1,0.2l-0.1-0.2c-0.1-0.5-0.5-0.8-1-1l-0.2-0.1l0.2-0.1c0.4-0.2,0.8-0.5,1-1l0.1-0.2l0.1,0.2
						c0.1,0.5,0.5,0.8,1,1L229.4,302.5"/>
				</g>
				
					<g id="Group_28_" transform="translate(933.926630, 647.516983) scale(1, -1) rotate(-177.000000) translate(-933.926630, -647.516983) translate(744.426630, 535.016983)" class="st16">
					<path id="Fill-102_13_" class="st14" d="M-320.1,75.5c-1.5,0-2.7,1.3-2.7,2.8c0,1.6,1.2,2.8,2.7,2.8s2.7-1.3,2.7-2.8
						C-317.4,76.7-318.6,75.5-320.1,75.5"/>
					<path id="Fill-112_15_" class="st14" d="M-148.3,118.9c-0.6,0-1.1,0.4-1.3,1l-0.8,2.5l-2.4,0.8c-0.6,0.2-0.9,0.7-0.9,1.3
						s0.4,1.2,0.9,1.3l2.4,0.8l0.8,2.5c0.2,0.6,0.7,1,1.3,1c0.6,0,1.1-0.4,1.3-1l0.8-2.5l2.4-0.8c0.6-0.2,0.9-0.7,0.9-1.3
						s-0.4-1.2-0.9-1.3l-2.4-0.8l-0.8-2.5C-147.1,119.3-147.7,118.9-148.3,118.9 M-148.4,124.6l0.1-0.1l0.1,0.1l-0.1,0.1
						C-148.3,124.7-148.3,124.6-148.4,124.6 M-149,125L-149,125l-0.2,0.7l-1.3,0.4l1.3-0.4L-149,125"/>
				</g>
				<path id="Fill-120_14_" class="st14" d="M1426.9,521.8c-0.7,0-1.3,0.5-1.5,1.1l-1.3,4.2l-4,1.4c-0.7,0.2-1.1,0.9-1.1,1.6
					c0,0.7,0.4,1.3,1.1,1.6l4,1.4l1.3,4.2c0.2,0.7,0.8,1.1,1.5,1.1s1.3-0.5,1.5-1.1l1.3-4.2l4-1.4c0.6-0.2,1.1-0.9,1.1-1.6
					c0-0.7-0.4-1.3-1.1-1.6l-4-1.4l-1.3-4.2C1428.2,522.3,1427.6,521.8,1426.9,521.8 M1426.8,528.9l0.1-0.3l0.1,0.3
					c0.2,0.5,0.5,0.9,1,1l0.2,0.1l-0.2,0.1c-0.5,0.2-0.8,0.6-1,1l-0.1,0.3l-0.1-0.3c-0.2-0.5-0.5-0.9-1-1l-0.2-0.1l0.2-0.1
					C1426.3,529.8,1426.6,529.4,1426.8,528.9"/>
			</g>
		</g>
	</g>
</g>
<g id="_x2D_-Features" transform="translate(-1153.000000, -901.000000)">
	
		<linearGradient id="Rectangle-7_1_" gradientUnits="userSpaceOnUse" x1="3133.9048" y1="-2.4332" x2="3133.3352" y2="-1.963" gradientTransform="matrix(1461 0 0 2117 -4576804 6854)">
		<stop  offset="0" style="stop-color:#FFFFFF"/>
		<stop  offset="1" style="stop-color:#EFFAFF"/>
	</linearGradient>
	<polygon id="Rectangle-7" class="st25" points="1140,742 2601,742 2601,2569 1140,2859 	"/>
	
		<g id="_x3E_formecool_1_" transform="translate(1940.511273, 1922.802214) rotate(136.000000) translate(-1940.511273, -1922.802214) translate(221.511273, 910.802214)">
		<g id="_x3E_illu_1_" transform="translate(0.000000, -0.000000)">
			
				<g id="Bg-Copy_1_" transform="translate(784.292428, 654.747828) rotate(7.000000) translate(-784.292428, -654.747828) translate(64.292428, 83.747828)">
				
					<linearGradient id="on_16_" gradientUnits="userSpaceOnUse" x1="1476.4055" y1="-4414.5698" x2="1476.2615" y2="-4413.5991" gradientTransform="matrix(1610.7083 -523.3513 357.0533 1098.8964 -801079.375 5623508.5)">
					<stop  offset="0" style="stop-color:#0D81FE"/>
					<stop  offset="1" style="stop-color:#61CEFF"/>
				</linearGradient>
				<path id="on_4_" class="st26" d="M-17.9-133.6l1099.1-20.1c33.2-0.6,64.5,15.3,83.6,42.4l133.5,189.8
					c18.6,26.4,23.3,60.3,12.5,90.8c-46,130.6-89.9,244.5-131.8,341.7c-52.5,122.1-77.7,187.2-251.2,257.2
					c-59.1,23.9-138.6,38.6-235.9,75.8c-125.6,48-190.3,29.3-331,73.1c-140.7,43.8-242.5,39.4-292.2,69.6
					c-49.8,30.2-151.5,59.3-192.4,48.3l0,0l0,0c-42.1-11.3-70.1-50.9-66.8-94.3l74.7-982C-111.9-92.6-69.5-132.6-17.9-133.6z"/>
				<path id="on-dark_3_" class="st5" d="M9.2-125.1l1057.4-19.3c26.3-0.5,51.8,9.5,70.9,27.6l186.7,178.2
					c34.5,32.9,40.9,85.6,15.5,125.8l-309.9,489.6c-12.9,20.4-32.7,35.4-55.8,42.3L-32.5,1020.9c-52.9,15.9-108.6-14.2-124.5-67.1
					c-3.5-11.8-4.9-24.1-3.9-36.3l72.3-950.2C-84.8-84.1-42.4-124.1,9.2-125.1z"/>
				
					<linearGradient id="Fond_4_" gradientUnits="userSpaceOnUse" x1="1476.0374" y1="-4414.1504" x2="1475.3848" y2="-4413.6152" gradientTransform="matrix(1608.243 -522.5502 340.7764 1048.801 -869309.3125 5400996)">
					<stop  offset="0" style="stop-color:#0D81FE"/>
					<stop  offset="1" style="stop-color:#61CEFF"/>
				</linearGradient>
				<path id="Fond_1_" class="st27" d="M9.1-124.2l1057.3-20.2c26.4-0.5,52,9.5,71.1,27.8c71,68,114.5,110.8,130.6,128.3
					c19.9,19.8,37.6,39.4,44.5,46.5l0,0l0,0c41.2,26.9,52.9,82.1,26,123.3c-0.6,0.9-1.2,1.7-1.8,2.6c-11.1,15.8-17.4,24.8-18.9,26.9
					c-20.8,30.5-36.3,56.2-53.9,83.7c-38.7,60.5-70.3,113.1-93.1,158.9c-37.8,75.8-84.1,150.8-139,225.2l0,0
					c-14,19-34.3,32.4-57.2,37.9c-29.1,7-47.9,11.7-56.3,14.2c-91.7,27.5-179.3,58.6-271,86.1c-64.5,19.4-96.9,12.7-189.8,47.5
					c-19.1,7.2-86.4,28-178.7,54.9c-45.3,13.2-102.2,23.1-159.2,40.7c-24.5,7.6-73.4,24.4-146.9,50.5l0,0
					c-52,18.5-109.2-8.7-127.7-60.7c-4.7-13.2-6.5-27.2-5.5-41.1l71.6-940.6C-84.8-83.2-42.5-123.2,9.1-124.2z"/>
			</g>
			
				<g id="Bg-Copy-3_1_" transform="translate(2711.600150, 1358.846046) rotate(159.636885) translate(-2711.600150, -1358.846046) translate(2119.100150, 869.846046)">
				
					<linearGradient id="on_17_" gradientUnits="userSpaceOnUse" x1="-24.4246" y1="-19.7858" x2="-24.5685" y2="-18.815" gradientTransform="matrix(1323.6799 -430.0895 304.3772 936.7769 39041.0117 8097.8677)">
					<stop  offset="0" style="stop-color:#0D81FE"/>
					<stop  offset="1" style="stop-color:#61CEFF"/>
				</linearGradient>
				<path id="on_5_" class="st28" d="M-7.3-117.4l879.7-6.3c33.2-0.2,64.3,16,83.1,43.3l103.9,151.2c17.9,26.1,22.5,59.1,12.2,89.1
					c-39.4,114.9-67,192.8-82.8,233.5c-6.7,17.3-13.4,34-20,50.2c-19.4,47.6-16.1,49.1-80.7,106s-73.9,48-150.9,79.3
					c-51.7,21-57,56.1-95.1,73c-18.7,8.3-46,10.6-72.3,20.7c-80,30.7-125.1,9-272.5,59.1C150,831.8,97.6,812.9,56.8,838.1
					C16,863.3-67.7,887.2-101.5,877.5l0,0l0,0c-35.1-10.1-58.4-43.2-56.2-79.6l51.3-821.5C-103.1-76.1-59.8-117.1-7.3-117.4z"/>
				<path id="on-dark_4_" class="st5" d="M15.2-110.3l847-6.1c26.5-0.2,52,10.2,70.9,28.8L1077.9,55c32.8,32.4,39.3,83,15.6,122.5
					c-63,105.4-103.5,173-121.5,202.9c-11.7,19.4-22.7,30.6-32.3,46.4c-34.8,57.3-51.1,72.9-62.5,106.7
					c-21.4,63.4-124.3,50-171.2,90c-46.9,40.1-70.1,48.5-93.4,60.7c-81.5,42.9-298,62.5-412.3,122.6
					C147.5,834.6,76.6,858-12.4,877.2l0,0c-54,11.6-107.2-22.8-118.8-76.8c-1.9-8.9-2.6-18.1-2-27.2l49.3-789.8
					C-80.6-69-37.3-109.9,15.2-110.3z"/>
				
					<g id="etoile-confet_x7B_:linearEase_x3B_0_x2C_0.65_x2C_4.07_x2C_1745_x2C_1171_x2C_360_x2C_0.21_x3B_10_x2C_0.2_x2C_4.99_x2C_1745_x2C_1171_x2C_360_x2C_0.21_x3B_20_x2C_0.76_x2C_3.73_x2C_1745_x2C_1171_x2C_360_x2C_0.21_x3B_30_x2C_0.65_x2C_4.07_x2C_1745_x2C_1171_x_3_" transform="translate(-78.481011, -223.614158)" class="st9">
					
						<g id="Group_29_" transform="translate(1228.680113, 578.547106) scale(1, -1) rotate(-20.000000) translate(-1228.680113, -578.547106) translate(1045.285617, 469.514061)" class="st10">
					</g>
					<g id="Group-2_3_" transform="translate(-0.000000, 0.000000)">
						
							<g id="Group_30_" transform="translate(1223.069490, 697.285433) rotate(-332.000000) translate(-1223.069490, -697.285433) translate(1088.569490, 617.285433)" class="st13">
							<path id="Fill-98_13_" class="st14" d="M194.4,62.6c-1.1,0-1.9,0.9-1.9,2c0,1.1,0.9,2,1.9,2s1.9-0.9,1.9-2
								C196.3,63.5,195.5,62.6,194.4,62.6"/>
							<path id="Fill-100_15_" class="st14" d="M207.9,155.5c-1.1,0-1.9,0.9-1.9,2s0.9,2,1.9,2s1.9-0.9,1.9-2
								C209.9,156.4,209,155.5,207.9,155.5"/>
							<path id="Fill-104_13_" class="st14" d="M97.1,73.3c-1.1,0-1.9,0.9-1.9,2s0.9,2,1.9,2s1.9-0.9,1.9-2
								C99,74.2,98.2,73.3,97.1,73.3"/>
							<path id="Fill-108_13_" class="st14" d="M184.1,15.1c-0.4,0-0.8,0.3-0.9,0.7l-0.6,1.8l-1.7,0.6c-0.4,0.1-0.7,0.5-0.7,1
								c0,0.5,0.3,0.8,0.7,1l1.7,0.6l0.6,1.8c0.1,0.4,0.5,0.7,0.9,0.7s0.8-0.3,0.9-0.7l0.6-1.8l1.7-0.6c0.4-0.1,0.7-0.5,0.7-1
								c0-0.4-0.3-0.8-0.7-1l-1.7-0.6l-0.6-1.8C184.9,15.4,184.5,15.1,184.1,15.1 M184,19.1C184,19.1,184.1,19.1,184,19.1
								c0.1-0.1,0.1,0,0.2,0C184.2,19.2,184.1,19.2,184,19.1C184.1,19.2,184,19.2,184,19.1 M183.5,19.4L183.5,19.4l-0.2,0.5
								l-0.9,0.3l0.9-0.3L183.5,19.4"/>
							<path id="Fill-112_16_" class="st14" d="M120.9,127.4c-0.4,0-0.8,0.3-0.9,0.7l-0.6,1.8l-1.7,0.6c-0.4,0.1-0.7,0.5-0.7,1
								c0,0.4,0.3,0.8,0.7,1l1.7,0.6l0.6,1.8c0.1,0.4,0.5,0.7,0.9,0.7s0.8-0.3,0.9-0.7l0.6-1.8l1.7-0.6c0.4-0.1,0.7-0.5,0.7-1
								c0-0.4-0.3-0.8-0.7-1l-1.7-0.6l-0.6-1.8C121.7,127.7,121.4,127.4,120.9,127.4 M120.9,131.4L120.9,131.4c0.1-0.1,0.1,0,0.2,0
								C121,131.4,121,131.5,120.9,131.4C120.9,131.5,120.9,131.4,120.9,131.4 M120.4,131.7L120.4,131.7l-0.2,0.5l-0.9,0.3l0.9-0.3
								L120.4,131.7"/>
							<path id="Fill-120_15_" class="st14" d="M260.1,100.7c-0.4,0-0.8,0.3-1,0.7l-0.9,2.7l-2.6,0.9c-0.4,0.1-0.7,0.6-0.7,1
								c0,0.5,0.3,0.9,0.7,1l2.6,0.9l0.9,2.7c0.1,0.4,0.5,0.7,1,0.7s0.8-0.3,1-0.7l0.9-2.7l2.6-0.9c0.4-0.1,0.7-0.6,0.7-1
								c0-0.5-0.3-0.9-0.7-1l-2.6-0.9l-0.9-2.7C261,101,260.6,100.7,260.1,100.7 M260.1,105.3l0.1-0.2l0.1,0.2
								c0.1,0.3,0.3,0.6,0.7,0.7l0.2,0.1l-0.2,0.1c-0.3,0.1-0.5,0.4-0.7,0.7l-0.1,0.2l-0.1-0.2c-0.1-0.3-0.3-0.6-0.7-0.7l-0.2-0.1
								l0.2-0.1C259.8,105.9,260,105.6,260.1,105.3"/>
						</g>
						<path id="Fill-98_14_" class="st14" d="M1299.5,629.8c-1.5,0-2.6,1.2-2.6,2.7s1.2,2.7,2.6,2.7c1.5,0,2.6-1.2,2.6-2.7
							S1301,629.8,1299.5,629.8"/>
						<path id="Fill-108_14_" class="st14" d="M1265,685c-0.6,0-1.1,0.4-1.3,0.9l-0.8,2.4l-2.3,0.8c-0.5,0.2-0.9,0.7-0.9,1.3
							s0.4,1.1,0.9,1.3l2.3,0.8l0.8,2.4c0.2,0.6,0.7,0.9,1.3,0.9s1.1-0.4,1.3-0.9l0.8-2.4l2.3-0.8c0.5-0.2,0.9-0.7,0.9-1.3
							s-0.4-1.1-0.9-1.3l-2.3-0.8l-0.8-2.4C1266.1,685.3,1265.6,685,1265,685 M1264.9,690.5L1264.9,690.5h0.2H1264.9
							C1265,690.5,1265,690.5,1264.9,690.5 M1264.3,690.8L1264.3,690.8l-0.2,0.7l-1.3,0.4l1.3-0.4L1264.3,690.8"/>
						<path id="Fill-120_16_" class="st14" d="M1401.5,611.1c-0.6,0-1.1,0.4-1.3,1l-1.2,3.7l-3.6,1.2c-0.6,0.2-1,0.8-1,1.4
							s0.4,1.2,1,1.4l3.6,1.2l1.2,3.7c0.2,0.6,0.7,1,1.3,1c0.6,0,1.1-0.4,1.3-1l1.2-3.7l3.6-1.2c0.6-0.2,1-0.8,1-1.4s-0.4-1.2-1-1.4
							l-3.6-1.2l-1.2-3.7C1402.6,611.5,1402.1,611.1,1401.5,611.1 M1401.4,617.5l0.1-0.2l0.1,0.2c0.1,0.4,0.5,0.8,0.9,0.9l0.2,0.1
							l-0.2,0.1c-0.4,0.1-0.8,0.5-0.9,0.9l-0.1,0.2l-0.1-0.2c-0.1-0.4-0.5-0.8-0.9-0.9l-0.2-0.1l0.2-0.1
							C1400.9,618.2,1401.3,617.9,1401.4,617.5"/>
						
							<g id="Group_31_" transform="translate(1087.006925, 790.292737) scale(-1, -1) rotate(-31.000000) translate(-1087.006925, -790.292737) translate(920.006925, 690.792737)" class="st16">
							<path id="Fill-98_15_" class="st14" d="M246.8,79.7c-1.3,0-2.4,1.1-2.4,2.5c0,1.4,1.1,2.5,2.4,2.5c1.3,0,2.4-1.1,2.4-2.5
								C249.2,80.8,248.1,79.7,246.8,79.7"/>
							<path id="Fill-102_14_" class="st14" d="M4.2,122.2c-1.3,0-2.4,1.1-2.4,2.5s1.1,2.5,2.4,2.5s2.4-1.1,2.4-2.5
								C6.6,123.3,5.5,122.2,4.2,122.2"/>
							<path id="Fill-104_14_" class="st14" d="M125.9,93c-1.3,0-2.4,1.1-2.4,2.5s1.1,2.5,2.4,2.5c1.3,0,2.4-1.1,2.4-2.5
								C128.3,94.2,127.2,93,125.9,93"/>
							<path id="Fill-108_15_" class="st14" d="M234,20.5c-0.5,0-1,0.3-1.1,0.9l-0.7,2.2l-2.1,0.7c-0.5,0.2-0.8,0.6-0.8,1.2
								c0,0.6,0.3,1,0.8,1.2l2.1,0.7l0.7,2.2c0.2,0.5,0.6,0.9,1.1,0.9s1-0.3,1.1-0.9l0.7-2.2l2.1-0.7c0.5-0.2,0.8-0.6,0.8-1.2
								s-0.3-1-0.8-1.2l-2.1-0.7l-0.7-2.2C235,20.9,234.5,20.5,234,20.5 M233.9,25.5l0.1-0.1l0.1,0.1l-0.1,0.1
								C234,25.6,233.9,25.6,233.9,25.5 M233.3,25.8L233.3,25.8l-0.2,0.6l-1.1,0.4l1.1-0.4L233.3,25.8"/>
							<path id="Fill-112_17_" class="st14" d="M155.5,160.6c-0.5,0-1,0.3-1.1,0.9l-0.7,2.2l-2.1,0.7c-0.5,0.2-0.8,0.6-0.8,1.2
								s0.3,1,0.8,1.2l2.1,0.7l0.7,2.2c0.2,0.5,0.6,0.9,1.1,0.9s1-0.3,1.1-0.9l0.7-2.2l2.1-0.7c0.5-0.2,0.8-0.6,0.8-1.2
								s-0.3-1-0.8-1.2l-2.1-0.7l-0.7-2.2C156.5,160.9,156,160.6,155.5,160.6 M155.4,165.6l0.1-0.1l0.1,0.1l-0.1,0.1
								C155.5,165.6,155.5,165.6,155.4,165.6 M154.8,165.9L154.8,165.9l-0.2,0.6l-1.1,0.4l1.1-0.4L154.8,165.9"/>
							<path id="Fill-116_13_" class="st14" d="M74.7,2.2c-0.6,0-1,0.4-1.2,0.9l-1.1,3.4l-3.2,1.1c-0.5,0.2-0.9,0.7-0.9,1.3
								s0.3,1.1,0.9,1.3l3.2,1.1l1.1,3.4c0.2,0.5,0.7,0.9,1.2,0.9c0.6,0,1-0.4,1.2-0.9l1.1-3.4l3.2-1.1c0.5-0.2,0.9-0.7,0.9-1.3
								c0-0.6-0.4-1.1-0.9-1.3L77,6.5l-1.1-3.4C75.7,2.5,75.2,2.2,74.7,2.2 M75.9,7.5L75.9,7.5l1.2-0.4L75.9,7.5l-0.4,1.3l0.2,0.1
								L75.5,9c-0.4,0.1-0.7,0.4-0.8,0.8V10l-0.1-0.2c-0.1-0.4-0.4-0.7-0.8-0.8l-0.2-0.1l0.2-0.1c0.4-0.1,0.7-0.4,0.8-0.8l0.1-0.2
								L74.8,8c0.1,0.4,0.4,0.7,0.8,0.8L75.9,7.5"/>
							<path id="Fill-120_17_" class="st14" d="M328.5,127.2c-0.6,0-1,0.4-1.2,0.9l-1.1,3.4l-3.2,1.1c-0.5,0.2-0.9,0.7-0.9,1.3
								s0.4,1.1,0.9,1.3l3.2,1.1l1.1,3.4c0.2,0.5,0.7,0.9,1.2,0.9c0.6,0,1-0.4,1.2-0.9l1.1-3.4l3.2-1.1c0.5-0.2,0.9-0.7,0.9-1.3
								s-0.4-1.1-0.9-1.3l-3.2-1.1l-1.1-3.4C329.5,127.6,329,127.2,328.5,127.2 M328.4,133l0.1-0.2l0.1,0.2c0.1,0.4,0.4,0.7,0.8,0.8
								l0.2,0.1l-0.2,0.1c-0.4,0.1-0.7,0.4-0.8,0.8l-0.1,0.2l-0.1-0.2c-0.1-0.4-0.4-0.7-0.8-0.8l-0.2-0.1l0.2-0.1
								C328,133.7,328.3,133.4,328.4,133"/>
						</g>
						
							<g id="Group_32_" transform="translate(1016.458872, 668.918929) scale(1, -1) rotate(-95.000000) translate(-1016.458872, -668.918929) translate(833.958872, 560.418929)" class="st16">
							<path id="Fill-98_16_" class="st14" d="M267.3,81.8c-1.4,0-2.6,1.2-2.6,2.7s1.2,2.7,2.6,2.7s2.6-1.2,2.6-2.7
								S268.7,81.8,267.3,81.8"/>
							<path id="Fill-100_16_" class="st14" d="M285.7,208.2c-1.4,0-2.6,1.2-2.6,2.7s1.2,2.7,2.6,2.7s2.6-1.2,2.6-2.7
								C288.3,209.4,287.1,208.2,285.7,208.2"/>
							<path id="Fill-120_18_" class="st14" d="M356.6,133.6c-0.6,0-1.1,0.4-1.3,1l-1.2,3.7l-3.5,1.2c-0.6,0.2-1,0.8-1,1.4
								s0.4,1.2,1,1.4l3.5,1.2l1.2,3.7c0.2,0.6,0.7,1,1.3,1s1.1-0.4,1.3-1l1.2-3.7l3.5-1.2c0.6-0.2,1-0.8,1-1.4s-0.4-1.2-1-1.4
								l-3.5-1.2l-1.2-3.7C357.8,134,357.2,133.6,356.6,133.6 M356.5,139.9l0.1-0.2l0.1,0.2c0.1,0.4,0.5,0.8,0.9,0.9l0.2,0.1
								l-0.2,0.1c-0.4,0.1-0.7,0.5-0.9,0.9l-0.1,0.2l-0.1-0.2c-0.1-0.4-0.5-0.8-0.9-0.9l-0.2-0.1l0.2-0.1
								C356.1,140.7,356.4,140.3,356.5,139.9"/>
						</g>
						
							<g id="Group_33_" transform="translate(957.634972, 722.229401) scale(-1, -1) rotate(-258.000000) translate(-957.634972, -722.229401) translate(761.134972, 605.229401)" class="st18">
							<path id="Fill-102_15_" class="st14" d="M3.2,138.4c-1.6,0-2.8,1.3-2.8,2.9c0,1.6,1.3,2.9,2.8,2.9S6,143,6,141.4
								C6,139.8,4.7,138.4,3.2,138.4"/>
							<path id="Fill-104_15_" class="st14" d="M146.5,104.1c-1.6,0-2.8,1.3-2.8,2.9s1.3,2.9,2.8,2.9c1.6,0,2.8-1.3,2.8-2.9
								C149.4,105.4,148.1,104.1,146.5,104.1"/>
							<path id="Fill-112_18_" class="st14" d="M181.4,183.6c-0.6,0-1.1,0.4-1.3,1l-0.8,2.6l-2.5,0.9c-0.6,0.2-1,0.8-1,1.4
								s0.4,1.2,1,1.4l2.5,0.9l0.8,2.6c0.2,0.6,0.7,1,1.3,1s1.1-0.4,1.3-1l0.8-2.6l2.5-0.9c0.6-0.2,1-0.8,1-1.4s-0.4-1.2-1-1.4
								l-2.5-0.9l-0.8-2.6C182.6,184,182,183.6,181.4,183.6 M181.3,189.5l0.1-0.1l0.1,0.1l-0.1,0.1
								C181.4,189.5,181.3,189.5,181.3,189.5 M180.6,189.8L180.6,189.8l-0.2,0.7L179,191l1.3-0.5L180.6,189.8"/>
						</g>
						
							<g id="Group_34_" transform="translate(933.926630, 647.516983) scale(1, -1) rotate(-177.000000) translate(-933.926630, -647.516983) translate(744.426630, 535.016983)" class="st16">
						</g>
					</g>
				</g>
			</g>
		</g>
	</g>
</g>
<g id="Bg-Copy_2_">
	
		<linearGradient id="on_18_" gradientUnits="userSpaceOnUse" x1="1571.2581" y1="-1169.1134" x2="1571.114" y2="-1168.1427" gradientTransform="matrix(1610.7083 -523.3508 310.7718 956.4573 -2167010.25 1940295.25)">
		<stop  offset="0" style="stop-color:#0D81FE"/>
		<stop  offset="1" style="stop-color:#61CEFF"/>
	</linearGradient>
	<path id="on_6_" class="st29" d="M315.1-44.8l153.8-142.3l600.5-11c33.2-0.6,64.5,15.3,83.6,42.4l133.5,189.8
		c18.6,26.4,23.3,60.3,12.5,90.8c-46,130.6-89.9,244.5-131.8,341.7c-52.5,122.1-77.7,187.2-251.2,257.2
		c-59.1,23.9-138.6,38.6-235.9,75.8c-125.6,48-190.3,29.3-331,73.1s-242.5,39.4-292.2,69.6c-49.8,30.2-151.5,59.3-192.4,48.3l0,0
		l0,0c-42.1-11.3-70.1-50.9-66.8-94.3l47.6-625.4L-9,174.7V63.5c-31.5,0.2-37.2-1.4-17.2-4.9C3.9,53.3,49.6,28.6,59,19
		c9.3-9.7,94.7-17.7,106.7-21.9c11.9-4.2,36-23,48.8-23s38.7-8.4,51.6-17.7c12.8-9.3,8.2-3.2,11.2-22.2
		C279.2-78.4,291.8-71.4,315.1-44.8z"/>
	<g id="Headerr" transform="translate(210.000000, 739.000000)">
		<path id="dark-support" class="st30" d="M3.6-898C252-967.1,530-979.7,837.8-935.8l0,0c30.2,4.3,56.8,22.2,72.2,48.5l73.9,126.2
			c18.9,32.3,18.2,72.4-1.8,104L660.9-149.7c-12.9,20.4-32.7,35.4-55.8,42.3l-980,293.8c-52.9,15.9-108.6-14.2-124.5-67.1
			c-5.1-16.9-5.6-34.8-1.5-51.9c82.4-345.6,139.3-564.9,170.7-657.8C-275.9-751.3,282.6-725.1,3.6-898z"/>
		
			<linearGradient id="Fond_5_" gradientUnits="userSpaceOnUse" x1="1151.5535" y1="-1169.8572" x2="1150.9008" y2="-1169.322" gradientTransform="matrix(1608.2432 -522.5499 266.9187 821.4912 -1538818.375 1561950.5)">
			<stop  offset="0" style="stop-color:#0D81FE"/>
			<stop  offset="1" style="stop-color:#61CEFF"/>
		</linearGradient>
		<path id="Fond_2_" class="st31" d="M596.1-924.3l250.5-4.8c26.4-0.5,52,9.5,71.1,27.8c71,68,114.5,110.8,130.6,128.3
			c19.9,19.8,37.6,39.4,44.5,46.5l0,0l0,0c41.2,26.9,52.9,82.1,26,123.3c-0.6,0.9-1.2,1.7-1.8,2.6c-11.1,15.8-17.4,24.8-18.9,26.9
			c-20.8,30.5-36.3,56.2-53.9,83.7c-38.7,60.5-70.3,113.1-93.1,158.9c-37.8,75.8-84.1,150.8-139,225.2l0,0
			c-14,19-34.3,32.4-57.2,37.9c-29.1,7-47.9,11.7-56.3,14.2c-91.7,27.5-179.3,58.6-271,86.1C363.1,51.7,330.7,45,237.8,79.8
			c-19.1,7.2-86.4,28-178.7,54.9c-45.3,13.2-102.2,23.1-159.2,40.7c-24.5,7.6-73.4,24.4-146.9,50.5l0,0
			c-52,18.5-109.2-8.7-127.7-60.7c-4.7-13.2-6.5-27.2-5.5-41.1l39.2-514.6L596.1-924.3z"/>
		
			<linearGradient id="on-dark-copy_1_" gradientUnits="userSpaceOnUse" x1="1151.2593" y1="-1169.0022" x2="1151.1152" y2="-1168.0315" gradientTransform="matrix(1621.799 -526.9544 316.5132 974.1274 -1496791.75 1744386)">
			<stop  offset="0" style="stop-color:#0D81FE"/>
			<stop  offset="1" style="stop-color:#61CEFF"/>
		</linearGradient>
		<path id="on-dark-copy" class="st32" d="M3.6-898c252.8-70.3,536.3-82.1,850.6-35.5l0,0c20.4,3,39.4,12.3,54.4,26.6L1102.3-722
			c34.5,32.9,40.9,85.6,15.5,125.8L807.9-106.6c-12.9,20.4-32.7,35.4-55.8,42.3L-262.8,240c-52.9,15.9-108.6-14.2-124.5-67.1
			c-3-10-4.4-20.4-4.2-30.8c8.3-391.9,28.7-636.1,61.3-732.5C-275.9-751.3,282.6-725.1,3.6-898z"/>
		
			<linearGradient id="on-dark-copy-2_1_" gradientUnits="userSpaceOnUse" x1="1151.2593" y1="-1169.0022" x2="1151.1152" y2="-1168.0315" gradientTransform="matrix(1621.799 -526.9544 316.5132 974.1274 -1496791.75 1744386)">
			<stop  offset="0" style="stop-color:#0D81FE"/>
			<stop  offset="1" style="stop-color:#61CEFF"/>
		</linearGradient>
		<path id="on-dark-copy-2" class="st33" d="M3.6-898c252.8-70.3,536.3-82.1,850.6-35.5l0,0c20.4,3,39.4,12.3,54.4,26.6L1102.3-722
			c34.5,32.9,40.9,85.6,15.5,125.8L807.9-106.6c-12.9,20.4-32.7,35.4-55.8,42.3L-262.8,240c-52.9,15.9-108.6-14.2-124.5-67.1
			c-3-10-4.4-20.4-4.2-30.8c8.3-391.9,28.7-636.1,61.3-732.5C-275.9-751.3,282.6-725.1,3.6-898z"/>
		<g id="on-dark_5_" transform="translate(1055.417491, 750.570039) rotate(-18.000000) translate(-1055.417491, -750.570039) ">
			<path id="path-16_1_" class="st34" d="M403.2-1082.2c252.8-70.3,536.3-82.1,850.6-35.5l0,0c20.4,3,39.4,12.3,54.4,26.6
				l193.7,184.9c34.5,32.9,40.9,85.6,15.5,125.8l-309.9,489.6c-12.9,20.4-32.7,35.4-55.8,42.3L136.8,55.8
				C83.9,71.7,28.2,41.6,12.3-11.3c-3-10-4.4-20.4-4.2-30.8C16.4-434,36.8-678.2,69.4-774.6C123.7-935.5,682.2-909.3,403.2-1082.2z"
				/>
		</g>
	</g>
	<g id="IMG-txtr">
	</g>
</g>
<text transform="matrix(1 0 0 1 157 3123.3274)" class="st35 st36">A blockchain for everyone, for everything </text>
<text transform="matrix(1 0 0 1 157 3183.3274)" class="st35 st36">or anything, become the master of your money</text>
<text transform="matrix(1 0 0 1 911 3910)" class="st37 st35 st36">-Istrium team</text>
<line class="st21" x1="795" y1="1955.8" x2="865.2" y2="1956.7"/>
<line class="st21" x1="631" y1="2657.8" x2="701.2" y2="2658.7"/>
<line class="st21" x1="868.8" y1="1955.8" x2="795" y2="1955.8"/>
<rect x="527.6" y="2137.1" class="st38" width="78.6" height="1.7"/>
<g id="Bloc_de_texte_xA0_1_1_">
	<path class="st22" d="M525,2469.2c3.3,0,6,3.8,6,8.5s-2.6,8.6-5.9,8.6c-3.3,0-6-3.8-6.1-8.5C519,2473.1,521.7,2469.3,525,2469.2z"
		/>
	<path class="st22" d="M524.8,2406.8l1,142c0.1,13.7-7.6,24.9-17.2,25l-204.6,1.4c-9.6,0.1-17.5-11-17.6-24.7l-1-142
		c-0.1-13.7,7.6-24.9,17.2-25l204.6-1.4C516.8,2382,524.7,2393.1,524.8,2406.8z M288,2550.4c0.1,12.5,7.3,22.5,16,22.5l204.6-1.4
		c8.7-0.1,15.8-10.2,15.7-22.7l-1-142c-0.1-12.5-7.3-22.5-16-22.5l-204.6,1.4c-8.7,0.1-15.8,10.2-15.7,22.7L288,2550.4z"/>
</g>
<rect x="529.2" y="2476.9" class="st38" width="78.6" height="1.7"/>
<g id="Bloc_de_texte_xA0_1_2_">
	<path class="st22" d="M866.5,2316c-3.3,0-6-3.8-6-8.5s2.6-8.6,5.9-8.6c3.3,0,6,3.8,6.1,8.5C872.5,2312.1,869.8,2315.9,866.5,2316z"
		/>
	<path class="st22" d="M866.7,2378.4l-1-142c-0.1-13.7,7.6-24.9,17.2-25l204.6-1.4c9.6-0.1,17.5,11,17.6,24.7l1,142
		c0.1,13.7-7.6,24.9-17.2,25l-204.6,1.4C874.7,2403.2,866.8,2392.1,866.7,2378.4z M1103.5,2234.8c-0.1-12.5-7.3-22.5-16-22.5
		l-204.6,1.4c-8.7,0.1-15.8,10.2-15.7,22.7l1,142c0.1,12.5,7.3,22.5,16,22.5l204.6-1.4c8.7-0.1,15.8-10.2,15.7-22.7L1103.5,2234.8z"
		/>
</g>
<rect x="783.8" y="2306.6" class="st38" width="78.6" height="1.7"/>
<g id="Bloc_de_texte_xA0_1_3_">
	<path class="st22" d="M866.5,1967.5c-3.3,0-6-3.8-6-8.5s2.6-8.6,5.9-8.6c3.3,0,6,3.8,6.1,8.5
		C872.5,1963.5,869.8,1967.3,866.5,1967.5z"/>
	<path class="st22" d="M866.7,2029.8l-1-142c-0.1-13.7,7.6-24.9,17.2-25l204.6-1.4c9.6-0.1,17.5,11,17.6,24.7l1,142
		c0.1,13.7-7.6,24.9-17.2,25l-204.6,1.4C874.7,2054.6,866.8,2043.5,866.7,2029.8z M1103.5,1886.2c-0.1-12.5-7.3-22.5-16-22.5
		l-204.6,1.4c-8.7,0.1-15.8,10.2-15.7,22.7l1,142c0.1,12.5,7.3,22.5,16,22.5l204.6-1.4c8.7-0.1,15.8-10.2,15.7-22.7L1103.5,1886.2z"
		/>
</g>
<rect x="783.8" y="1958" class="st38" width="78.6" height="1.7"/>
<g id="Bloc_de_texte_xA0_1_4_">
	<path class="st22" d="M866.5,2682.3c-3.3,0-6-3.8-6-8.5s2.6-8.6,5.9-8.6c3.3,0,6,3.8,6.1,8.5
		C872.5,2678.4,869.8,2682.2,866.5,2682.3z"/>
	<path class="st22" d="M866.7,2744.7l-1-142c-0.1-13.7,7.6-24.9,17.2-25l204.6-1.4c9.6-0.1,17.5,11,17.6,24.7l1,142
		c0.1,13.7-7.6,24.9-17.2,25l-204.6,1.4C874.7,2769.5,866.8,2758.4,866.7,2744.7z M1103.5,2601.1c-0.1-12.5-7.3-22.5-16-22.5
		l-204.6,1.4c-8.7,0.1-15.8,10.2-15.7,22.7l1,142c0.1,12.5,7.3,22.5,16,22.5l204.6-1.4c8.7-0.1,15.8-10.2,15.7-22.7L1103.5,2601.1z"
		/>
</g>
<rect x="783.8" y="2672.9" class="st38" width="78.6" height="1.7"/>
</svg>
