<?xml version="1.0" encoding="utf-8"?>
<!-- Generator: Adobe Illustrator 22.1.0, SVG Export Plug-In . SVG Version: 6.00 Build 0)  -->
<svg version="1.1" id="Calque_1" xmlns="http://www.w3.org/2000/svg" xmlns:xlink="http://www.w3.org/1999/xlink" x="0px" y="0px"
	 viewBox="0 0 1440 6906" style="enable-background:new 0 0 1440 6906;" xml:space="preserve">
<style type="text/css">
	.st0{fill:#4FA0C1;}
	.st1{fill:#B3B3B2;}
	.st2{fill:#989898;}
	.st3{fill:#E0F6FF;}
	.st4{fill:url(#path-4_2_);}
	.st5{fill:#4D8FE8;fill-opacity:0.2;}
	.st6{fill:url(#path-8_2_);}
	.st7{fill:url(#on_17_);fill-opacity:0.2;}
	.st8{fill:url(#Fond_4_);}
	.st9{opacity:0.21;}
	.st10{opacity:0.76;}
	.st11{opacity:0.98;}
	.st12{opacity:0.95;}
	.st13{opacity:0.92;}
	.st14{fill:#FFFFFF;}
	.st15{opacity:0.72;}
	.st16{opacity:0.94;}
	.st17{opacity:0.7;}
	.st18{opacity:0.71;}
	.st19{fill:url(#on_18_);fill-opacity:0.2;}
	.st20{opacity:0.84;}
	.st21{fill:none;}
	.st22{fill:#0FB6CF;}
	.st23{fill:#6CC3C6;}
	.st24{fill:url(#on_19_);fill-opacity:0.2;}
	.st25{fill:url(#Rectangle-7_1_);}
	.st26{fill:url(#on_20_);fill-opacity:0.2;}
	.st27{fill:url(#Fond_5_);}
	.st28{fill:url(#on_21_);fill-opacity:0.2;}
	.st29{fill:url(#on_22_);fill-opacity:0.2;}
	.st30{fill:#4D8FE8;fill-opacity:0.7;}
	.st31{fill:url(#Fond_6_);}
	.st32{fill:url(#on-dark-copy_1_);}
	.st33{fill:url(#on-dark-copy-2_1_);}
	.st34{fill:#4D8FE8;fill-opacity:4.000000e-02;}
	.st35{fill:#FFFDFD;}
	.st36{font-family:'ArialMT';}
	.st37{font-size:50px;}
	.st38{fill:#009593;}
	.st39{fill:url(#on_23_);fill-opacity:0.2;}
	.st40{fill:url(#Fond_7_);}
	.st41{fill:url(#on_24_);fill-opacity:0.2;}
</style>
<polygon class="st0" points="598.1,2621.5 695.2,2604.2 795,2621.5 696,2637.2 "/>
<polygon class="st0" points="599.6,2440.7 696.7,2423.5 796.5,2440.7 697.5,2456.5 "/>
<polygon class="st0" points="599.6,2259.2 696.7,2242 796.5,2259.2 697.5,2275 "/>
<polygon class="st0" points="599.6,2092 696.7,2074.7 796.5,2092 697.5,2107.7 "/>
<polygon class="st0" points="598.1,1916.5 695.2,1899.2 795,1916.5 696,1932.2 "/>
<rect x="644.1" y="1880.4" class="st1" width="47.2" height="915.2"/>
<rect x="691.3" y="1880.4" class="st2" width="47.2" height="915.2"/>
<title>Desktop HD Copy 4</title>
<desc>Created with Sketch.</desc>
<g id="_x2D_-Foot" transform="translate(-365.000000, 5571.000000)">
	
		<g id="bg" transform="translate(1073.582235, 1316.935853) rotate(172.274556) translate(-1073.582235, -1316.935853) translate(80.582235, 650.435853)">
		<g id="background" transform="translate(192.274170, 142.076906)">
			<g id="on">
				<path id="path-1_1_" class="st3" d="M62.7,365c12.4,0,53.5-15.8,112.4-8c47.1,6.3,67.1,18.9,144,30.3
					c14.9,2.2,73.3,8.2,94.9,19.5c28.5,4.2,62.3,8.7,94.6,12.1c60.8,6.3,128.1,14.8,200.7,26c108.8,16.8,156,9.6,292.7,31.1
					c58,20.7,103.9,35.8,124.7,39.1c10.9,1.7,30.6,9.5,61.4,14.4c17.3,2.7,71.7,11.4,163.3,25.9l0,0c74.4,11.8,131.1,73,137.2,148.1
					l0,0c0,0.5,22.6-6.6,33.4,54.6c10.8,61.2-3.4,86.7-3.4,120.9c0,9.1,17.1,90.1-16.8,144.4c-6.1,17.8-43.1,109.9-65.3,135.9
					c-16.3,18.1-46.4,31.4-62.9,44.4c-26.6,20.9-47.4,37.7-72.9,47c-52.6,19.1-100,22.4-128,22.4c-17.8,0-144.9,11.2-376.2,11.2
					c-31.3,4.5-76-5.7-106.2-5.7c-48.2,0-80.5,1.2-160,1.2c-55.6,0-164,23.9-280,21.5c-27.9-0.6-69.9-13.7-115.4-17
					c-35-2.5-97.6-6.6-187.6-12.4c0-470.7,0-734,0-789.9c0-29.5,6.3-52.7,18-70.4c12.4-18.8,23.2-32.4,46.5-39.6
					C29,366.5,40.9,365,62.7,365z"/>
			</g>
			<g id="Dark-support">
				
					<linearGradient id="path-4_2_" gradientUnits="userSpaceOnUse" x1="-474.2388" y1="7033.6914" x2="-474.9248" y2="7034.6235" gradientTransform="matrix(1567.774 -1.223081e-03 6.592859e-04 903.3474 743769.5625 -6353378.5)">
					<stop  offset="0" style="stop-color:#0D81FE"/>
					<stop  offset="1" style="stop-color:#61CEFF"/>
				</linearGradient>
				<path id="path-4_1_" class="st4" d="M78,365c49.6,0,472.4,63.1,1268.6,189.4l0,0c97.2,15.4,168.7,99.2,168.7,197.5v65.6
					c0,8.6,0,39.1,0,91.6c0,78.8,0,131.7-93.3,241.3c-96.4,107.1-202.6,118-252.5,118c-33.3,0-440.6,0-1222,0
					c0-468.5,0-730.6,0-786.5C-52.5,398.1-1.5,365,78,365z"/>
			</g>
			<g id="dark">
				<path id="path-6_1_" class="st5" d="M78,365c49.6,0,472.4,63.1,1268.6,189.4l0,0c97.2,15.4,168.7,99.2,168.7,197.5v65.6
					c0,8.6,0,39.1,0,91.6c0,78.8,0,131.7-93.3,241.3c-96.4,107.1-202.6,118-252.5,118c-23.3,0-229.2,0-617.7,0
					c-83.9,0-176.3,0-277.2,0c-67,0-176.1,0-327,0c0-468.5,0-730.6,0-786.5C-52.5,398.1-1.5,365,78,365z"/>
			</g>
			<g id="fon">
				
					<linearGradient id="path-8_2_" gradientUnits="userSpaceOnUse" x1="-474.2385" y1="7033.6909" x2="-474.9244" y2="7034.623" gradientTransform="matrix(1568.9117 -1.223512e-03 6.949060e-04 903.3474 744308 -6353378.5)">
					<stop  offset="0" style="stop-color:#0D81FE"/>
					<stop  offset="1" style="stop-color:#61CEFF"/>
				</linearGradient>
				<path id="path-8_1_" class="st6" d="M78,365c18.1,0,71.3,12.8,189.5,29.7c67.4,9.6,166.1,17.7,266.1,32.8
					c50.1,7.6,94.8,22.3,153.1,31.3c41.2,6.3,93.9,11.1,139.1,18.2c42.8,6.7,111.7,16.3,206.8,31.3c18.3,2.9,0,2.9,90.6,19.4
					c90.6,16.5,78.2,6.3,126.9,13.7c8.3,1.3,40,6,94.8,14.2l0,0c97.9,14.7,170.3,98.8,170.3,197.8v64c-3.8,15.5-5.7,49.5-5.7,102
					c0,53.9-2.6,83.3-32.4,139.4c-13.8,25.9-25.7,56.9-55.2,91.5c-45.9,51-92.4,72.3-135.6,88.9c-47.5,18.3-90.7,29.1-116.9,29.1
					c-4.6,0-16.4,0-35.3,0c-42,0-100-5.4-212.5-5.4c-50.7,0-151.1-7.5-216.1-7.5c-51.5,0-84.1,9.8-144.5,9.8
					c-32.5,0-65.9-2.4-101-2.4c-44.9,0-92.3,5.4-141.4,5.4c-27,0,8.9,0-30.6,0c-30.9,0-21.9-1.7-109.1-8.8c-42.1-2.3-109,0-142.4,0
					c-17,0-47,1.8-90.2,5.4c0.8-466.2,1.1-727.2,1.1-783.1C-52.5,398.1-1.5,365,78,365z"/>
			</g>
		</g>
	</g>
</g>
<g id="_x2D_-FAQ" transform="translate(-1100.000000, 3838.000000)">
	
		<g id="_x3E_formecool" transform="translate(1908.455118, 1925.659579) rotate(133.000000) translate(-1908.455118, -1925.659579) translate(378.455118, 743.659579)">
		<g id="_x3E_illu" transform="translate(0.000000, -0.000000)">
			
				<g id="Bg-Copy" transform="translate(784.292428, 654.747828) rotate(7.000000) translate(-784.292428, -654.747828) translate(64.292428, 83.747828)">
				
					<linearGradient id="on_17_" gradientUnits="userSpaceOnUse" x1="-1613.3929" y1="4430.6641" x2="-1613.537" y2="4431.6348" gradientTransform="matrix(1610.7092 -523.3483 357.0513 1098.8969 1017504.5625 -5713520.5)">
					<stop  offset="0" style="stop-color:#0D81FE"/>
					<stop  offset="1" style="stop-color:#61CEFF"/>
				</linearGradient>
				<path id="on_1_" class="st7" d="M-17.9-133.4l1099.1-20.1c33.2-0.6,64.5,15.3,83.6,42.4l133.5,189.8
					c18.6,26.4,23.3,60.3,12.5,90.8c-46,130.6-89.9,244.5-131.8,341.7c-52.5,122.1-77.7,187.2-251.2,257.2
					c-59.1,23.9-138.6,38.6-235.9,75.8c-125.6,48-190.3,29.3-331,73.1C220.3,961.2,118.5,956.8,68.8,987
					c-49.7,30.2-151.5,59.3-192.4,48.3l0,0l0,0c-42.1-11.3-70.1-50.9-66.8-94.3l74.7-982C-111.8-92.5-69.5-132.5-17.9-133.4z"/>
				<path id="on-dark" class="st5" d="M9.2-124.9l1057.4-19.3c26.3-0.5,51.8,9.5,70.9,27.6l186.7,178.2
					c34.5,32.9,40.9,85.6,15.5,125.8l-310,489.6c-12.9,20.4-32.7,35.4-55.8,42.3L-32.5,1021c-52.9,15.9-108.6-14.2-124.5-67.1
					c-3.5-11.8-4.9-24.1-3.9-36.3l72.3-950.2C-84.8-84-42.4-124,9.2-124.9z"/>
				
					<linearGradient id="Fond_4_" gradientUnits="userSpaceOnUse" x1="-1613.7573" y1="4431.0249" x2="-1614.4099" y2="4431.5605" gradientTransform="matrix(1608.244 -522.5473 340.7745 1048.8016 1085633.875 -5490444.5)">
					<stop  offset="0" style="stop-color:#0D81FE"/>
					<stop  offset="1" style="stop-color:#61CEFF"/>
				</linearGradient>
				<path id="Fond" class="st8" d="M9.1-124l1057.3-20.2c26.4-0.5,52,9.5,71.1,27.8c71,68,114.5,110.8,130.6,128.3
					c19.9,19.8,37.6,39.4,44.5,46.5l0,0l0,0c41.2,26.9,52.9,82.1,26,123.3c-0.6,0.9-1.2,1.7-1.8,2.6c-11.1,15.8-17.4,24.8-18.9,26.9
					c-20.8,30.5-36.3,56.2-53.9,83.7c-38.7,60.5-70.3,113.1-93.1,158.9c-37.8,75.8-84.1,150.8-139,225.2l0,0
					c-14,19-34.3,32.4-57.2,37.9c-29.1,7-47.9,11.7-56.3,14.2c-91.7,27.5-179.3,58.6-271,86.1c-64.5,19.4-96.9,12.7-189.8,47.5
					c-19.1,7.2-86.4,28-178.7,54.9c-45.3,13.2-102.2,23.1-159.2,40.7c-24.5,7.6-73.4,24.4-146.9,50.5l0,0
					c-52,18.5-109.2-8.7-127.7-60.7c-4.7-13.2-6.5-27.2-5.5-41.1l71.6-940.6C-84.8-83-42.4-123,9.1-124z"/>
				
					<g id="etoile-confet_x7B_:linearEase_x3B_0_x2C_0.65_x2C_4.07_x2C_1745_x2C_1171_x2C_360_x2C_0.21_x3B_10_x2C_0.2_x2C_4.99_x2C_1745_x2C_1171_x2C_360_x2C_0.21_x3B_20_x2C_0.76_x2C_3.73_x2C_1745_x2C_1171_x2C_360_x2C_0.21_x3B_30_x2C_0.65_x2C_4.07_x2C_1745_x2C_1171_x2C_360_x2C_0.21_x3B__x7D_" transform="translate(-93.000000, -265.000000)" class="st9">
					
						<g id="Group" transform="translate(1491.591462, 678.874520) scale(1, -1) rotate(-20.000000) translate(-1491.591462, -678.874520) translate(1268.591462, 551.374520)" class="st10">
					</g>
					
						<g id="Group_1_" transform="translate(1533.116191, 467.757501) rotate(-82.000000) translate(-1533.116191, -467.757501) translate(1370.116191, 374.257501)" class="st11">
					</g>
					
						<g id="Group_2_" transform="translate(1177.266533, 529.135227) scale(-1, 1) rotate(-237.000000) translate(-1177.266533, -529.135227) translate(926.266533, 385.635227)" class="st12">
					</g>
					
						<g id="Group_3_" transform="translate(978.221725, 711.130704) scale(-1, -1) rotate(-2.000000) translate(-978.221725, -711.130704) translate(775.721725, 595.130704)" class="st10">
					</g>
					<g id="Group-2">
						
							<g id="Group_4_" transform="translate(1484.555096, 816.991635) rotate(-332.000000) translate(-1484.555096, -816.991635) translate(1321.555096, 723.991635)" class="st13">
							<path id="Fill-98" class="st14" d="M242.2,71.1c-1.3,0-2.4,1.1-2.4,2.3c0,1.3,1.1,2.3,2.4,2.3c1.3,0,2.4-1.1,2.4-2.3
								C244.5,72.2,243.5,71.1,242.2,71.1"/>
							<path id="Fill-100" class="st14" d="M258.6,179.8c-1.3,0-2.4,1.1-2.4,2.3c0,1.3,1.1,2.3,2.4,2.3s2.4-1.1,2.4-2.3
								C261,180.8,259.9,179.8,258.6,179.8"/>
							<path id="Fill-102" class="st14" d="M4.7,111c-1.3,0-2.4,1.1-2.4,2.3c0,1.3,1.1,2.3,2.4,2.3s2.4-1.1,2.4-2.3S6,111,4.7,111"
								/>
							<path id="Fill-104" class="st14" d="M123.8,83.6c-1.3,0-2.4,1.1-2.4,2.3c0,1.3,1.1,2.3,2.4,2.3s2.4-1.1,2.4-2.3
								S125.1,83.6,123.8,83.6"/>
							<path id="Fill-108" class="st14" d="M229.6,15.7c-0.5,0-1,0.3-1.1,0.8l-0.7,2.1l-2.1,0.7c-0.5,0.2-0.8,0.6-0.8,1.1
								s0.3,1,0.8,1.1l2.1,0.7l0.7,2.1c0.2,0.5,0.6,0.8,1.1,0.8s1-0.3,1.1-0.8l0.7-2.1l2.1-0.7c0.5-0.2,0.8-0.6,0.8-1.1
								s-0.3-1-0.8-1.1l-2.1-0.7l-0.7-2.1C230.6,16,230.1,15.7,229.6,15.7 M229.5,20.3l0.1-0.1l0.1,0.1l-0.1,0.1
								C229.6,20.4,229.6,20.4,229.5,20.3 M228.9,20.6L228.9,20.6l-0.2,0.6l-1.1,0.4l1.1-0.4L228.9,20.6"/>
							<path id="Fill-112" class="st14" d="M152.8,146.9c-0.5,0-1,0.3-1.1,0.8l-0.7,2.1l-2.1,0.7c-0.5,0.2-0.8,0.6-0.8,1.1
								s0.3,1,0.8,1.1l2.1,0.7l0.7,2.1c0.2,0.5,0.6,0.8,1.1,0.8s1-0.3,1.1-0.8l0.7-2.1l2.1-0.7c0.5-0.2,0.8-0.6,0.8-1.1
								s-0.3-1-0.8-1.1l-2.1-0.7l-0.7-2.1C153.8,147.3,153.3,146.9,152.8,146.9 M152.7,151.6l0.1-0.1l0.1,0.1l-0.1,0.1
								C152.8,151.7,152.8,151.7,152.7,151.6 M152.1,151.9L152.1,151.9l-0.2,0.6l-1.1,0.4l1.1-0.4L152.1,151.9"/>
							<path id="Fill-116" class="st14" d="M73.7-1.5c-0.5,0-1,0.3-1.2,0.9l-1.1,3.2l-3.2,1.1c-0.5,0.2-0.9,0.6-0.9,1.2
								s0.3,1,0.9,1.2L71.4,7l1.1,3.2c0.2,0.5,0.6,0.9,1.2,0.9c0.5,0,1-0.3,1.2-0.9l1-3.2l3.2-1.1C79.6,5.7,80,5.3,80,4.7
								s-0.3-1-0.9-1.2l-3.2-1.1l-1.1-3.2C74.7-1.2,74.2-1.5,73.7-1.5 M74.9,3.5L74.9,3.5l1.2-0.4L74.9,3.5l-0.4,1.2l0.2,0.1
								l-0.2,0.1c-0.4,0.1-0.7,0.4-0.8,0.8l-0.1,0.2l-0.1-0.2c-0.1-0.4-0.4-0.7-0.8-0.8l-0.2-0.1l0.2-0.1c0.4-0.1,0.7-0.4,0.8-0.8
								l0.1-0.2l0.1,0.2c0.1,0.4,0.4,0.7,0.8,0.8L74.9,3.5"/>
							<path id="Fill-120" class="st14" d="M322.1,115.7c-0.5,0-1,0.3-1.2,0.9l-1.1,3.2l-3.2,1.1c-0.5,0.2-0.9,0.6-0.9,1.2
								c0,0.5,0.3,1,0.9,1.2l3.2,1.1l1.1,3.2c0.2,0.5,0.6,0.9,1.2,0.9s1-0.3,1.2-0.9l1.1-3.2l3.2-1.1c0.5-0.2,0.9-0.6,0.9-1.2
								c0-0.5-0.3-1-0.9-1.2l-3.2-1.1l-1.1-3.2C323.1,116,322.6,115.7,322.1,115.7 M322,121.1l0.1-0.2l0.1,0.2
								c0.1,0.4,0.4,0.7,0.8,0.8l0.2,0.1H323c-0.4,0.1-0.7,0.4-0.8,0.8l-0.1,0.2l-0.1-0.2c-0.1-0.4-0.4-0.7-0.8-0.8l-0.2-0.1
								l0.2-0.1C321.6,121.8,321.9,121.5,322,121.1"/>
						</g>
						<path id="Fill-98_1_" class="st14" d="M1583.8,739.6c-1.8,0-3.2,1.4-3.2,3.2s1.4,3.2,3.2,3.2c1.8,0,3.2-1.4,3.2-3.2
							C1587,741.1,1585.6,739.6,1583.8,739.6"/>
						<path id="Fill-100_1_" class="st14" d="M1655.9,607.4c-1.8,0-3.2,1.4-3.2,3.2s1.4,3.2,3.2,3.2s3.2-1.4,3.2-3.2
							C1659.1,608.8,1657.7,607.4,1655.9,607.4"/>
						<path id="Fill-104_1_" class="st14" d="M1437.5,668.2c-1.8,0-3.2,1.4-3.2,3.2s1.4,3.2,3.2,3.2c1.8,0,3.2-1.4,3.2-3.2
							C1440.8,669.6,1439.3,668.2,1437.5,668.2"/>
						<path id="Fill-108_1_" class="st14" d="M1541.9,804.2c-0.7,0-1.3,0.4-1.5,1.1l-1,2.9l-2.9,1c-0.7,0.2-1.1,0.8-1.1,1.5
							s0.4,1.3,1.1,1.5l2.9,1l1,2.9c0.2,0.7,0.8,1.1,1.5,1.1s1.3-0.4,1.5-1.1l1-2.9l2.9-1c0.7-0.2,1.1-0.8,1.1-1.5s-0.4-1.3-1.1-1.5
							l-2.9-1l-1-2.9C1543.2,804.6,1542.6,804.2,1541.9,804.2 M1541.7,810.6L1541.7,810.6c0.1,0,0.2,0,0.2,0
							C1541.8,810.6,1541.8,810.7,1541.7,810.6C1541.8,810.7,1541.8,810.6,1541.7,810.6 M1540.9,811L1540.9,811l-0.3,0.8l-1.5,0.5
							l1.5-0.5L1540.9,811"/>
						<path id="Fill-112_1_" class="st14" d="M1504.7,599.1c-0.7,0-1.3,0.4-1.5,1.1l-1,2.9l-2.9,1c-0.7,0.2-1.1,0.8-1.1,1.5
							s0.4,1.3,1.1,1.5l2.9,0.9l1,2.9c0.2,0.7,0.8,1.1,1.5,1.1s1.3-0.4,1.5-1.1l1-2.9l2.9-1c0.7-0.2,1.1-0.8,1.1-1.5
							s-0.4-1.3-1.1-1.5l-2.9-1l-1-2.9C1506,599.5,1505.4,599.1,1504.7,599.1 M1504.6,605.5L1504.6,605.5h0.2
							C1504.7,605.5,1504.7,605.6,1504.6,605.5C1504.7,605.6,1504.6,605.6,1504.6,605.5 M1503.8,605.9L1503.8,605.9l-0.3,0.8
							l-1.5,0.5l1.5-0.5L1503.8,605.9"/>
						<path id="Fill-116_1_" class="st14" d="M1333.4,752.6c-0.7,0-1.4,0.5-1.6,1.2l-1.4,4.3l-4.3,1.4c-0.7,0.2-1.2,0.9-1.2,1.6
							c0,0.7,0.5,1.4,1.2,1.6l4.3,1.4l1.4,4.3c0.2,0.7,0.9,1.2,1.6,1.2s1.4-0.5,1.6-1.2l1.4-4.3l4.3-1.4c0.7-0.2,1.2-0.9,1.2-1.6
							c0-0.7-0.5-1.4-1.2-1.6l-4.3-1.4l-1.4-4.3C1334.8,753.1,1334.2,752.6,1333.4,752.6 M1335.2,759.5L1335.2,759.5l1.6-0.5
							L1335.2,759.5l-0.5,1.6l0.3,0.1l-0.3,0.1c-0.5,0.2-0.9,0.6-1.1,1.1l-0.1,0.3l-0.1-0.3c-0.2-0.5-0.6-0.9-1.1-1.1l-0.3-0.1
							l0.3-0.1c0.5-0.2,0.9-0.6,1.1-1.1l0.1-0.3l0.1,0.3c0.2,0.5,0.6,0.9,1.1,1.1L1335.2,759.5"/>
						<path id="Fill-120_1_" class="st14" d="M1707.8,717.8c-0.7,0-1.4,0.5-1.6,1.2l-1.4,4.3l-4.3,1.4c-0.7,0.2-1.2,0.9-1.2,1.6
							c0,0.7,0.5,1.4,1.2,1.6l4.3,1.4l1.4,4.3c0.2,0.7,0.9,1.2,1.6,1.2s1.4-0.5,1.6-1.2l1.4-4.3l4.3-1.4c0.7-0.2,1.2-0.9,1.2-1.6
							c0-0.7-0.5-1.4-1.2-1.6l-4.3-1.4l-1.4-4.3C1709.2,718.3,1708.5,717.8,1707.8,717.8 M1707.7,725.2l0.1-0.3l0.1,0.3
							c0.2,0.5,0.6,0.9,1.1,1.1l0.3,0.1l-0.3,0.1c-0.5,0.2-0.9,0.6-1.1,1.1l-0.1,0.3l-0.1-0.3c-0.2-0.5-0.6-0.9-1.1-1.1l-0.3-0.1
							l0.3-0.1C1707.1,726.1,1707.5,725.7,1707.7,725.2"/>
						<path id="Fill-98_2_" class="st14" d="M1528.4,390.9c-1.3,0-2.4,1.1-2.4,2.4s1.1,2.4,2.4,2.4s2.4-1.1,2.4-2.4
							S1529.7,390.9,1528.4,390.9"/>
						<path id="Fill-100_2_" class="st14" d="M1638.9,389.8c-1.3,0-2.4,1.1-2.4,2.4s1.1,2.4,2.4,2.4c1.3,0,2.4-1.1,2.4-2.4
							C1641.2,390.9,1640.2,389.8,1638.9,389.8"/>
						<path id="Fill-102_1_" class="st14" d="M1535.1,631.7c-1.3,0-2.4,1.1-2.4,2.4c0,1.3,1.1,2.4,2.4,2.4s2.4-1.1,2.4-2.4
							C1537.4,632.7,1536.3,631.7,1535.1,631.7"/>
						<path id="Fill-104_2_" class="st14" d="M1524.4,509.9c-1.3,0-2.4,1.1-2.4,2.4c0,1.3,1.1,2.4,2.4,2.4s2.4-1.1,2.4-2.4
							C1526.7,510.9,1525.7,509.9,1524.4,509.9"/>
						<path id="Fill-112_2_" class="st14" d="M1593.5,492.3c-0.5,0-1,0.3-1.1,0.8l-0.7,2.1l-2.1,0.7c-0.5,0.2-0.8,0.6-0.8,1.1
							s0.3,1,0.8,1.1l2.1,0.7l0.7,2.1c0.2,0.5,0.6,0.8,1.1,0.8s1-0.3,1.1-0.8l0.7-2.1l2.1-0.7c0.5-0.2,0.8-0.6,0.8-1.1
							s-0.3-1-0.8-1.1l-2.1-0.7l-0.7-2.1C1594.4,492.7,1594,492.3,1593.5,492.3 M1593.4,497.1l0.1-0.1l0.1,0.1l-0.1,0.1
							C1593.4,497.1,1593.4,497.1,1593.4,497.1 M1592.8,497.4L1592.8,497.4l-0.2,0.6l-1.1,0.4l1.1-0.4L1592.8,497.4"/>
						<path id="Fill-116_2_" class="st14" d="M1436,551.5c-0.5,0-1,0.3-1.2,0.9l-1.1,3.2l-3.2,1.1c-0.5,0.2-0.9,0.6-0.9,1.2
							s0.3,1,0.9,1.2l3.2,1.1l1.1,3.2c0.2,0.5,0.6,0.9,1.2,0.9c0.5,0,1-0.3,1.2-0.9l1.1-3.2l3.2-1.1c0.5-0.2,0.9-0.6,0.9-1.2
							s-0.3-1-0.9-1.2l-3.2-1.1l-1.1-3.2C1437,551.8,1436.5,551.5,1436,551.5 M1437.2,556.5L1437.2,556.5l1.2-0.4L1437.2,556.5
							l-0.4,1.2l0.2,0.1l-0.2,0.1c-0.4,0.1-0.7,0.4-0.8,0.8l-0.1,0.2l-0.1-0.2c-0.1-0.4-0.4-0.7-0.8-0.8l-0.2-0.1l0.2-0.1
							c0.4-0.1,0.7-0.4,0.8-0.8l0.1-0.2l0.1,0.2c0.1,0.4,0.4,0.7,0.8,0.8L1437.2,556.5"/>
						<path id="Fill-120_2_" class="st14" d="M1587.3,321.9c-0.5,0-1,0.3-1.2,0.9l-1.1,3.2l-3.2,1.1c-0.5,0.2-0.9,0.6-0.9,1.2
							s0.3,1,0.9,1.2l3.2,1.1l1.1,3.2c0.2,0.5,0.6,0.9,1.2,0.9c0.5,0,1-0.3,1.2-0.9l1.1-3.2l3.2-1.1c0.5-0.2,0.9-0.6,0.9-1.2
							s-0.3-1-0.9-1.2l-3.2-1.1l-1.1-3.2C1588.3,322.2,1587.8,321.9,1587.3,321.9 M1587.2,327.3l0.1-0.2l0.1,0.2
							c0.1,0.4,0.4,0.7,0.8,0.8l0.2,0.1l-0.2,0.1c-0.4,0.1-0.7,0.4-0.8,0.8l-0.1,0.2l-0.1-0.2c-0.1-0.4-0.4-0.7-0.8-0.8l-0.2-0.1
							l0.2-0.1C1586.8,328,1587.1,327.7,1587.2,327.3"/>
						
							<g id="Group_5_" transform="translate(1541.329961, 318.679120) scale(-1, 1) rotate(-84.000000) translate(-1541.329961, -318.679120) translate(1361.829961, 216.179120)" class="st15">
							<path id="Fill-102_2_" class="st14" d="M2.5,121.2c-1.4,0-2.6,1.2-2.6,2.6s1.2,2.6,2.6,2.6s2.6-1.2,2.6-2.6
								C5.1,122.4,4,121.2,2.5,121.2"/>
							<path id="Fill-104_3_" class="st14" d="M133.7,91.1c-1.4,0-2.6,1.2-2.6,2.6c0,1.4,1.2,2.6,2.6,2.6c1.4,0,2.6-1.2,2.6-2.6
								S135.1,91.1,133.7,91.1"/>
							<path id="Fill-116_3_" class="st14" d="M78.5-2.8c-0.6,0-1.1,0.4-1.3,0.9L76,1.6l-3.5,1.2c-0.6,0.2-0.9,0.7-0.9,1.3
								c0,0.6,0.4,1.1,0.9,1.3L76,6.5l1.2,3.5c0.2,0.6,0.7,0.9,1.3,0.9c0.6,0,1.1-0.4,1.3-0.9L81,6.5l3.5-1.2
								c0.6-0.2,0.9-0.7,0.9-1.3c0-0.6-0.4-1.1-0.9-1.3L81,1.6l-1.2-3.5C79.6-2.5,79.1-2.8,78.5-2.8 M79.9,2.7L79.9,2.7l1.3-0.4
								L79.9,2.7L79.4,4l0.2,0.1l-0.2,0.1C79,4.3,78.7,4.6,78.6,5l-0.1,0.2L78.4,5c-0.1-0.4-0.5-0.7-0.9-0.9L77.3,4h0.2
								c0.4-0.1,0.7-0.5,0.9-0.9l0.1-0.2l0.1,0.2C78.7,3.5,79,3.9,79.4,4L79.9,2.7"/>
						</g>
						
							<g id="Group_6_" transform="translate(1319.995802, 926.505740) scale(-1, -1) rotate(-31.000000) translate(-1319.995802, -926.505740) translate(1117.495802, 810.505740)" class="st16">
							<path id="Fill-98_3_" class="st14" d="M295.4,89.4c-1.6,0-2.9,1.3-2.9,2.9c0,1.6,1.3,2.9,2.9,2.9s2.9-1.3,2.9-2.9
								C298.3,90.7,297,89.4,295.4,89.4"/>
							<path id="Fill-100_3_" class="st14" d="M315.8,224.9c-1.6,0-2.9,1.3-2.9,2.9c0,1.6,1.3,2.9,2.9,2.9s2.9-1.3,2.9-2.9
								C318.7,226.2,317.4,224.9,315.8,224.9"/>
							<path id="Fill-102_3_" class="st14" d="M0.4,139.1c-1.6,0-2.9,1.3-2.9,2.9c0,1.6,1.3,2.9,2.9,2.9c1.6,0,2.9-1.3,2.9-2.9
								C3.3,140.4,2,139.1,0.4,139.1"/>
							<path id="Fill-104_4_" class="st14" d="M148.4,105c-1.6,0-2.9,1.3-2.9,2.9s1.3,2.9,2.9,2.9c1.6,0,2.9-1.3,2.9-2.9
								C151.3,106.3,150,105,148.4,105"/>
							<path id="Fill-108_2_" class="st14" d="M279.8,20.2c-0.6,0-1.2,0.4-1.4,1l-0.9,2.6l-2.6,0.9c-0.6,0.2-1,0.8-1,1.4
								c0,0.6,0.4,1.2,1,1.4l2.6,0.9l0.9,2.6c0.2,0.6,0.8,1,1.4,1c0.6,0,1.2-0.4,1.4-1l0.9-2.6l2.6-0.9c0.6-0.2,1-0.8,1-1.4
								s-0.4-1.2-1-1.4l-2.6-0.9l-0.9-2.6C281,20.6,280.4,20.2,279.8,20.2 M279.7,26.1l0.1-0.1l0.1,0.1l-0.1,0.1
								C279.7,26.1,279.7,26.1,279.7,26.1 M278.9,26.4L278.9,26.4l-0.2,0.7l-1.4,0.5l1.4-0.5L278.9,26.4"/>
							<path id="Fill-112_3_" class="st14" d="M184.4,184c-0.6,0-1.2,0.4-1.4,1l-0.9,2.6l-2.6,0.9c-0.6,0.2-1,0.8-1,1.4
								s0.4,1.2,1,1.4l2.6,0.9l0.9,2.6c0.2,0.6,0.8,1,1.4,1c0.6,0,1.2-0.4,1.4-1l0.9-2.6l2.6-0.9c0.6-0.2,1-0.8,1-1.4
								s-0.4-1.2-1-1.4l-2.6-0.9l-0.9-2.6C185.6,184.4,185,184,184.4,184 M184.3,189.8l0.1-0.1l0.1,0.1l-0.1,0.1
								C184.3,189.9,184.3,189.9,184.3,189.8 M183.5,190.2L183.5,190.2l-0.2,0.7l-1.4,0.5l1.4-0.5L183.5,190.2"/>
							<path id="Fill-116_4_" class="st14" d="M86.1-1.2c-0.7,0-1.3,0.4-1.5,1.1l-1.3,3.9l-3.9,1.3c-0.6,0.2-1.1,0.8-1.1,1.5
								s0.4,1.3,1.1,1.5l3.9,1.3l1.3,3.9c0.2,0.6,0.8,1.1,1.5,1.1c0.7,0,1.3-0.4,1.5-1.1l1.3-3.9L92.8,8c0.6-0.2,1.1-0.8,1.1-1.5
								S93.5,5.2,92.8,5l-3.9-1.3l-1.3-3.9C87.3-0.8,86.7-1.2,86.1-1.2 M87.6,5L87.6,5l1.5-0.5L87.6,5l-0.5,1.5l0.2,0.1l-0.2,0.1
								c-0.5,0.2-0.8,0.5-1,1L86,7.9V7.6c-0.2-0.5-0.5-0.8-1-1l-0.2-0.1l0.2,0c0.5-0.2,0.8-0.5,1-1l0.1-0.2l0.1,0.2
								c0.2,0.5,0.5,0.8,1,1L87.6,5"/>
							<path id="Fill-120_3_" class="st14" d="M394.7,145c-0.7,0-1.3,0.4-1.5,1.1l-1.3,3.9l-3.9,1.3c-0.6,0.2-1.1,0.8-1.1,1.5
								s0.4,1.3,1.1,1.5l3.9,1.3l1.3,3.9c0.2,0.6,0.8,1.1,1.5,1.1s1.3-0.4,1.5-1.1l1.3-3.9l3.9-1.3c0.6-0.2,1.1-0.8,1.1-1.5
								s-0.4-1.3-1.1-1.5l-3.9-1.3l-1.3-3.9C395.9,145.4,395.3,145,394.7,145 M394.6,151.7l0.1-0.2l0.1,0.2c0.2,0.5,0.5,0.8,1,1
								l0.2,0.1l-0.2,0.1c-0.5,0.2-0.8,0.5-1,1l-0.1,0.2l-0.1-0.2c-0.2-0.5-0.5-0.8-1-1l-0.2-0.1l0.2-0.1
								C394.1,152.5,394.4,152.2,394.6,151.7"/>
						</g>
						
							<g id="Group_7_" transform="translate(1233.185100, 784.124789) scale(1, -1) rotate(-95.000000) translate(-1233.185100, -784.124789) translate(1011.685100, 657.624789)" class="st16">
							<path id="Fill-98_4_" class="st14" d="M325.4,101.6c-1.8,0-3.2,1.4-3.2,3.2s1.4,3.2,3.2,3.2c1.8,0,3.2-1.4,3.2-3.2
								C328.6,103.1,327.1,101.6,325.4,101.6"/>
							<path id="Fill-100_4_" class="st14" d="M347.7,249.4c-1.8,0-3.2,1.4-3.2,3.2s1.4,3.2,3.2,3.2c1.8,0,3.2-1.4,3.2-3.2
								C350.9,250.8,349.5,249.4,347.7,249.4"/>
							<path id="Fill-108_3_" class="st14" d="M308.3,26.2c-0.7,0-1.3,0.4-1.5,1.1l-0.9,2.8L303,31c-0.7,0.2-1.1,0.8-1.1,1.5
								c0,0.7,0.4,1.3,1.1,1.5l2.8,0.9l0.9,2.8c0.2,0.7,0.8,1.1,1.5,1.1s1.3-0.4,1.5-1.1l0.9-2.8l2.8-0.9c0.7-0.2,1.1-0.8,1.1-1.5
								s-0.4-1.3-1.1-1.5l-2.8-0.9l-0.9-2.8C309.6,26.6,309,26.2,308.3,26.2 M308.2,32.6l0.1-0.1c0,0.1,0.1,0.1,0.1,0.1
								c-0.1,0-0.1,0.1-0.1,0.1C308.3,32.6,308.2,32.6,308.2,32.6 M307.4,32.9L307.4,32.9l-0.3,0.8l-1.5,0.5l1.5-0.5L307.4,32.9"/>
							<path id="Fill-112_4_" class="st14" d="M204,204.8c-0.7,0-1.3,0.4-1.5,1.1l-0.9,2.8l-2.8,0.9c-0.7,0.2-1.1,0.8-1.1,1.5
								s0.4,1.3,1.1,1.5l2.8,0.9l0.9,2.8c0.2,0.7,0.8,1.1,1.5,1.1s1.3-0.4,1.5-1.1l0.9-2.8l2.8-0.9c0.7-0.2,1.1-0.8,1.1-1.5
								s-0.4-1.3-1.1-1.5l-2.8-0.9l-0.9-2.8C205.3,205.2,204.7,204.8,204,204.8 M203.8,211.1l0.1-0.1l0.1,0.1
								c-0.1,0-0.1,0.1-0.1,0.1C203.9,211.2,203.9,211.2,203.8,211.1 M203,211.5L203,211.5l-0.3,0.8l-1.5,0.5l1.5-0.5L203,211.5"/>
							<path id="Fill-120_4_" class="st14" d="M434,162.2c-0.7,0-1.4,0.5-1.6,1.2l-1.4,4.3l-4.3,1.4c-0.7,0.2-1.2,0.9-1.2,1.6
								c0,0.7,0.5,1.4,1.2,1.6l4.3,1.4l1.4,4.3c0.2,0.7,0.9,1.2,1.6,1.2s1.4-0.5,1.6-1.2l1.4-4.3l4.3-1.4c0.7-0.2,1.2-0.9,1.2-1.6
								c0-0.7-0.5-1.4-1.2-1.6l-4.3-1.4l-1.4-4.3C435.4,162.7,434.7,162.2,434,162.2 M433.9,169.6l0.1-0.3l0.1,0.3
								c0.2,0.5,0.6,0.9,1.1,1.1l0.3,0.1l-0.3,0.1c-0.5,0.2-0.9,0.6-1.1,1.1l-0.1,0.3l-0.1-0.3c-0.2-0.5-0.6-0.9-1.1-1.1l-0.3-0.1
								l0.3-0.1C433.3,170.5,433.7,170.1,433.9,169.6"/>
						</g>
						
							<g id="Group_8_" transform="translate(1291.697500, 529.464924) rotate(-243.000000) translate(-1291.697500, -529.464924) translate(1058.697500, 396.464924)" class="st17">
							<path id="Fill-108_4_" class="st14" d="M323.4,22.2c-0.7,0-1.4,0.5-1.6,1.1l-1,3l-3,1c-0.7,0.2-1.1,0.9-1.1,1.6
								s0.5,1.4,1.1,1.6l3,1l1,3c0.2,0.7,0.9,1.1,1.6,1.1s1.4-0.5,1.6-1.1l1-3l3-1c0.7-0.2,1.1-0.9,1.1-1.6s-0.5-1.4-1.1-1.6l-3-1
								l-1-3C324.7,22.6,324.1,22.2,323.4,22.2 M323.2,28.9c0.1,0,0.1-0.1,0.1-0.1c0,0.1,0.1,0.1,0.1,0.1c-0.1,0-0.1,0.1-0.1,0.1
								C323.3,29,323.3,28.9,323.2,28.9 M322.4,29.3L322.4,29.3l-0.3,0.8l-1.6,0.5l1.6-0.5L322.4,29.3"/>
							<path id="Fill-116_5_" class="st14" d="M100.4-2.4c-0.8,0-1.5,0.5-1.7,1.2l-1.5,4.5l-4.5,1.5C92,5,91.5,5.7,91.5,6.5
								S92,8,92.7,8.2l4.5,1.5l1.5,4.5c0.2,0.7,0.9,1.2,1.7,1.2c0.8,0,1.5-0.5,1.7-1.2l1.5-4.5l4.5-1.5c0.7-0.2,1.2-0.9,1.2-1.7
								s-0.5-1.5-1.2-1.7l-4.5-1.5l-1.5-4.5C101.9-1.9,101.2-2.4,100.4-2.4 M102.2,4.8L102.2,4.8l1.7-0.6L102.2,4.8l-0.6,1.7
								l0.3,0.1l-0.3,0.1c-0.5,0.2-1,0.6-1.1,1.1L100.4,8l-0.1-0.3c-0.2-0.5-0.6-1-1.1-1.1l-0.3-0.1l0.3-0.1c0.5-0.2,1-0.6,1.1-1.1
								l0.1-0.3l0.1,0.3c0.2,0.5,0.6,1,1.1,1.1L102.2,4.8"/>
						</g>
						
							<g id="Group_9_" transform="translate(1161.599632, 847.236445) scale(-1, -1) rotate(-258.000000) translate(-1161.599632, -847.236445) translate(923.099632, 710.736445)" class="st18">
							<path id="Fill-100_5_" class="st14" d="M375.8,268.8c-1.9,0-3.4,1.5-3.4,3.4s1.5,3.4,3.4,3.4s3.4-1.5,3.4-3.4
								C379.2,270.4,377.7,268.8,375.8,268.8"/>
							<path id="Fill-102_4_" class="st14" d="M4.3,167.9c-1.9,0-3.4,1.5-3.4,3.4s1.5,3.4,3.4,3.4s3.4-1.5,3.4-3.4
								C7.7,169.4,6.2,167.9,4.3,167.9"/>
							<path id="Fill-104_5_" class="st14" d="M178.6,127.7c-1.9,0-3.4,1.5-3.4,3.4c0,1.9,1.5,3.4,3.4,3.4c1.9,0,3.4-1.5,3.4-3.4
								C182,129.3,180.4,127.7,178.6,127.7"/>
							<path id="Fill-112_5_" class="st14" d="M221,220.6c-0.7,0-1.4,0.5-1.6,1.2l-1,3.1l-3.1,1c-0.7,0.2-1.2,0.9-1.2,1.6
								c0,0.7,0.5,1.4,1.2,1.6l3.1,1l1,3.1c0.2,0.7,0.9,1.2,1.6,1.2c0.7,0,1.4-0.5,1.6-1.2l1-3.1l3.1-1c0.7-0.2,1.2-0.9,1.2-1.6
								c0-0.7-0.5-1.4-1.2-1.6l-3.1-1l-1-3.1C222.4,221.1,221.7,220.6,221,220.6 M220.8,227.5c0.1,0,0.1-0.1,0.2-0.2
								c0,0.1,0.1,0.1,0.2,0.2c-0.1,0-0.1,0.1-0.2,0.2C220.9,227.6,220.9,227.6,220.8,227.5 M220,228L220,228l-0.3,0.9l-1.6,0.5
								l1.6-0.5L220,228"/>
						</g>
						
							<g id="Group_10_" transform="translate(1133.604122, 759.450421) scale(1, -1) rotate(-177.000000) translate(-1133.604122, -759.450421) translate(903.604122, 627.950421)" class="st16">
							<path id="Fill-102_5_" class="st14" d="M0.5,159c-1.8,0-3.3,1.5-3.3,3.3s1.5,3.3,3.3,3.3s3.3-1.5,3.3-3.3
								C3.8,160.5,2.3,159,0.5,159"/>
							<path id="Fill-112_6_" class="st14" d="M209.5,209.9c-0.7,0-1.3,0.5-1.6,1.1l-1,2.9l-2.9,1c-0.7,0.2-1.1,0.9-1.1,1.6
								c0,0.7,0.5,1.3,1.1,1.6l2.9,1l1,2.9c0.2,0.7,0.9,1.1,1.6,1.1s1.3-0.5,1.6-1.1l1-2.9l2.9-1c0.7-0.2,1.1-0.9,1.1-1.6
								c0-0.7-0.5-1.3-1.1-1.6l-2.9-1l-1-2.9C210.8,210.3,210.2,209.9,209.5,209.9 M209.3,216.5c0.1,0,0.1-0.1,0.1-0.1
								c0,0.1,0.1,0.1,0.1,0.1c-0.1,0-0.1,0.1-0.1,0.1C209.4,216.6,209.4,216.5,209.3,216.5 M208.5,216.9L208.5,216.9l-0.3,0.8
								l-1.6,0.5l1.6-0.5L208.5,216.9"/>
						</g>
						<path id="Fill-100_6_" class="st14" d="M1374.2,572.1c-2,0-3.6,1.6-3.6,3.6s1.6,3.6,3.6,3.6s3.6-1.6,3.6-3.6
							S1376.2,572.1,1374.2,572.1"/>
						<path id="Fill-120_5_" class="st14" d="M1347.3,702.8c-0.8,0-1.6,0.5-1.8,1.3l-1.6,4.9l-4.9,1.6c-0.8,0.3-1.3,1-1.3,1.8
							s0.5,1.6,1.3,1.8l4.9,1.6l1.6,4.9c0.3,0.8,1,1.3,1.8,1.3s1.6-0.5,1.8-1.3l1.6-4.9l4.9-1.6c0.8-0.3,1.3-1,1.3-1.8
							s-0.5-1.6-1.3-1.8l-4.9-1.6l-1.6-4.9C1348.8,703.4,1348.1,702.8,1347.3,702.8 M1347.2,711.2l0.1-0.3l0.1,0.3
							c0.2,0.6,0.6,1,1.2,1.2l0.3,0.1l-0.3,0.1c-0.6,0.2-1,0.6-1.2,1.2l-0.1,0.3l-0.1-0.3c-0.2-0.6-0.6-1-1.2-1.2l-0.3-0.1l0.3-0.1
							C1346.5,712.2,1347,711.7,1347.2,711.2"/>
					</g>
				</g>
			</g>
			
				<g id="Bg-Copy-3" transform="translate(2338.430578, 1706.198420) rotate(160.636885) translate(-2338.430578, -1706.198420) translate(1745.930578, 1217.698420)">
				
					<linearGradient id="on_18_" gradientUnits="userSpaceOnUse" x1="4007.6663" y1="2616.3748" x2="4007.5222" y2="2617.3455" gradientTransform="matrix(1323.6804 -430.0876 304.3759 936.7773 -6100554 -727226.75)">
					<stop  offset="0" style="stop-color:#0D81FE"/>
					<stop  offset="1" style="stop-color:#61CEFF"/>
				</linearGradient>
				<path id="on_2_" class="st19" d="M-7.3-118.5l879.7-6.3c33.2-0.2,64.3,16,83.1,43.3l103.9,151.2c17.9,26.1,22.5,59.1,12.2,89.1
					c-39.4,114.9-67,192.8-82.8,233.5c-6.7,17.3-13.4,34-20,50.2c-19.4,47.6-16.1,49.1-80.7,106c-64.6,56.9-73.9,48-150.9,79.3
					c-51.7,21-57,56.1-95.1,73c-18.7,8.3-46,10.6-72.3,20.7c-80,30.7-125.1,9-272.5,59.1C150,830.7,97.6,811.8,56.8,837
					C16,862.2-67.7,886.1-101.5,876.3l0,0l0,0c-35.1-10.1-58.4-43.2-56.2-79.6l51.3-821.5C-103.1-77.2-59.8-118.1-7.3-118.5z"/>
				<path id="on-dark_1_" class="st5" d="M15.2-111.4l847-6.1c26.5-0.2,52,10.2,70.9,28.8L1077.9,54c32.8,32.4,39.3,83,15.6,122.5
					C1030.6,281.8,990,349.4,972,379.3c-11.7,19.4-22.7,30.6-32.3,46.4c-34.8,57.3-51.1,72.9-62.5,106.7
					c-21.4,63.4-124.3,50-171.2,90c-46.9,40.1-70.1,48.5-93.4,60.7c-81.5,42.9-298,62.5-412.3,122.6
					c-52.8,27.8-123.7,51.2-212.7,70.4l0,0c-54,11.6-107.2-22.8-118.8-76.8c-1.9-8.9-2.6-18.1-2-27.2l49.3-789.8
					C-80.6-70.1-37.3-111,15.2-111.4z"/>
				
					<g id="etoile-confet_x7B_:linearEase_x3B_0_x2C_0.65_x2C_4.07_x2C_1745_x2C_1171_x2C_360_x2C_0.21_x3B_10_x2C_0.2_x2C_4.99_x2C_1745_x2C_1171_x2C_360_x2C_0.21_x3B_20_x2C_0.76_x2C_3.73_x2C_1745_x2C_1171_x2C_360_x2C_0.21_x3B_30_x2C_0.65_x2C_4.07_x2C_1745_x2C_1171_x_1_" transform="translate(-78.486569, -224.614127)" class="st9">
					
						<g id="Group_11_" transform="translate(1228.680113, 578.547106) scale(1, -1) rotate(-20.000000) translate(-1228.680113, -578.547106) translate(1045.285617, 469.514061)" class="st10">
					</g>
					
						<g id="Group_12_" transform="translate(715.359208, 728.349274) scale(-1, 1) rotate(-149.000000) translate(-715.359208, -728.349274) translate(579.663729, 647.964127)" class="st20">
					</g>
					<g id="Group-2_1_" transform="translate(-0.000000, 0.000000)">
						
							<g id="Group_13_" transform="translate(1223.069490, 697.285433) rotate(-332.000000) translate(-1223.069490, -697.285433) translate(1088.569490, 617.285433)" class="st13">
							<path id="Fill-98_5_" class="st14" d="M194.4,62.5c-1.1,0-1.9,0.9-1.9,2c0,1.1,0.9,2,1.9,2s1.9-0.9,1.9-2
								C196.3,63.4,195.5,62.5,194.4,62.5"/>
							<path id="Fill-100_7_" class="st14" d="M207.9,155.4c-1.1,0-1.9,0.9-1.9,2s0.9,2,1.9,2c1,0,1.9-0.9,1.9-2
								C209.9,156.3,209,155.4,207.9,155.4"/>
							<path id="Fill-104_6_" class="st14" d="M97.1,73.2c-1.1,0-1.9,0.9-1.9,2s0.9,2,1.9,2s1.9-0.9,1.9-2S98.1,73.2,97.1,73.2"/>
							<path id="Fill-108_5_" class="st14" d="M184.1,15c-0.4,0-0.8,0.3-0.9,0.7l-0.6,1.8l-1.7,0.6c-0.4,0.1-0.7,0.5-0.7,1
								s0.3,0.8,0.7,1l1.7,0.6l0.6,1.8c0.1,0.4,0.5,0.7,0.9,0.7c0.4,0,0.8-0.3,0.9-0.7l0.6-1.8l1.7-0.6c0.4-0.1,0.7-0.5,0.7-1
								c0-0.5-0.3-0.8-0.7-1l-1.7-0.6l-0.6-1.8C184.9,15.3,184.5,15,184.1,15 M184,19C184,19,184.1,19,184,19c0.1-0.1,0.1,0,0.2,0
								C184.1,19.1,184.1,19.1,184,19C184.1,19.1,184,19.1,184,19 M183.5,19.3L183.5,19.3l-0.2,0.5l-0.9,0.3l0.9-0.3L183.5,19.3"/>
							<path id="Fill-112_7_" class="st14" d="M120.9,127.3c-0.4,0-0.8,0.3-0.9,0.7l-0.6,1.8l-1.7,0.6c-0.4,0.1-0.7,0.5-0.7,1
								c0,0.4,0.3,0.8,0.7,1l1.7,0.6l0.6,1.8c0.1,0.4,0.5,0.7,0.9,0.7s0.8-0.3,0.9-0.7l0.6-1.8l1.7-0.6c0.4-0.1,0.7-0.5,0.7-1
								c0-0.4-0.3-0.8-0.7-1l-1.7-0.6l-0.6-1.8C121.7,127.6,121.3,127.3,120.9,127.3 M120.8,131.3
								C120.9,131.3,120.9,131.3,120.8,131.3c0.1-0.1,0.1,0,0.2,0C121,131.3,121,131.4,120.8,131.3
								C120.9,131.4,120.9,131.3,120.8,131.3 M120.4,131.6L120.4,131.6l-0.2,0.5l-0.9,0.3l0.9-0.3L120.4,131.6"/>
							<path id="Fill-120_6_" class="st14" d="M260.1,100.6c-0.4,0-0.8,0.3-1,0.7l-0.9,2.7l-2.6,0.9c-0.4,0.1-0.7,0.6-0.7,1
								c0,0.5,0.3,0.9,0.7,1l2.6,0.9l0.9,2.7c0.1,0.4,0.5,0.7,1,0.7s0.8-0.3,1-0.7l0.9-2.7l2.6-0.9c0.4-0.1,0.7-0.6,0.7-1
								c0-0.5-0.3-0.9-0.7-1L262,104l-0.9-2.7C261,100.9,260.6,100.6,260.1,100.6 M260.1,105.2l0.1-0.2l0.1,0.2
								c0.1,0.3,0.3,0.6,0.7,0.7l0.2,0.1l-0.2,0.1c-0.3,0.1-0.5,0.4-0.7,0.7l-0.1,0.2l-0.1-0.2c-0.1-0.3-0.3-0.6-0.7-0.7l-0.2-0.1
								l0.2-0.1C259.7,105.8,260,105.5,260.1,105.2"/>
						</g>
						<path id="Fill-98_6_" class="st14" d="M1299.6,629.7c-1.5,0-2.6,1.2-2.6,2.7s1.2,2.7,2.6,2.7c1.5,0,2.6-1.2,2.6-2.7
							S1301,629.7,1299.6,629.7"/>
						<path id="Fill-108_6_" class="st14" d="M1265.1,684.9c-0.6,0-1.1,0.4-1.3,0.9l-0.8,2.4l-2.3,0.8c-0.5,0.2-0.9,0.7-0.9,1.3
							s0.4,1.1,0.9,1.3l2.3,0.8l0.8,2.4c0.2,0.6,0.7,0.9,1.3,0.9s1.1-0.4,1.3-0.9l0.8-2.4l2.3-0.8c0.5-0.2,0.9-0.7,0.9-1.3
							s-0.4-1.1-0.9-1.3l-2.3-0.8l-0.8-2.4C1266.1,685.2,1265.6,684.9,1265.1,684.9 M1265,690.4L1265,690.4h0.2H1265
							C1265,690.4,1265,690.4,1265,690.4 M1264.3,690.7L1264.3,690.7l-0.2,0.7l-1.3,0.4l1.3-0.4L1264.3,690.7"/>
						<path id="Fill-120_7_" class="st14" d="M1401.5,611c-0.6,0-1.1,0.4-1.3,1l-1.2,3.7l-3.6,1.2c-0.6,0.2-1,0.8-1,1.4
							s0.4,1.2,1,1.4l3.6,1.2l1.2,3.7c0.2,0.6,0.7,1,1.3,1c0.6,0,1.1-0.4,1.3-1l1.2-3.7l3.6-1.2c0.6-0.2,1-0.8,1-1.4s-0.4-1.2-1-1.4
							l-3.6-1.2l-1.2-3.7C1402.7,611.4,1402.1,611,1401.5,611 M1401.4,617.4l0.1-0.2l0.1,0.2c0.1,0.4,0.5,0.8,0.9,0.9l0.2,0.1
							l-0.2,0.1c-0.4,0.1-0.8,0.5-0.9,0.9l-0.1,0.2l-0.1-0.2c-0.1-0.4-0.5-0.8-0.9-0.9l-0.2-0.1l0.2-0.1
							C1401,618.1,1401.3,617.8,1401.4,617.4"/>
						
							<g id="Group_14_" transform="translate(1087.006925, 790.292737) scale(-1, -1) rotate(-31.000000) translate(-1087.006925, -790.292737) translate(920.006925, 690.792737)" class="st16">
							<path id="Fill-98_7_" class="st14" d="M246.7,79.8c-1.3,0-2.4,1.1-2.4,2.5s1.1,2.5,2.4,2.5c1.3,0,2.4-1.1,2.4-2.5
								C249.1,80.9,248,79.8,246.7,79.8"/>
							<path id="Fill-100_8_" class="st14" d="M263.5,195.6c-1.3,0-2.4,1.1-2.4,2.5s1.1,2.5,2.4,2.5s2.4-1.1,2.4-2.5
								S264.9,195.6,263.5,195.6"/>
							<path id="Fill-102_6_" class="st14" d="M4.1,122.3c-1.3,0-2.4,1.1-2.4,2.5s1.1,2.5,2.4,2.5s2.4-1.1,2.4-2.5
								C6.5,123.4,5.4,122.3,4.1,122.3"/>
							<path id="Fill-104_7_" class="st14" d="M125.8,93.1c-1.3,0-2.4,1.1-2.4,2.5c0,1.4,1.1,2.5,2.4,2.5s2.4-1.1,2.4-2.5
								S127.1,93.1,125.8,93.1"/>
							<path id="Fill-108_7_" class="st14" d="M233.9,20.6c-0.5,0-1,0.3-1.1,0.9l-0.7,2.2l-2.1,0.7c-0.5,0.2-0.8,0.6-0.8,1.2
								c0,0.5,0.3,1,0.8,1.2l2.1,0.7l0.7,2.2c0.2,0.5,0.6,0.9,1.1,0.9c0.5,0,1-0.3,1.1-0.9l0.7-2.2l2.1-0.7c0.5-0.2,0.8-0.6,0.8-1.2
								s-0.3-1-0.8-1.2l-2.1-0.7l-0.7-2.2C234.9,20.9,234.4,20.6,233.9,20.6 M233.8,25.6l0.1-0.1l0.1,0.1l-0.1,0.1
								C233.9,25.7,233.8,25.6,233.8,25.6 M233.2,25.9L233.2,25.9l-0.2,0.6l-1.1,0.4l1.1-0.4L233.2,25.9"/>
							<path id="Fill-112_8_" class="st14" d="M155.5,160.6c-0.5,0-1,0.3-1.1,0.9l-0.7,2.2l-2.1,0.7c-0.5,0.2-0.8,0.6-0.8,1.2
								c0,0.6,0.3,1,0.8,1.2l2.1,0.7l0.7,2.2c0.2,0.5,0.6,0.9,1.1,0.9s1-0.3,1.1-0.9l0.7-2.2l2.1-0.7c0.5-0.2,0.8-0.6,0.8-1.2
								c0-0.5-0.3-1-0.8-1.2l-2.1-0.7l-0.7-2.2C156.4,161,156,160.6,155.5,160.6 M155.3,165.6l0.1-0.1l0.1,0.1l-0.1,0.1
								C155.4,165.7,155.4,165.7,155.3,165.6 M154.8,165.9L154.8,165.9l-0.2,0.6l-1.1,0.4l1.1-0.4L154.8,165.9"/>
							<path id="Fill-116_6_" class="st14" d="M74.6,2.2c-0.6,0-1,0.4-1.2,0.9l-1.1,3.4l-3.2,1.1c-0.5,0.2-0.9,0.7-0.9,1.3
								s0.3,1.1,0.9,1.3l3.2,1.1l1.1,3.4c0.2,0.5,0.7,0.9,1.2,0.9c0.6,0,1-0.4,1.2-0.9l1.1-3.4l3.2-1.1C80.6,10,81,9.5,81,8.9
								s-0.4-1.1-0.9-1.3l-3.2-1.1l-1.1-3.4C75.6,2.6,75.1,2.2,74.6,2.2 M75.9,7.6L75.9,7.6l1.2-0.4L75.9,7.6l-0.4,1.3L75.7,9h-0.2
								c-0.4,0.1-0.7,0.4-0.8,0.8L74.6,10l-0.1-0.2c-0.1-0.4-0.4-0.7-0.8-0.8l-0.2-0.1l0.2-0.1c0.4-0.1,0.7-0.4,0.8-0.8l0.1-0.2
								L74.7,8c0.1,0.4,0.4,0.7,0.8,0.8L75.9,7.6"/>
							<path id="Fill-120_8_" class="st14" d="M328.4,127.3c-0.6,0-1,0.4-1.2,0.9l-1.1,3.4l-3.2,1.1c-0.5,0.2-0.9,0.7-0.9,1.3
								s0.4,1.1,0.9,1.3l3.2,1.1l1.1,3.4c0.2,0.5,0.7,0.9,1.2,0.9c0.6,0,1-0.4,1.2-0.9l1.1-3.4l3.2-1.1c0.5-0.2,0.9-0.7,0.9-1.3
								s-0.4-1.1-0.9-1.3l-3.2-1.1l-1.1-3.4C329.4,127.6,328.9,127.3,328.4,127.3 M328.3,133l0.1-0.2l0.1,0.2
								c0.1,0.4,0.4,0.7,0.8,0.8l0.2,0.1l-0.2,0.1c-0.4,0.1-0.7,0.4-0.8,0.8l-0.1,0.2l-0.1-0.2c-0.1-0.4-0.4-0.7-0.8-0.8l-0.2-0.1
								l0.2-0.1C327.9,133.7,328.2,133.4,328.3,133"/>
						</g>
						
							<g id="Group_15_" transform="translate(1016.458872, 668.918929) scale(1, -1) rotate(-95.000000) translate(-1016.458872, -668.918929) translate(833.958872, 560.418929)" class="st16">
							<path id="Fill-98_8_" class="st14" d="M267.2,81.8c-1.4,0-2.6,1.2-2.6,2.7s1.2,2.7,2.6,2.7s2.6-1.2,2.6-2.7
								S268.6,81.8,267.2,81.8"/>
							<path id="Fill-100_9_" class="st14" d="M285.6,208.2c-1.4,0-2.6,1.2-2.6,2.7s1.2,2.7,2.6,2.7s2.6-1.2,2.6-2.7
								S287,208.2,285.6,208.2"/>
							<path id="Fill-108_8_" class="st14" d="M253.2,17.3c-0.6,0-1.1,0.4-1.2,0.9l-0.8,2.4l-2.3,0.8c-0.5,0.2-0.9,0.7-0.9,1.3
								s0.4,1.1,0.9,1.3l2.3,0.8l0.8,2.4c0.2,0.6,0.7,0.9,1.2,0.9c0.6,0,1.1-0.4,1.2-0.9l0.8-2.4l2.3-0.8c0.5-0.2,0.9-0.7,0.9-1.3
								s-0.4-1.1-0.9-1.3l-2.3-0.8l-0.8-2.4C254.2,17.7,253.7,17.3,253.2,17.3 M253.1,22.7l0.1-0.1l0.1,0.1l-0.1,0.1
								C253.1,22.8,253.1,22.8,253.1,22.7 M252.4,23.1L252.4,23.1l-0.2,0.7l-1.2,0.4l1.2-0.4L252.4,23.1"/>
							<path id="Fill-120_9_" class="st14" d="M356.5,133.6c-0.6,0-1.1,0.4-1.3,1l-1.2,3.7l-3.5,1.2c-0.6,0.2-1,0.8-1,1.4
								s0.4,1.2,1,1.4l3.5,1.2l1.2,3.7c0.2,0.6,0.7,1,1.3,1s1.1-0.4,1.3-1l1.2-3.7l3.5-1.2c0.6-0.2,1-0.8,1-1.4s-0.4-1.2-1-1.4
								l-3.5-1.2l-1.2-3.7C357.7,134,357.1,133.6,356.5,133.6 M356.4,139.9l0.1-0.2l0.1,0.2c0.1,0.4,0.5,0.8,0.9,0.9l0.2,0.1
								l-0.2,0.1c-0.4,0.1-0.7,0.5-0.9,0.9l-0.1,0.2l-0.1-0.2c-0.1-0.4-0.5-0.8-0.9-0.9l-0.2-0.1l0.2-0.1
								C356,140.7,356.3,140.4,356.4,139.9"/>
						</g>
						
							<g id="Group_16_" transform="translate(1063.879894, 450.998118) rotate(-243.000000) translate(-1063.879894, -450.998118) translate(871.879894, 336.998118)" class="st17">
						</g>
						
							<g id="Group_17_" transform="translate(957.634972, 722.229401) scale(-1, -1) rotate(-258.000000) translate(-957.634972, -722.229401) translate(761.134972, 605.229401)" class="st18">
							<path id="Fill-102_7_" class="st14" d="M3.3,138.5c-1.6,0-2.8,1.3-2.8,2.9c0,1.6,1.3,2.9,2.8,2.9s2.8-1.3,2.8-2.9
								C6.1,139.8,4.8,138.5,3.3,138.5"/>
							<path id="Fill-104_8_" class="st14" d="M146.6,104.1c-1.6,0-2.8,1.3-2.8,2.9s1.3,2.9,2.8,2.9c1.6,0,2.8-1.3,2.8-2.9
								C149.5,105.5,148.2,104.1,146.6,104.1"/>
							<path id="Fill-112_9_" class="st14" d="M181.5,183.6c-0.6,0-1.1,0.4-1.3,1l-0.8,2.6l-2.5,0.9c-0.6,0.2-1,0.8-1,1.4
								s0.4,1.2,1,1.4l2.5,0.9l0.8,2.6c0.2,0.6,0.7,1,1.3,1c0.6,0,1.1-0.4,1.3-1l0.8-2.6l2.5-0.9c0.6-0.2,1-0.8,1-1.4
								s-0.4-1.2-1-1.4l-2.5-0.9l-0.8-2.6C182.7,184,182.1,183.6,181.5,183.6 M181.4,189.5l0.1-0.1l0.1,0.1l-0.1,0.1L181.4,189.5
								 M180.7,189.8L180.7,189.8l-0.2,0.7l-1.3,0.5l1.3-0.5L180.7,189.8"/>
							<path id="Fill-116_7_" class="st14" d="M86.3-2.8c-0.7,0-1.2,0.4-1.4,1.1l-1.3,4l-3.8,1.3c-0.6,0.2-1,0.8-1,1.5
								s0.4,1.3,1,1.5l3.8,1.3l1.3,4c0.2,0.6,0.8,1.1,1.4,1.1c0.6,0,1.2-0.4,1.4-1.1l1.3-4l3.8-1.3c0.6-0.2,1-0.8,1-1.5
								s-0.4-1.3-1-1.5L89,2.2l-1.3-4C87.5-2.4,86.9-2.8,86.3-2.8 M87.8,3.5L87.8,3.5L89.2,3L87.8,3.5L87.3,5l0.2,0.1l-0.2,0.1
								c-0.4,0.2-0.8,0.5-1,1l-0.1,0.2l-0.1-0.2c-0.1-0.5-0.5-0.8-1-1L85,5.1L85.2,5c0.4-0.2,0.8-0.5,1-1l0.1-0.2l0,0.2
								c0.1,0.5,0.5,0.8,1,1L87.8,3.5"/>
						</g>
						
							<g id="Group_18_" transform="translate(933.926630, 647.516983) scale(1, -1) rotate(-177.000000) translate(-933.926630, -647.516983) translate(744.426630, 535.016983)" class="st16">
							<path id="Fill-102_8_" class="st14" d="M5.3,134.9c-1.5,0-2.7,1.3-2.7,2.8c0,1.6,1.2,2.8,2.7,2.8s2.7-1.3,2.7-2.8
								C8,136.2,6.8,134.9,5.3,134.9"/>
						</g>
						<path id="Fill-116_8_" class="st14" d="M687.9,839.9c-0.5,0-0.8,0.3-1,0.7l-0.9,2.7l-2.6,0.9c-0.4,0.1-0.7,0.6-0.7,1
							s0.3,0.9,0.7,1l2.6,0.9l0.9,2.7c0.1,0.4,0.5,0.7,1,0.7s0.8-0.3,1-0.7l0.9-2.7l2.6-0.9c0.4-0.1,0.7-0.6,0.7-1s-0.3-0.9-0.7-1
							l-2.6-0.9l-0.9-2.7C688.7,840.2,688.3,839.9,687.9,839.9 M688.9,844.2L688.9,844.2l1-0.3L688.9,844.2l-0.3,1l0.2,0.1l-0.2,0.1
							c-0.3,0.1-0.6,0.4-0.7,0.7l-0.1,0.2l-0.1-0.2c-0.1-0.3-0.3-0.6-0.7-0.7l-0.2-0.1l0.2-0.1c0.3-0.1,0.6-0.4,0.7-0.7l0.1-0.2
							l0.1,0.2c0.1,0.3,0.3,0.6,0.7,0.7L688.9,844.2"/>
					</g>
				</g>
			</g>
		</g>
	</g>
</g>
<rect x="1043.6" y="6619.3" transform="matrix(-0.1736 0.9848 -0.9848 -0.1736 7751.7935 6740.0454)" class="st21" width="9" height="6"/>
<polyline class="st22" points="599.6,2258.9 697.1,2275.4 697.1,2362.4 599.6,2345.9 "/>
<polyline class="st23" points="796.8,2258.9 697.1,2275.4 697.1,2362.4 796.8,2345.9 "/>
<polyline class="st22" points="598.1,1916.1 695.6,1932.6 695.6,2019.6 598.1,2003.1 "/>
<polyline class="st23" points="795.3,1916.1 695.6,1932.6 695.6,2019.6 795.3,2003.1 "/>
<polyline class="st23" points="599.6,2091.6 697.1,2108.1 697.1,2195.1 599.6,2178.6 "/>
<polyline class="st22" points="796.8,2091.6 697.1,2108.1 697.1,2195.1 796.8,2178.6 "/>
<polyline class="st23" points="599.6,2440.4 697.1,2456.9 697.1,2543.9 599.6,2527.4 "/>
<polyline class="st22" points="796.8,2440.4 697.1,2456.9 697.1,2543.9 796.8,2527.4 "/>
<polyline class="st22" points="598.1,2621.1 695.6,2637.6 695.6,2724.6 598.1,2708.1 "/>
<polyline class="st23" points="795.3,2621.1 695.6,2637.6 695.6,2724.6 795.3,2708.1 "/>
<g id="Bloc_de_texte_xA0_1_6_">
	<path class="st22" d="M523.4,2129.4c3.3,0,6,3.8,6,8.5s-2.6,8.6-5.9,8.6c-3.3,0-6-3.8-6.1-8.5
		C517.4,2133.3,520.1,2129.5,523.4,2129.4z"/>
	<path class="st22" d="M523.2,2067l1,142c0.1,13.7-7.6,24.9-17.2,25l-204.6,1.4c-9.6,0.1-17.5-11-17.6-24.7l-1-142
		c-0.1-13.7,7.6-24.9,17.2-25l204.6-1.4C515.2,2042.2,523.1,2053.3,523.2,2067z M286.4,2210.6c0.1,12.5,7.3,22.5,16,22.5l204.6-1.4
		c8.7-0.1,15.8-10.2,15.7-22.7l-1-142c-0.1-12.5-7.3-22.5-16-22.5l-204.6,1.4c-8.7,0.1-15.8,10.2-15.7,22.7L286.4,2210.6z"/>
</g>
<g id="Roadmapbien" transform="translate(398.000000, 1632.000000)">
	
		<g id="fomre" transform="translate(1192.558126, 763.763622) rotate(123.546581) translate(-1192.558126, -763.763622) translate(600.058126, 275.263622)">
		
			<linearGradient id="on_19_" gradientUnits="userSpaceOnUse" x1="539.7226" y1="-1008.4144" x2="539.5786" y2="-1007.4437" gradientTransform="matrix(1323.6796 -430.0901 304.3776 936.7768 -406450.9375 1176537.25)">
			<stop  offset="0" style="stop-color:#0D81FE"/>
			<stop  offset="1" style="stop-color:#61CEFF"/>
		</linearGradient>
		<path id="on_3_" class="st24" d="M296.3-216.4l879.7-6.3c33.2-0.2,64.3,16,83.1,43.3L1363-28.2c17.9,26.1,22.5,59.1,12.2,89.1
			c-39.4,114.9-67,192.8-82.8,233.5c-6.7,17.3-13.4,34-20,50.2c-19.4,47.6-16.1,49.1-80.7,106s-73.9,48-150.9,79.3
			c-51.7,21-57,56.1-95.1,73c-18.7,8.3-46,10.6-72.3,20.7c-80,30.7-125.1,9-272.5,59.1c-147.4,50.1-199.8,31.3-240.6,56.5
			c-40.8,25.2-124.5,49.1-158.3,39.3l0,0l0,0c-35.1-10.1-58.4-43.2-56.2-79.6l51.4-821.6C200.4-175.1,243.7-216.1,296.3-216.4z"/>
		<path id="on-dark_2_" class="st5" d="M318.8-209.3l847-6.1c26.5-0.2,52,10.2,70.9,28.8l144.7,142.7c32.8,32.4,39.3,83,15.6,122.5
			c-63,105.3-103.5,172.9-121.5,202.8c-11.7,19.4-22.7,30.6-32.3,46.4c-34.8,57.3-51.1,72.9-62.5,106.7
			c-21.4,63.4-124.3,50-171.2,90c-46.9,40.1-70.1,48.5-93.4,60.7c-81.5,42.9-298,62.5-412.3,122.6C451,735.6,380.1,759,291.1,778.2
			l0,0c-54,11.6-107.2-22.8-118.8-76.8c-1.9-8.9-2.6-18.1-2-27.2l49.3-789.8C222.9-168,266.2-208.9,318.8-209.3z"/>
		
			<g id="etoile-confet_x7B_:linearEase_x3B_0_x2C_0.65_x2C_4.07_x2C_1745_x2C_1171_x2C_360_x2C_0.21_x3B_10_x2C_0.2_x2C_4.99_x2C_1745_x2C_1171_x2C_360_x2C_0.21_x3B_20_x2C_0.76_x2C_3.73_x2C_1745_x2C_1171_x2C_360_x2C_0.21_x3B_30_x2C_0.65_x2C_4.07_x2C_1745_x2C_1171_x_2_" transform="translate(-78.486569, -224.614127)" class="st9">
			
				<g id="Group_19_" transform="translate(1228.680113, 578.547106) scale(1, -1) rotate(-20.000000) translate(-1228.680113, -578.547106) translate(1045.285617, 469.514061)" class="st10">
			</g>
			
				<g id="Group_20_" transform="translate(1262.829919, 398.008036) rotate(-82.000000) translate(-1262.829919, -398.008036) translate(1128.779233, 318.050470)" class="st11">
			</g>
			
				<g id="Group_21_" transform="translate(970.180283, 450.495882) scale(-1, 1) rotate(-237.000000) translate(-970.180283, -450.495882) translate(763.758674, 327.780259)" class="st12">
			</g>
			
				<g id="Group_22_" transform="translate(806.486460, 606.131341) scale(-1, -1) rotate(-2.000000) translate(-806.486460, -606.131341) translate(639.951099, 506.932650)" class="st10">
			</g>
			<g id="Group-2_2_" transform="translate(-0.000000, 0.000000)">
				
					<g id="Group_23_" transform="translate(1223.069490, 697.285433) rotate(-332.000000) translate(-1223.069490, -697.285433) translate(1088.569490, 617.285433)" class="st13">
					<path id="Fill-98_9_" class="st14" d="M416.5-166.4c-1.1,0-1.9,0.9-1.9,2c0,1.1,0.9,2,1.9,2c1.1,0,1.9-0.9,1.9-2
						C418.4-165.5,417.5-166.4,416.5-166.4"/>
					<path id="Fill-100_10_" class="st14" d="M430-73.5c-1.1,0-1.9,0.9-1.9,2s0.9,2,1.9,2c1.1,0,1.9-0.9,1.9-2
						C431.9-72.6,431.1-73.5,430-73.5"/>
					<path id="Fill-102_9_" class="st14" d="M221.2-132.3c-1.1,0-1.9,0.9-1.9,2c0,1.1,0.9,2,1.9,2s1.9-0.9,1.9-2
						C223.1-131.4,222.2-132.3,221.2-132.3"/>
					<path id="Fill-104_9_" class="st14" d="M319.1-155.7c-1.1,0-1.9,0.9-1.9,2c0,1.1,0.9,2,1.9,2s1.9-0.9,1.9-2
						C321.1-154.8,320.2-155.7,319.1-155.7"/>
					<path id="Fill-108_9_" class="st14" d="M406.1-213.9c-0.4,0-0.8,0.3-0.9,0.7l-0.6,1.8l-1.7,0.6c-0.4,0.1-0.7,0.5-0.7,1
						s0.3,0.8,0.7,1l1.7,0.6l0.6,1.8c0.1,0.4,0.5,0.7,0.9,0.7s0.8-0.3,0.9-0.7l0.6-1.8l1.7-0.6c0.4-0.1,0.7-0.5,0.7-1
						c0-0.5-0.3-0.8-0.7-1l-1.7-0.6l-0.6-1.8C406.9-213.6,406.6-213.9,406.1-213.9 M406.1-209.8
						C406.1-209.9,406.1-209.9,406.1-209.8c0.1-0.1,0.1,0,0.2,0C406.2-209.8,406.2-209.8,406.1-209.8L406.1-209.8 M405.6-209.6
						L405.6-209.6l-0.2,0.5l-0.9,0.3l0.9-0.3L405.6-209.6"/>
					<path id="Fill-112_10_" class="st14" d="M343-101.6c-0.4,0-0.8,0.3-0.9,0.7l-0.6,1.8l-1.7,0.6c-0.4,0.1-0.7,0.5-0.7,1
						c0,0.4,0.3,0.8,0.7,1l1.7,0.6l0.6,1.8c0.1,0.4,0.5,0.7,0.9,0.7s0.8-0.3,0.9-0.7l0.6-1.8l1.7-0.6c0.4-0.1,0.7-0.5,0.7-1
						c0-0.4-0.3-0.8-0.7-1l-1.7-0.6l-0.6-1.8C343.8-101.3,343.4-101.6,343-101.6 M342.9-97.6C342.9-97.6,343-97.6,342.9-97.6
						c0.1-0.1,0.1,0,0.2,0C343-97.5,343-97.5,342.9-97.6C343-97.5,342.9-97.5,342.9-97.6 M342.4-97.3L342.4-97.3l-0.2,0.5l-0.9,0.3
						l0.9-0.3L342.4-97.3"/>
					<path id="Fill-116_9_" class="st14" d="M277.9-228.6c-0.4,0-0.8,0.3-1,0.7l-0.9,2.7l-2.6,0.9c-0.4,0.1-0.7,0.6-0.7,1
						c0,0.5,0.3,0.9,0.7,1l2.6,0.9l0.9,2.7c0.1,0.4,0.5,0.7,1,0.7c0.5,0,0.8-0.3,1-0.7l0.9-2.7l2.6-0.9c0.4-0.1,0.7-0.6,0.7-1
						s-0.3-0.9-0.7-1l-2.6-0.9l-0.9-2.7C278.7-228.3,278.3-228.6,277.9-228.6 M278.9-224.3L278.9-224.3l1-0.3L278.9-224.3l-0.3,1
						l0.2,0.1l-0.2,0.1c-0.3,0.1-0.5,0.4-0.7,0.7l-0.1,0.2l-0.1-0.2c-0.1-0.3-0.3-0.6-0.7-0.7l-0.2-0.1l0.2-0.1
						c0.3-0.1,0.5-0.4,0.7-0.7l0.1-0.2l0.1,0.2c0.1,0.3,0.3,0.6,0.7,0.7L278.9-224.3"/>
					<path id="Fill-120_10_" class="st14" d="M482.2-128.3c-0.4,0-0.8,0.3-1,0.7l-0.9,2.7l-2.6,0.9c-0.4,0.1-0.7,0.6-0.7,1
						c0,0.5,0.3,0.9,0.7,1l2.6,0.9l0.9,2.7c0.1,0.4,0.5,0.7,1,0.7c0.4,0,0.8-0.3,1-0.7l0.9-2.7l2.6-0.9c0.4-0.1,0.7-0.6,0.7-1
						c0-0.5-0.3-0.9-0.7-1l-2.6-0.9l-0.9-2.7C483-128,482.6-128.3,482.2-128.3 M482.1-123.7l0.1-0.2l0.1,0.2
						c0.1,0.3,0.3,0.6,0.7,0.7l0.2,0.1l-0.2,0.1c-0.3,0.1-0.5,0.4-0.7,0.7l-0.1,0.2l-0.1-0.2c-0.1-0.3-0.3-0.6-0.7-0.7l-0.2-0.1
						l0.2-0.1C481.8-123.1,482-123.4,482.1-123.7"/>
				</g>
				<path id="Fill-98_10_" class="st14" d="M1603.1,531.8c-1.5,0-2.6,1.2-2.6,2.7s1.2,2.7,2.6,2.7c1.5,0,2.6-1.2,2.6-2.7
					S1604.6,531.8,1603.1,531.8"/>
				<path id="Fill-100_11_" class="st14" d="M1662.4,418.7c-1.5,0-2.6,1.2-2.6,2.7s1.2,2.7,2.6,2.7s2.6-1.2,2.6-2.7
					C1665,419.9,1663.8,418.7,1662.4,418.7"/>
				<path id="Fill-104_10_" class="st14" d="M1482.8,470.7c-1.5,0-2.6,1.2-2.6,2.7s1.2,2.7,2.6,2.7s2.6-1.2,2.6-2.7
					S1484.3,470.7,1482.8,470.7"/>
				<path id="Fill-108_10_" class="st14" d="M1568.6,587c-0.6,0-1.1,0.4-1.3,0.9l-0.8,2.4l-2.3,0.8c-0.5,0.2-0.9,0.7-0.9,1.3
					s0.4,1.1,0.9,1.3l2.3,0.8l0.8,2.4c0.2,0.6,0.7,0.9,1.3,0.9s1.1-0.4,1.3-0.9l0.8-2.4l2.3-0.8c0.5-0.2,0.9-0.7,0.9-1.3
					s-0.4-1.1-0.9-1.3l-2.3-0.8l-0.8-2.4C1569.7,587.3,1569.2,587,1568.6,587 M1568.5,592.4L1568.5,592.4h0.2H1568.5
					C1568.6,592.5,1568.5,592.5,1568.5,592.4 M1567.8,592.8L1567.8,592.8l-0.2,0.7l-1.3,0.4l1.3-0.4L1567.8,592.8"/>
				<path id="Fill-112_11_" class="st14" d="M1538,411.6c-0.6,0-1.1,0.4-1.3,0.9l-0.8,2.4l-2.3,0.8c-0.5,0.2-0.9,0.7-0.9,1.3
					s0.4,1.1,0.9,1.3l2.3,0.8l0.8,2.4c0.2,0.6,0.7,0.9,1.3,0.9c0.6,0,1.1-0.4,1.3-0.9l0.8-2.4l2.3-0.8c0.5-0.2,0.9-0.7,0.9-1.3
					s-0.4-1.1-0.9-1.3l-2.3-0.8l-0.8-2.4C1539.1,412,1538.6,411.6,1538,411.6 M1537.9,417.1L1537.9,417.1h0.2H1537.9
					C1538,417.2,1538,417.1,1537.9,417.1 M1537.3,417.4L1537.3,417.4l-0.2,0.7l-1.3,0.4l1.3-0.4L1537.3,417.4"/>
				<path id="Fill-116_10_" class="st14" d="M1397.2,542.9c-0.6,0-1.1,0.4-1.3,1l-1.2,3.7l-3.6,1.2c-0.6,0.2-1,0.8-1,1.4
					s0.4,1.2,1,1.4l3.6,1.2l1.2,3.7c0.2,0.6,0.7,1,1.3,1c0.6,0,1.1-0.4,1.3-1l1.2-3.7l3.6-1.2c0.6-0.2,1-0.8,1-1.4s-0.4-1.2-1-1.4
					l-3.6-1.2l-1.2-3.7C1398.4,543.3,1397.8,542.9,1397.2,542.9 M1398.6,548.7L1398.6,548.7l1.3-0.5L1398.6,548.7l-0.4,1.4l0.2,0.1
					l-0.2,0.1c-0.4,0.1-0.8,0.5-0.9,0.9l-0.1,0.2l-0.1-0.2c-0.1-0.4-0.5-0.8-0.9-0.9l-0.2-0.1l0.2-0.1c0.4-0.1,0.8-0.5,0.9-0.9
					l0.1-0.2l0.1,0.2c0.1,0.4,0.5,0.8,0.9,0.9L1398.6,548.7"/>
				<path id="Fill-120_11_" class="st14" d="M1705.1,513.1c-0.6,0-1.1,0.4-1.3,1l-1.2,3.7l-3.6,1.2c-0.6,0.2-1,0.8-1,1.4
					s0.4,1.2,1,1.4l3.6,1.2l1.2,3.7c0.2,0.6,0.7,1,1.3,1c0.6,0,1.1-0.4,1.3-1l1.2-3.7l3.6-1.2c0.6-0.2,1-0.8,1-1.4s-0.4-1.2-1-1.4
					l-3.6-1.2l-1.2-3.7C1706.2,513.5,1705.7,513.1,1705.1,513.1 M1705,519.4l0.1-0.2l0.1,0.2c0.1,0.4,0.5,0.8,0.9,0.9l0.2,0.1
					l-0.2,0.1c-0.4,0.1-0.8,0.5-0.9,0.9l-0.1,0.2l-0.1-0.2c-0.1-0.4-0.5-0.8-0.9-0.9l-0.2-0.1l0.2-0.1
					C1704.5,520.2,1704.8,519.9,1705,519.4"/>
				<path id="Fill-102_10_" class="st14" d="M1563,439.4c-1.1,0-1.9,0.9-1.9,2s0.9,2,1.9,2s1.9-0.9,1.9-2S1564.1,439.4,1563,439.4"
					/>
				
					<g id="Group_24_" transform="translate(1087.006925, 790.292737) scale(-1, -1) rotate(-31.000000) translate(-1087.006925, -790.292737) translate(920.006925, 690.792737)" class="st16">
					<path id="Fill-98_11_" class="st14" d="M-63.9,7.3c-1.3,0-2.4,1.1-2.4,2.5s1.1,2.5,2.4,2.5s2.4-1.1,2.4-2.5
						C-61.5,8.5-62.5,7.3-63.9,7.3"/>
					<path id="Fill-100_12_" class="st14" d="M-47,123.2c-1.4,0-2.4,1.1-2.4,2.5s1.1,2.5,2.4,2.5c1.3,0,2.4-1.1,2.4-2.5
						S-45.7,123.2-47,123.2"/>
					<path id="Fill-102_11_" class="st14" d="M-306.4,49.8c-1.3,0-2.4,1.1-2.4,2.5s1.1,2.5,2.4,2.5s2.4-1.1,2.4-2.5
						C-304,51-305.1,49.8-306.4,49.8"/>
					<path id="Fill-104_11_" class="st14" d="M-184.8,20.7c-1.3,0-2.4,1.1-2.4,2.5s1.1,2.5,2.4,2.5s2.4-1.1,2.4-2.5
						C-182.3,21.8-183.4,20.7-184.8,20.7"/>
					<path id="Fill-108_11_" class="st14" d="M-76.7-51.9c-0.5,0-1,0.3-1.1,0.9l-0.7,2.2l-2.1,0.7c-0.5,0.2-0.8,0.6-0.8,1.2
						s0.3,1,0.8,1.2l2.1,0.7l0.7,2.2c0.2,0.5,0.6,0.9,1.1,0.9s1-0.3,1.1-0.9l0.7-2.2l2.1-0.7c0.5-0.2,0.8-0.6,0.8-1.2
						c0-0.6-0.3-1-0.8-1.2l-2.1-0.7l-0.7-2.2C-75.7-51.5-76.1-51.9-76.7-51.9 M-76.8-46.9l0.1-0.1l0.1,0.1l-0.1,0.1
						C-76.7-46.8-76.7-46.8-76.8-46.9 M-77.4-46.5L-77.4-46.5l-0.2,0.6l-1.1,0.4l1.1-0.4L-77.4-46.5"/>
					<path id="Fill-112_12_" class="st14" d="M-155.1,88.2c-0.5,0-1,0.3-1.1,0.9l-0.7,2.2L-159,92c-0.5,0.2-0.8,0.6-0.8,1.2
						c0,0.6,0.3,1,0.8,1.2l2.1,0.7l0.7,2.2c0.2,0.5,0.6,0.9,1.1,0.9s1-0.3,1.1-0.9l0.7-2.2l2.1-0.7c0.5-0.2,0.8-0.6,0.8-1.2
						s-0.3-1-0.8-1.2l-2.1-0.7l-0.7-2.2C-154.2,88.5-154.6,88.2-155.1,88.2 M-155.2,93.2l0.1-0.1l0.1,0.1l-0.1,0.1
						C-155.2,93.3-155.2,93.2-155.2,93.2 M-155.8,93.5L-155.8,93.5l-0.2,0.6l-1.1,0.4l1.1-0.4L-155.8,93.5"/>
					<path id="Fill-116_11_" class="st14" d="M-236-70.2c-0.6,0-1,0.4-1.2,0.9l-1.1,3.4l-3.2,1.1c-0.5,0.2-0.9,0.7-0.9,1.3
						c0,0.6,0.3,1.1,0.9,1.3l3.2,1.1l1.1,3.4c0.2,0.5,0.7,0.9,1.2,0.9c0.6,0,1-0.4,1.2-0.9l1.1-3.4l3.2-1.1c0.5-0.2,0.9-0.7,0.9-1.3
						c0-0.6-0.4-1.1-0.9-1.3l-3.2-1.1l-1.1-3.4C-235-69.8-235.4-70.2-236-70.2 M-234.7-64.9L-234.7-64.9l1.2-0.4L-234.7-64.9
						l-0.4,1.3l0.2,0.1l-0.2,0.1c-0.4,0.1-0.7,0.4-0.8,0.8l-0.1,0.2l-0.1-0.2c-0.1-0.4-0.4-0.7-0.8-0.8l-0.2-0.1l0.2-0.1
						c0.4-0.1,0.7-0.4,0.8-0.8l0.1-0.2l0.1,0.2c0.1,0.4,0.4,0.7,0.8,0.8L-234.7-64.9"/>
					<path id="Fill-120_12_" class="st14" d="M17.8,54.8c-0.6,0-1,0.4-1.2,0.9l-1.1,3.4l-3.2,1.1c-0.5,0.2-0.9,0.7-0.9,1.3
						s0.4,1.1,0.9,1.3l3.2,1.1l1.1,3.4c0.2,0.5,0.7,0.9,1.2,0.9c0.6,0,1-0.4,1.2-0.9l1.1-3.4l3.2-1.1c0.5-0.2,0.9-0.7,0.9-1.3
						s-0.4-1.1-0.9-1.3l-3.2-1.1L19,55.7C18.9,55.2,18.4,54.8,17.8,54.8 M17.7,60.6l0.1-0.2l0.1,0.2c0.1,0.4,0.4,0.7,0.8,0.8
						l0.2,0.1l-0.2,0.1c-0.4,0.1-0.7,0.4-0.8,0.8l-0.1,0.2l-0.1-0.2c-0.1-0.4-0.4-0.7-0.8-0.8l-0.2-0.1l0.2-0.1
						C17.3,61.3,17.6,61,17.7,60.6"/>
				</g>
				
					<g id="Group_25_" transform="translate(1016.458872, 668.918929) scale(1, -1) rotate(-95.000000) translate(-1016.458872, -668.918929) translate(833.958872, 560.418929)" class="st16">
					<path id="Fill-98_12_" class="st14" d="M143.2,375.7c-1.4,0-2.6,1.2-2.6,2.7s1.2,2.7,2.6,2.7c1.4,0,2.6-1.2,2.6-2.7
						C145.9,376.9,144.7,375.7,143.2,375.7"/>
					<path id="Fill-100_13_" class="st14" d="M161.6,502.1c-1.4,0-2.6,1.2-2.6,2.7s1.2,2.7,2.6,2.7c1.4,0,2.6-1.2,2.6-2.7
						C164.2,503.3,163.1,502.1,161.6,502.1"/>
					<path id="Fill-108_12_" class="st14" d="M129.2,311.2c-0.6,0-1.1,0.4-1.2,0.9l-0.8,2.4l-2.3,0.8c-0.5,0.2-0.9,0.7-0.9,1.3
						c0,0.6,0.4,1.1,0.9,1.3l2.3,0.8l0.8,2.4c0.2,0.6,0.7,0.9,1.2,0.9s1.1-0.4,1.2-0.9l0.8-2.4l2.3-0.8c0.5-0.2,0.9-0.7,0.9-1.3
						c0-0.6-0.4-1.1-0.9-1.3l-2.3-0.8l-0.8-2.4C130.3,311.5,129.8,311.2,129.2,311.2 M129.1,316.6l0.1-0.1l0.1,0.1l-0.1,0.1
						C129.2,316.7,129.1,316.7,129.1,316.6 M128.5,317L128.5,317l-0.2,0.7l-1.2,0.4l1.2-0.4L128.5,317"/>
					<path id="Fill-112_13_" class="st14" d="M43.4,463.9c-0.6,0-1.1,0.4-1.2,0.9l-0.8,2.4l-2.3,0.8c-0.5,0.2-0.9,0.7-0.9,1.3
						s0.4,1.1,0.9,1.3l2.3,0.8l0.8,2.4c0.2,0.6,0.7,0.9,1.2,0.9c0.6,0,1.1-0.4,1.2-0.9l0.8-2.4l2.3-0.8c0.5-0.2,0.9-0.7,0.9-1.3
						c0-0.6-0.4-1.1-0.9-1.3l-2.3-0.8l-0.8-2.4C44.5,464.3,44,463.9,43.4,463.9 M43.3,469.3l0.1-0.1l0.1,0.1l-0.1,0.1
						C43.4,469.4,43.3,469.4,43.3,469.3 M42.6,469.7L42.6,469.7l-0.2,0.7l-1.2,0.4l1.2-0.4L42.6,469.7"/>
					<path id="Fill-120_13_" class="st14" d="M232.6,427.5c-0.6,0-1.1,0.4-1.3,1l-1.2,3.7l-3.5,1.2c-0.6,0.2-1,0.8-1,1.4
						s0.4,1.2,1,1.4l3.5,1.2l1.2,3.7c0.2,0.6,0.7,1,1.3,1s1.1-0.4,1.3-1l1.2-3.7l3.5-1.2c0.6-0.2,1-0.8,1-1.4s-0.4-1.2-1-1.4
						l-3.5-1.2l-1.2-3.7C233.7,427.9,233.2,427.5,232.6,427.5 M232.5,433.8l0.1-0.2l0.1,0.2c0.1,0.4,0.5,0.8,0.9,0.9l0.2,0.1
						l-0.2,0.1c-0.4,0.1-0.7,0.5-0.9,0.9l-0.1,0.2l-0.1-0.2c-0.1-0.4-0.5-0.8-0.9-0.9l-0.2-0.1l0.2-0.1
						C232,434.6,232.3,434.2,232.5,433.8"/>
				</g>
				
					<g id="Group_26_" transform="translate(1063.879894, 450.998118) rotate(-243.000000) translate(-1063.879894, -450.998118) translate(871.879894, 336.998118)" class="st17">
				</g>
				
					<g id="Group_27_" transform="translate(957.634972, 722.229401) scale(-1, -1) rotate(-258.000000) translate(-957.634972, -722.229401) translate(761.134972, 605.229401)" class="st18">
					<path id="Fill-100_14_" class="st14" d="M467.6,501.4c-1.6,0-2.8,1.3-2.8,2.9s1.3,2.9,2.8,2.9c1.5,0,2.8-1.3,2.8-2.9
						C470.5,502.7,469.2,501.4,467.6,501.4"/>
					<path id="Fill-102_12_" class="st14" d="M162.1,415c-1.6,0-2.8,1.3-2.8,2.9s1.3,2.9,2.8,2.9c1.6,0,2.8-1.3,2.8-2.9
						S163.7,415,162.1,415"/>
					<path id="Fill-104_12_" class="st14" d="M305.5,380.7c-1.6,0-2.8,1.3-2.8,2.9s1.3,2.9,2.8,2.9c1.6,0,2.8-1.3,2.8-2.9
						S307,380.7,305.5,380.7"/>
					<path id="Fill-112_14_" class="st14" d="M340.3,460.2c-0.6,0-1.1,0.4-1.3,1l-0.8,2.6l-2.5,0.9c-0.6,0.2-1,0.8-1,1.4
						c0,0.6,0.4,1.2,1,1.4l2.5,0.9l0.8,2.6c0.2,0.6,0.7,1,1.3,1s1.1-0.4,1.3-1l0.8-2.6l2.5-0.9c0.6-0.2,1-0.8,1-1.4
						c0-0.6-0.4-1.2-1-1.4l-2.5-0.9l-0.8-2.6C341.5,460.6,341,460.2,340.3,460.2 M340.2,466.1l0.1-0.1l0.1,0.1l-0.1,0.1
						C340.3,466.1,340.3,466.1,340.2,466.1 M339.5,466.4L339.5,466.4l-0.2,0.7l-1.3,0.5l1.3-0.5L339.5,466.4"/>
					<path id="Fill-116_12_" class="st14" d="M245.1,273.8c-0.7,0-1.2,0.4-1.4,1.1l-1.3,4l-3.8,1.3c-0.6,0.2-1,0.8-1,1.5
						s0.4,1.3,1,1.5l3.8,1.3l1.3,4c0.2,0.6,0.8,1.1,1.4,1.1s1.2-0.4,1.4-1.1l1.3-4l3.8-1.3c0.6-0.2,1-0.8,1-1.5s-0.4-1.3-1-1.5
						l-3.8-1.3l-1.3-4C246.3,274.2,245.8,273.8,245.1,273.8 M246.6,280.1L246.6,280.1l1.4-0.5L246.6,280.1l-0.5,1.5l0.2,0.1
						l-0.2,0.1c-0.4,0.2-0.8,0.5-1,1L245,283l-0.1-0.2c-0.1-0.5-0.5-0.8-1-1l-0.2-0.1l0.2-0.1c0.4-0.2,0.8-0.5,1-1l0.1-0.2l0.1,0.2
						c0.1,0.5,0.5,0.8,1,1L246.6,280.1"/>
				</g>
				
					<g id="Group_28_" transform="translate(933.926630, 647.516983) scale(1, -1) rotate(-177.000000) translate(-933.926630, -647.516983) translate(744.426630, 535.016983)" class="st16">
					<path id="Fill-102_13_" class="st14" d="M-302.9,53.1c-1.5,0-2.7,1.3-2.7,2.8c0,1.6,1.2,2.8,2.7,2.8s2.7-1.3,2.7-2.8
						C-300.2,54.3-301.4,53.1-302.9,53.1"/>
					<path id="Fill-112_15_" class="st14" d="M-131.1,96.5c-0.6,0-1.1,0.4-1.3,1l-0.8,2.5l-2.4,0.8c-0.6,0.2-0.9,0.7-0.9,1.3
						s0.4,1.2,0.9,1.3l2.4,0.8l0.8,2.5c0.2,0.6,0.7,1,1.3,1s1.1-0.4,1.3-1l0.8-2.5l2.4-0.8c0.6-0.2,0.9-0.7,0.9-1.3
						s-0.4-1.2-0.9-1.3l-2.4-0.8l-0.8-2.5C-129.9,96.9-130.5,96.5-131.1,96.5 M-131.2,102.2l0.1-0.1l0.1,0.1l-0.1,0.1
						C-131.1,102.3-131.1,102.2-131.2,102.2 M-131.8,102.6L-131.8,102.6l-0.2,0.7l-1.3,0.4l1.3-0.4L-131.8,102.6"/>
				</g>
				<path id="Fill-120_14_" class="st14" d="M1408.6,500.3c-0.7,0-1.3,0.5-1.5,1.1l-1.3,4.2l-4,1.4c-0.7,0.2-1.1,0.9-1.1,1.6
					c0,0.7,0.4,1.3,1.1,1.6l4,1.4l1.3,4.2c0.2,0.7,0.8,1.1,1.5,1.1s1.3-0.5,1.5-1.1l1.3-4.2l4-1.4c0.6-0.2,1.1-0.9,1.1-1.6
					c0-0.7-0.4-1.3-1.1-1.6l-4-1.4l-1.3-4.2C1409.9,500.8,1409.3,500.3,1408.6,500.3 M1408.5,507.4l0.1-0.3l0.1,0.3
					c0.2,0.5,0.5,0.9,1,1l0.2,0.1l-0.2,0.1c-0.5,0.2-0.8,0.6-1,1l-0.1,0.3l-0.1-0.3c-0.2-0.5-0.5-0.9-1-1l-0.2-0.1l0.2-0.1
					C1408,508.3,1408.3,507.9,1408.5,507.4"/>
			</g>
		</g>
	</g>
</g>
<linearGradient id="Rectangle-7_1_" gradientUnits="userSpaceOnUse" x1="1980.9048" y1="-903.4332" x2="1980.3352" y2="-902.963" gradientTransform="matrix(1461 0 0 2117 -2893424 1913370)">
	<stop  offset="0" style="stop-color:#FFFFFF"/>
	<stop  offset="1" style="stop-color:#EFFAFF"/>
</linearGradient>
<polygon id="Rectangle-7" class="st25" points="-13,-159 1448,-159 1448,1668 -13,1958 "/>
<g id="_x3E_formecool_1_" transform="translate(1940.511273, 1922.802214) rotate(136.000000) translate(-1940.511273, -1922.802214) translate(221.511273, 910.802214)">
	<g id="_x3E_illu_1_" transform="translate(0.000000, -0.000000)">
		
			<g id="Bg-Copy_1_" transform="translate(784.292428, 654.747828) rotate(7.000000) translate(-784.292428, -654.747828) translate(64.292428, 83.747828)">
			
				<linearGradient id="on_20_" gradientUnits="userSpaceOnUse" x1="1854.9971" y1="-3001.1062" x2="1854.853" y2="-3000.1355" gradientTransform="matrix(1610.7083 -523.3513 357.0533 1098.8964 -1915183.375 4269808.5)">
				<stop  offset="0" style="stop-color:#0D81FE"/>
				<stop  offset="1" style="stop-color:#61CEFF"/>
			</linearGradient>
			<path id="on_4_" class="st26" d="M360.7,1279.9l1099.1-20.1c33.2-0.6,64.5,15.3,83.6,42.4l133.5,189.8
				c18.6,26.4,23.3,60.3,12.5,90.8c-46,130.6-89.9,244.5-131.8,341.7c-52.5,122.1-77.7,187.2-251.2,257.2
				c-59.1,23.9-138.6,38.6-235.9,75.8c-125.6,48-190.3,29.3-331,73.1c-140.7,43.8-242.5,39.4-292.2,69.6
				c-49.8,30.2-151.5,59.3-192.4,48.3l0,0l0,0c-42.1-11.3-70.1-50.9-66.8-94.3l74.7-982C266.7,1320.9,309.1,1280.9,360.7,1279.9z"/>
			<path id="on-dark_3_" class="st5" d="M387.8,1288.4l1057.4-19.3c26.3-0.5,51.8,9.5,70.9,27.6l186.7,178.2
				c34.5,32.9,40.9,85.6,15.5,125.8l-309.9,489.6c-12.9,20.4-32.7,35.4-55.8,42.3L346.1,2434.4c-52.9,15.9-108.6-14.2-124.5-67.1
				c-3.5-11.8-4.9-24.1-3.9-36.3l72.3-950.2C293.8,1329.4,336.2,1289.4,387.8,1288.4z"/>
			
				<linearGradient id="Fond_5_" gradientUnits="userSpaceOnUse" x1="1854.629" y1="-3000.6868" x2="1853.9764" y2="-3000.1514" gradientTransform="matrix(1608.243 -522.5502 340.7764 1048.801 -1959473.125 4117800.25)">
				<stop  offset="0" style="stop-color:#0D81FE"/>
				<stop  offset="1" style="stop-color:#61CEFF"/>
			</linearGradient>
			<path id="Fond_1_" class="st27" d="M387.7,1289.3l1057.3-20.2c26.4-0.5,52,9.5,71.1,27.8c71,68,114.5,110.8,130.6,128.3
				c19.9,19.8,37.6,39.4,44.5,46.5l0,0l0,0c41.2,26.9,52.9,82.1,26,123.3c-0.6,0.9-1.2,1.7-1.8,2.6c-11.1,15.8-17.4,24.8-18.9,26.9
				c-20.8,30.5-36.3,56.2-53.9,83.7c-38.7,60.5-70.3,113.1-93.1,158.9c-37.8,75.8-84.1,150.8-139,225.2l0,0
				c-14,19-34.3,32.4-57.2,37.9c-29.1,7-47.9,11.7-56.3,14.2c-91.7,27.5-179.3,58.6-271,86.1c-64.5,19.4-96.9,12.7-189.8,47.5
				c-19.1,7.2-86.4,28-178.7,54.9c-45.3,13.2-102.2,23.1-159.2,40.7c-24.5,7.6-73.4,24.4-146.9,50.5l0,0
				c-52,18.5-109.2-8.7-127.7-60.7c-4.7-13.2-6.5-27.2-5.5-41.1l71.6-940.6C293.8,1330.3,336.1,1290.3,387.7,1289.3z"/>
		</g>
		
			<g id="Bg-Copy-3_1_" transform="translate(2711.600150, 1358.846046) rotate(159.636885) translate(-2711.600150, -1358.846046) translate(2119.100150, 869.846046)">
			
				<linearGradient id="on_21_" gradientUnits="userSpaceOnUse" x1="289.0117" y1="-1449.1102" x2="288.8678" y2="-1448.1394" gradientTransform="matrix(1323.6799 -430.0895 304.3772 936.7769 59518.8867 1480432.25)">
				<stop  offset="0" style="stop-color:#0D81FE"/>
				<stop  offset="1" style="stop-color:#61CEFF"/>
			</linearGradient>
			<path id="on_5_" class="st28" d="M306.1-1546.7l879.7-6.3c33.2-0.2,64.3,16,83.1,43.3l103.9,151.2c17.9,26.1,22.5,59.1,12.2,89.1
				c-39.4,114.9-67,192.8-82.8,233.5c-6.7,17.3-13.4,34-20,50.2c-19.4,47.6-16.1,49.1-80.7,106c-64.6,56.9-73.9,48-150.9,79.3
				c-51.7,21-57,56.1-95.1,73c-18.7,8.3-46,10.6-72.3,20.7c-80,30.7-125.1,9-272.5,59.1c-147.3,50.1-199.7,31.2-240.5,56.4
				c-40.8,25.2-124.5,49.1-158.3,39.4l0,0l0,0c-35.1-10.1-58.4-43.2-56.2-79.6l51.3-821.5C210.3-1505.4,253.6-1546.4,306.1-1546.7z"
				/>
			<path id="on-dark_4_" class="st5" d="M328.6-1539.6l847-6.1c26.5-0.2,52,10.2,70.9,28.8l144.8,142.6
				c32.8,32.4,39.3,83,15.6,122.5c-63,105.4-103.5,173-121.5,202.9c-11.7,19.4-22.7,30.6-32.3,46.4c-34.8,57.3-51.1,72.9-62.5,106.7
				c-21.4,63.4-124.3,50-171.2,90c-46.9,40.1-70.1,48.5-93.4,60.7c-81.5,42.9-298,62.5-412.3,122.6C460.9-594.7,390-571.3,301-552.1
				l0,0c-54,11.6-107.2-22.8-118.8-76.8c-1.9-8.9-2.6-18.1-2-27.2l49.3-789.8C232.8-1498.3,276.1-1539.2,328.6-1539.6z"/>
			
				<g id="etoile-confet_x7B_:linearEase_x3B_0_x2C_0.65_x2C_4.07_x2C_1745_x2C_1171_x2C_360_x2C_0.21_x3B_10_x2C_0.2_x2C_4.99_x2C_1745_x2C_1171_x2C_360_x2C_0.21_x3B_20_x2C_0.76_x2C_3.73_x2C_1745_x2C_1171_x2C_360_x2C_0.21_x3B_30_x2C_0.65_x2C_4.07_x2C_1745_x2C_1171_x_3_" transform="translate(-78.481011, -223.614158)" class="st9">
				
					<g id="Group_29_" transform="translate(1228.680113, 578.547106) scale(1, -1) rotate(-20.000000) translate(-1228.680113, -578.547106) translate(1045.285617, 469.514061)" class="st10">
				</g>
				<g id="Group-2_3_" transform="translate(-0.000000, 0.000000)">
					
						<g id="Group_30_" transform="translate(1223.069490, 697.285433) rotate(-332.000000) translate(-1223.069490, -697.285433) translate(1088.569490, 617.285433)" class="st13">
						<path id="Fill-98_13_" class="st14" d="M-199.9-1346.6c-1.1,0-1.9,0.9-1.9,2s0.9,2,1.9,2s1.9-0.9,1.9-2
							C-198-1345.7-198.8-1346.6-199.9-1346.6"/>
						<path id="Fill-100_15_" class="st14" d="M-186.4-1253.7c-1.1,0-1.9,0.9-1.9,2s0.9,2,1.9,2s1.9-0.9,1.9-2
							C-184.4-1252.8-185.3-1253.7-186.4-1253.7"/>
						<path id="Fill-104_13_" class="st14" d="M-297.2-1335.9c-1.1,0-1.9,0.9-1.9,2s0.9,2,1.9,2s1.9-0.9,1.9-2
							S-296.1-1335.9-297.2-1335.9"/>
						<path id="Fill-108_13_" class="st14" d="M-210.2-1394.1c-0.4,0-0.8,0.3-0.9,0.7l-0.6,1.8l-1.7,0.6c-0.4,0.1-0.7,0.5-0.7,1
							s0.3,0.8,0.7,1l1.7,0.6l0.6,1.8c0.1,0.4,0.5,0.7,0.9,0.7s0.8-0.3,0.9-0.7l0.6-1.8l1.7-0.6c0.4-0.1,0.7-0.5,0.7-1
							c0-0.4-0.3-0.8-0.7-1l-1.7-0.6l-0.6-1.8C-209.4-1393.8-209.8-1394.1-210.2-1394.1 M-210.3-1390.1
							C-210.3-1390.1-210.2-1390.1-210.3-1390.1c0.1-0.1,0.1,0,0.2,0C-210.1-1390-210.2-1390-210.3-1390.1
							C-210.2-1390-210.3-1390-210.3-1390.1 M-210.8-1389.8L-210.8-1389.8l-0.2,0.5l-0.9,0.3l0.9-0.3L-210.8-1389.8"/>
						<path id="Fill-112_16_" class="st14" d="M-273.4-1281.8c-0.4,0-0.8,0.3-0.9,0.7l-0.6,1.8l-1.7,0.6c-0.4,0.1-0.7,0.5-0.7,1
							c0,0.4,0.3,0.8,0.7,1l1.7,0.6l0.6,1.8c0.1,0.4,0.5,0.7,0.9,0.7c0.4,0,0.8-0.3,0.9-0.7l0.6-1.8l1.7-0.6c0.4-0.1,0.7-0.5,0.7-1
							c0-0.4-0.3-0.8-0.7-1l-1.7-0.6l-0.6-1.8C-272.6-1281.5-272.9-1281.8-273.4-1281.8 M-273.4-1277.8L-273.4-1277.8
							c0.1-0.1,0.1,0,0.2,0C-273.3-1277.8-273.3-1277.7-273.4-1277.8C-273.4-1277.7-273.4-1277.8-273.4-1277.8 M-273.9-1277.5
							L-273.9-1277.5l-0.2,0.5l-0.9,0.3l0.9-0.3L-273.9-1277.5"/>
						<path id="Fill-120_15_" class="st14" d="M-134.2-1308.5c-0.4,0-0.8,0.3-1,0.7l-0.9,2.7l-2.6,0.9c-0.4,0.1-0.7,0.6-0.7,1
							c0,0.5,0.3,0.9,0.7,1l2.6,0.9l0.9,2.7c0.1,0.4,0.5,0.7,1,0.7s0.8-0.3,1-0.7l0.9-2.7l2.6-0.9c0.4-0.1,0.7-0.6,0.7-1
							c0-0.5-0.3-0.9-0.7-1l-2.6-0.9l-0.9-2.7C-133.3-1308.2-133.7-1308.5-134.2-1308.5 M-134.2-1303.9l0.1-0.2l0.1,0.2
							c0.1,0.3,0.3,0.6,0.7,0.7l0.2,0.1l-0.2,0.1c-0.3,0.1-0.5,0.4-0.7,0.7l-0.1,0.2l-0.1-0.2c-0.1-0.3-0.3-0.6-0.7-0.7l-0.2-0.1
							l0.2-0.1C-134.5-1303.3-134.3-1303.6-134.2-1303.9"/>
					</g>
					<path id="Fill-98_14_" class="st14" d="M1612.9-799.5c-1.5,0-2.6,1.2-2.6,2.7s1.2,2.7,2.6,2.7c1.5,0,2.6-1.2,2.6-2.7
						S1614.4-799.5,1612.9-799.5"/>
					<path id="Fill-108_14_" class="st14" d="M1578.4-744.3c-0.6,0-1.1,0.4-1.3,0.9l-0.8,2.4l-2.3,0.8c-0.5,0.2-0.9,0.7-0.9,1.3
						s0.4,1.1,0.9,1.3l2.3,0.8l0.8,2.4c0.2,0.6,0.7,0.9,1.3,0.9s1.1-0.4,1.3-0.9l0.8-2.4l2.3-0.8c0.5-0.2,0.9-0.7,0.9-1.3
						s-0.4-1.1-0.9-1.3l-2.3-0.8l-0.8-2.4C1579.5-744,1579-744.3,1578.4-744.3 M1578.3-738.8L1578.3-738.8h0.2H1578.3
						C1578.4-738.8,1578.4-738.8,1578.3-738.8 M1577.7-738.5L1577.7-738.5l-0.2,0.7l-1.3,0.4l1.3-0.4L1577.7-738.5"/>
					<path id="Fill-120_16_" class="st14" d="M1714.9-818.2c-0.6,0-1.1,0.4-1.3,1l-1.2,3.7l-3.6,1.2c-0.6,0.2-1,0.8-1,1.4
						s0.4,1.2,1,1.4l3.6,1.2l1.2,3.7c0.2,0.6,0.7,1,1.3,1c0.6,0,1.1-0.4,1.3-1l1.2-3.7l3.6-1.2c0.6-0.2,1-0.8,1-1.4s-0.4-1.2-1-1.4
						l-3.6-1.2l-1.2-3.7C1716-817.8,1715.5-818.2,1714.9-818.2 M1714.8-811.8l0.1-0.2l0.1,0.2c0.1,0.4,0.5,0.8,0.9,0.9l0.2,0.1
						l-0.2,0.1c-0.4,0.1-0.8,0.5-0.9,0.9l-0.1,0.2l-0.1-0.2c-0.1-0.4-0.5-0.8-0.9-0.9l-0.2-0.1l0.2-0.1
						C1714.3-811.1,1714.7-811.4,1714.8-811.8"/>
					
						<g id="Group_31_" transform="translate(1087.006925, 790.292737) scale(-1, -1) rotate(-31.000000) translate(-1087.006925, -790.292737) translate(920.006925, 690.792737)" class="st16">
						<path id="Fill-98_15_" class="st14" d="M-758,1143.4c-1.3,0-2.4,1.1-2.4,2.5s1.1,2.5,2.4,2.5s2.4-1.1,2.4-2.5
							S-756.7,1143.4-758,1143.4"/>
						<path id="Fill-102_14_" class="st14" d="M-1000.6,1185.9c-1.3,0-2.4,1.1-2.4,2.5s1.1,2.5,2.4,2.5c1.3,0,2.4-1.1,2.4-2.5
							S-999.3,1185.9-1000.6,1185.9"/>
						<path id="Fill-104_14_" class="st14" d="M-878.9,1156.7c-1.3,0-2.4,1.1-2.4,2.5c0,1.4,1.1,2.5,2.4,2.5c1.3,0,2.4-1.1,2.4-2.5
							C-876.5,1157.9-877.6,1156.7-878.9,1156.7"/>
						<path id="Fill-108_15_" class="st14" d="M-770.8,1084.2c-0.5,0-1,0.3-1.1,0.9l-0.7,2.2l-2.1,0.7c-0.5,0.2-0.8,0.6-0.8,1.2
							c0,0.6,0.3,1,0.8,1.2l2.1,0.7l0.7,2.2c0.2,0.5,0.6,0.9,1.1,0.9s1-0.3,1.1-0.9l0.7-2.2l2.1-0.7c0.5-0.2,0.8-0.6,0.8-1.2
							c0-0.6-0.3-1-0.8-1.2l-2.1-0.7l-0.7-2.2C-769.8,1084.6-770.3,1084.2-770.8,1084.2 M-770.9,1089.2l0.1-0.1l0.1,0.1l-0.1,0.1
							C-770.8,1089.3-770.9,1089.3-770.9,1089.2 M-771.5,1089.5L-771.5,1089.5l-0.2,0.6l-1.1,0.4l1.1-0.4L-771.5,1089.5"/>
						<path id="Fill-112_17_" class="st14" d="M-849.3,1224.3c-0.5,0-1,0.3-1.1,0.9l-0.7,2.2l-2.1,0.7c-0.5,0.2-0.8,0.6-0.8,1.2
							s0.3,1,0.8,1.2l2.1,0.7l0.7,2.2c0.2,0.5,0.6,0.9,1.1,0.9s1-0.3,1.1-0.9l0.7-2.2l2.1-0.7c0.5-0.2,0.8-0.6,0.8-1.2
							s-0.3-1-0.8-1.2l-2.1-0.7l-0.7-2.2C-848.3,1224.6-848.8,1224.3-849.3,1224.3 M-849.4,1229.3l0.1-0.1l0.1,0.1l-0.1,0.1
							C-849.3,1229.3-849.3,1229.3-849.4,1229.3 M-850,1229.6L-850,1229.6l-0.2,0.6l-1.1,0.4l1.1-0.4L-850,1229.6"/>
						<path id="Fill-116_13_" class="st14" d="M-930.1,1065.9c-0.6,0-1,0.4-1.2,0.9l-1.1,3.4l-3.2,1.1c-0.5,0.2-0.9,0.7-0.9,1.3
							s0.3,1.1,0.9,1.3l3.2,1.1l1.1,3.4c0.2,0.5,0.7,0.9,1.2,0.9c0.6,0,1-0.4,1.2-0.9l1.1-3.4l3.2-1.1c0.5-0.2,0.9-0.7,0.9-1.3
							s-0.4-1.1-0.9-1.3l-3.2-1.1l-1.1-3.4C-929.1,1066.2-929.6,1065.9-930.1,1065.9 M-928.9,1071.2L-928.9,1071.2l1.2-0.4
							L-928.9,1071.2l-0.4,1.3l0.2,0.1l-0.2,0.1c-0.4,0.1-0.7,0.4-0.8,0.8v0.2l-0.1-0.2c-0.1-0.4-0.4-0.7-0.8-0.8l-0.2-0.1l0.2-0.1
							c0.4-0.1,0.7-0.4,0.8-0.8l0.1-0.2l0.1,0.2c0.1,0.4,0.4,0.7,0.8,0.8L-928.9,1071.2"/>
						<path id="Fill-120_17_" class="st14" d="M-676.3,1190.9c-0.6,0-1,0.4-1.2,0.9l-1.1,3.4l-3.2,1.1c-0.5,0.2-0.9,0.7-0.9,1.3
							c0,0.6,0.4,1.1,0.9,1.3l3.2,1.1l1.1,3.4c0.2,0.5,0.7,0.9,1.2,0.9c0.6,0,1-0.4,1.2-0.9l1.1-3.4l3.2-1.1
							c0.5-0.2,0.9-0.7,0.9-1.3c0-0.6-0.4-1.1-0.9-1.3l-3.2-1.1l-1.1-3.4C-675.3,1191.3-675.8,1190.9-676.3,1190.9 M-676.4,1196.7
							l0.1-0.2l0.1,0.2c0.1,0.4,0.4,0.7,0.8,0.8l0.2,0.1l-0.2,0.1c-0.4,0.1-0.7,0.4-0.8,0.8l-0.1,0.2l-0.1-0.2
							c-0.1-0.4-0.4-0.7-0.8-0.8l-0.2-0.1l0.2-0.1C-676.8,1197.4-676.5,1197.1-676.4,1196.7"/>
					</g>
					
						<g id="Group_32_" transform="translate(1016.458872, 668.918929) scale(1, -1) rotate(-95.000000) translate(-1016.458872, -668.918929) translate(833.958872, 560.418929)" class="st16">
						<path id="Fill-98_16_" class="st14" d="M-1183.9,269.5c-1.4,0-2.6,1.2-2.6,2.7s1.2,2.7,2.6,2.7c1.4,0,2.6-1.2,2.6-2.7
							S-1182.5,269.5-1183.9,269.5"/>
						<path id="Fill-100_16_" class="st14" d="M-1165.5,395.9c-1.4,0-2.6,1.2-2.6,2.7s1.2,2.7,2.6,2.7s2.6-1.2,2.6-2.7
							S-1164.1,395.9-1165.5,395.9"/>
						<path id="Fill-120_18_" class="st14" d="M-1094.6,321.3c-0.6,0-1.1,0.4-1.3,1l-1.2,3.7l-3.5,1.2c-0.6,0.2-1,0.8-1,1.4
							c0,0.6,0.4,1.2,1,1.4l3.5,1.2l1.2,3.7c0.2,0.6,0.7,1,1.3,1s1.1-0.4,1.3-1l1.2-3.7l3.5-1.2c0.6-0.2,1-0.8,1-1.4
							c0-0.6-0.4-1.2-1-1.4l-3.5-1.2l-1.2-3.7C-1093.4,321.7-1094,321.3-1094.6,321.3 M-1094.7,327.6l0.1-0.2l0.1,0.2
							c0.1,0.4,0.5,0.8,0.9,0.9l0.2,0.1l-0.2,0.1c-0.4,0.1-0.7,0.5-0.9,0.9l-0.1,0.2l-0.1-0.2c-0.1-0.4-0.5-0.8-0.9-0.9l-0.2-0.1
							l0.2-0.1C-1095.1,328.4-1094.8,328-1094.7,327.6"/>
					</g>
					
						<g id="Group_33_" transform="translate(957.634972, 722.229401) scale(-1, -1) rotate(-258.000000) translate(-957.634972, -722.229401) translate(761.134972, 605.229401)" class="st18">
						<path id="Fill-102_15_" class="st14" d="M1466.5,147.8c-1.6,0-2.8,1.3-2.8,2.9c0,1.6,1.3,2.9,2.8,2.9s2.8-1.2,2.8-2.8
							C1469.3,149.2,1468,147.8,1466.5,147.8"/>
						<path id="Fill-104_15_" class="st14" d="M1609.8,113.5c-1.6,0-2.8,1.3-2.8,2.9s1.3,2.9,2.8,2.9c1.6,0,2.8-1.3,2.8-2.9
							C1612.7,114.8,1611.4,113.5,1609.8,113.5"/>
						<path id="Fill-112_18_" class="st14" d="M1644.7,193c-0.6,0-1.1,0.4-1.3,1l-0.8,2.6l-2.5,0.9c-0.6,0.2-1,0.8-1,1.4
							s0.4,1.2,1,1.4l2.5,0.9l0.8,2.6c0.2,0.6,0.7,1,1.3,1s1.1-0.4,1.3-1l0.8-2.6l2.5-0.9c0.6-0.2,1-0.8,1-1.4s-0.4-1.2-1-1.4
							l-2.5-0.9l-0.8-2.6C1645.9,193.4,1645.3,193,1644.7,193 M1644.6,198.9l0.1-0.1l0.1,0.1l-0.1,0.1
							C1644.7,198.9,1644.6,198.9,1644.6,198.9 M1643.9,199.2L1643.9,199.2l-0.2,0.7l-1.4,0.5l1.3-0.5L1643.9,199.2"/>
					</g>
					
						<g id="Group_34_" transform="translate(933.926630, 647.516983) scale(1, -1) rotate(-177.000000) translate(-933.926630, -647.516983) translate(744.426630, 535.016983)" class="st16">
					</g>
				</g>
			</g>
		</g>
	</g>
</g>
<g id="Bg-Copy_2_">
	
		<linearGradient id="on_22_" gradientUnits="userSpaceOnUse" x1="1571.2581" y1="-1169.1134" x2="1571.114" y2="-1168.1427" gradientTransform="matrix(1610.7083 -523.3508 310.7718 956.4573 -2167010.25 1940295.25)">
		<stop  offset="0" style="stop-color:#0D81FE"/>
		<stop  offset="1" style="stop-color:#61CEFF"/>
	</linearGradient>
	<path id="on_6_" class="st29" d="M315.1-44.8l153.8-142.3l600.5-11c33.2-0.6,64.5,15.3,83.6,42.4l133.5,189.8
		c18.6,26.4,23.3,60.3,12.5,90.8c-46,130.6-89.9,244.5-131.8,341.7c-52.5,122.1-77.7,187.2-251.2,257.2
		c-59.1,23.9-138.6,38.6-235.9,75.8c-125.6,48-190.3,29.3-331,73.1s-242.5,39.4-292.2,69.6c-49.8,30.2-151.5,59.3-192.4,48.3l0,0
		l0,0c-42.1-11.3-70.1-50.9-66.8-94.3l47.6-625.4L-9,174.7V63.5c-31.5,0.2-37.2-1.4-17.2-4.9C3.9,53.3,49.6,28.6,59,19
		c9.3-9.7,94.7-17.7,106.7-21.9c11.9-4.2,36-23,48.8-23s38.7-8.4,51.6-17.7c12.8-9.3,8.2-3.2,11.2-22.2
		C279.2-78.4,291.8-71.4,315.1-44.8z"/>
	<g id="Headerr" transform="translate(210.000000, 739.000000)">
		<path id="dark-support" class="st30" d="M3.6-898C252-967.1,530-979.7,837.8-935.8l0,0c30.2,4.3,56.8,22.2,72.2,48.5l73.9,126.2
			c18.9,32.3,18.2,72.4-1.8,104L660.9-149.7c-12.9,20.4-32.7,35.4-55.8,42.3l-980,293.8c-52.9,15.9-108.6-14.2-124.5-67.1
			c-5.1-16.9-5.6-34.8-1.5-51.9c82.4-345.6,139.3-564.9,170.7-657.8C-275.9-751.3,282.6-725.1,3.6-898z"/>
		
			<linearGradient id="Fond_6_" gradientUnits="userSpaceOnUse" x1="1151.5535" y1="-1169.8572" x2="1150.9008" y2="-1169.322" gradientTransform="matrix(1608.2432 -522.5499 266.9187 821.4912 -1538818.375 1561950.5)">
			<stop  offset="0" style="stop-color:#0D81FE"/>
			<stop  offset="1" style="stop-color:#61CEFF"/>
		</linearGradient>
		<path id="Fond_2_" class="st31" d="M596.1-924.3l250.5-4.8c26.4-0.5,52,9.5,71.1,27.8c71,68,114.5,110.8,130.6,128.3
			c19.9,19.8,37.6,39.4,44.5,46.5l0,0l0,0c41.2,26.9,52.9,82.1,26,123.3c-0.6,0.9-1.2,1.7-1.8,2.6c-11.1,15.8-17.4,24.8-18.9,26.9
			c-20.8,30.5-36.3,56.2-53.9,83.7c-38.7,60.5-70.3,113.1-93.1,158.9c-37.8,75.8-84.1,150.8-139,225.2l0,0
			c-14,19-34.3,32.4-57.2,37.9c-29.1,7-47.9,11.7-56.3,14.2c-91.7,27.5-179.3,58.6-271,86.1C363.1,51.7,330.7,45,237.8,79.8
			c-19.1,7.2-86.4,28-178.7,54.9c-45.3,13.2-102.2,23.1-159.2,40.7c-24.5,7.6-73.4,24.4-146.9,50.5l0,0
			c-52,18.5-109.2-8.7-127.7-60.7c-4.7-13.2-6.5-27.2-5.5-41.1l39.2-514.6L596.1-924.3z"/>
		
			<linearGradient id="on-dark-copy_1_" gradientUnits="userSpaceOnUse" x1="1151.2593" y1="-1169.0022" x2="1151.1152" y2="-1168.0315" gradientTransform="matrix(1621.799 -526.9544 316.5132 974.1274 -1496791.75 1744386)">
			<stop  offset="0" style="stop-color:#0D81FE"/>
			<stop  offset="1" style="stop-color:#61CEFF"/>
		</linearGradient>
		<path id="on-dark-copy" class="st32" d="M3.6-898c252.8-70.3,536.3-82.1,850.6-35.5l0,0c20.4,3,39.4,12.3,54.4,26.6L1102.3-722
			c34.5,32.9,40.9,85.6,15.5,125.8L807.9-106.6c-12.9,20.4-32.7,35.4-55.8,42.3L-262.8,240c-52.9,15.9-108.6-14.2-124.5-67.1
			c-3-10-4.4-20.4-4.2-30.8c8.3-391.9,28.7-636.1,61.3-732.5C-275.9-751.3,282.6-725.1,3.6-898z"/>
		
			<linearGradient id="on-dark-copy-2_1_" gradientUnits="userSpaceOnUse" x1="1151.2593" y1="-1169.0022" x2="1151.1152" y2="-1168.0315" gradientTransform="matrix(1621.799 -526.9544 316.5132 974.1274 -1496791.75 1744386)">
			<stop  offset="0" style="stop-color:#0D81FE"/>
			<stop  offset="1" style="stop-color:#61CEFF"/>
		</linearGradient>
		<path id="on-dark-copy-2" class="st33" d="M3.6-898c252.8-70.3,536.3-82.1,850.6-35.5l0,0c20.4,3,39.4,12.3,54.4,26.6L1102.3-722
			c34.5,32.9,40.9,85.6,15.5,125.8L807.9-106.6c-12.9,20.4-32.7,35.4-55.8,42.3L-262.8,240c-52.9,15.9-108.6-14.2-124.5-67.1
			c-3-10-4.4-20.4-4.2-30.8c8.3-391.9,28.7-636.1,61.3-732.5C-275.9-751.3,282.6-725.1,3.6-898z"/>
		<g id="on-dark_5_" transform="translate(1055.417491, 750.570039) rotate(-18.000000) translate(-1055.417491, -750.570039) ">
			<path id="path-16_1_" class="st34" d="M403.2-1082.2c252.8-70.3,536.3-82.1,850.6-35.5l0,0c20.4,3,39.4,12.3,54.4,26.6
				l193.7,184.9c34.5,32.9,40.9,85.6,15.5,125.8l-309.9,489.6c-12.9,20.4-32.7,35.4-55.8,42.3L136.8,55.8
				C83.9,71.7,28.2,41.6,12.3-11.3c-3-10-4.4-20.4-4.2-30.8C16.4-434,36.8-678.2,69.4-774.6C123.7-935.5,682.2-909.3,403.2-1082.2z"
				/>
		</g>
	</g>
	<g id="IMG-txtr">
	</g>
</g>
<text transform="matrix(1 0 0 1 911 3910)" class="st35 st36 st37">-Istrium team</text>
<line class="st21" x1="795" y1="1955.8" x2="865.2" y2="1956.7"/>
<line class="st21" x1="631" y1="2657.8" x2="701.2" y2="2658.7"/>
<line class="st21" x1="868.8" y1="1955.8" x2="795" y2="1955.8"/>
<rect x="527.6" y="2137.1" class="st38" width="78.6" height="1.7"/>
<g id="Bloc_de_texte_xA0_1_1_">
	<path class="st22" d="M525,2469.2c3.3,0,6,3.8,6,8.5s-2.6,8.6-5.9,8.6c-3.3,0-6-3.8-6.1-8.5C519,2473.1,521.7,2469.3,525,2469.2z"
		/>
	<path class="st22" d="M524.8,2406.8l1,142c0.1,13.7-7.6,24.9-17.2,25l-204.6,1.4c-9.6,0.1-17.5-11-17.6-24.7l-1-142
		c-0.1-13.7,7.6-24.9,17.2-25l204.6-1.4C516.8,2382,524.7,2393.1,524.8,2406.8z M288,2550.4c0.1,12.5,7.3,22.5,16,22.5l204.6-1.4
		c8.7-0.1,15.8-10.2,15.7-22.7l-1-142c-0.1-12.5-7.3-22.5-16-22.5l-204.6,1.4c-8.7,0.1-15.8,10.2-15.7,22.7L288,2550.4z"/>
</g>
<rect x="529.2" y="2476.9" class="st38" width="78.6" height="1.7"/>
<g id="Bloc_de_texte_xA0_1_2_">
	<path class="st22" d="M866.5,2316c-3.3,0-6-3.8-6-8.5s2.6-8.6,5.9-8.6c3.3,0,6,3.8,6.1,8.5C872.5,2312.1,869.8,2315.9,866.5,2316z"
		/>
	<path class="st22" d="M866.7,2378.4l-1-142c-0.1-13.7,7.6-24.9,17.2-25l204.6-1.4c9.6-0.1,17.5,11,17.6,24.7l1,142
		c0.1,13.7-7.6,24.9-17.2,25l-204.6,1.4C874.7,2403.2,866.8,2392.1,866.7,2378.4z M1103.5,2234.8c-0.1-12.5-7.3-22.5-16-22.5
		l-204.6,1.4c-8.7,0.1-15.8,10.2-15.7,22.7l1,142c0.1,12.5,7.3,22.5,16,22.5l204.6-1.4c8.7-0.1,15.8-10.2,15.7-22.7L1103.5,2234.8z"
		/>
</g>
<rect x="783.8" y="2306.6" class="st38" width="78.6" height="1.7"/>
<g id="Bloc_de_texte_xA0_1_3_">
	<path class="st22" d="M866.5,1967.5c-3.3,0-6-3.8-6-8.5s2.6-8.6,5.9-8.6c3.3,0,6,3.8,6.1,8.5
		C872.5,1963.5,869.8,1967.3,866.5,1967.5z"/>
	<path class="st22" d="M866.7,2029.8l-1-142c-0.1-13.7,7.6-24.9,17.2-25l204.6-1.4c9.6-0.1,17.5,11,17.6,24.7l1,142
		c0.1,13.7-7.6,24.9-17.2,25l-204.6,1.4C874.7,2054.6,866.8,2043.5,866.7,2029.8z M1103.5,1886.2c-0.1-12.5-7.3-22.5-16-22.5
		l-204.6,1.4c-8.7,0.1-15.8,10.2-15.7,22.7l1,142c0.1,12.5,7.3,22.5,16,22.5l204.6-1.4c8.7-0.1,15.8-10.2,15.7-22.7L1103.5,1886.2z"
		/>
</g>
<rect x="783.8" y="1958" class="st38" width="78.6" height="1.7"/>
<g id="Bloc_de_texte_xA0_1_4_">
	<path class="st22" d="M866.5,2682.3c-3.3,0-6-3.8-6-8.5s2.6-8.6,5.9-8.6c3.3,0,6,3.8,6.1,8.5
		C872.5,2678.4,869.8,2682.2,866.5,2682.3z"/>
	<path class="st22" d="M866.7,2744.7l-1-142c-0.1-13.7,7.6-24.9,17.2-25l204.6-1.4c9.6-0.1,17.5,11,17.6,24.7l1,142
		c0.1,13.7-7.6,24.9-17.2,25l-204.6,1.4C874.7,2769.5,866.8,2758.4,866.7,2744.7z M1103.5,2601.1c-0.1-12.5-7.3-22.5-16-22.5
		l-204.6,1.4c-8.7,0.1-15.8,10.2-15.7,22.7l1,142c0.1,12.5,7.3,22.5,16,22.5l204.6-1.4c8.7-0.1,15.8-10.2,15.7-22.7L1103.5,2601.1z"
		/>
</g>
<rect x="783.8" y="2672.9" class="st38" width="78.6" height="1.7"/>
<g id="Bg-Copy_3_" transform="translate(784.292428, 654.747828) rotate(7.000000) translate(-784.292428, -654.747828) translate(64.292428, 83.747828)">
	
		<linearGradient id="on_23_" gradientUnits="userSpaceOnUse" x1="4552.936" y1="4547.3784" x2="4552.792" y2="4546.4077" gradientTransform="matrix(1280.6351 -698.8543 181.5503 1428.9695 -6653592.5 -3311884.25)">
		<stop  offset="0" style="stop-color:#0D81FE"/>
		<stop  offset="1" style="stop-color:#61CEFF"/>
	</linearGradient>
	<path id="on_15_" class="st39" d="M3049.3,3675.8l-776.7,778c-23.5,23.5-57,33.8-89.6,27.6l-227.9-43.8
		c-31.7-6.1-58.6-27.2-72.1-56.6c-57.6-125.9-105.2-238.3-142.6-337.4c-47.1-124.3-74.1-188.6,2-359.5c25.9-58.2,72.9-124,117-218.4
		c57-121.8,116.5-153.3,187.3-282.5c70.8-129.2,147.1-196.8,161.8-253c14.8-56.3,67.8-147.9,104.8-168.4l0,0l0,0
		c38.1-21.1,85.8-12.1,113.6,21.4l628.4,758.3C3088.4,3581,3085.7,3639.2,3049.3,3675.8z"/>
	<path id="on-dark_13_" class="st5" d="M3023.9,3688.5l-747.2,748.4c-18.6,18.6-43.9,29.1-70.2,29.4l-258.1,1.5
		c-47.7,0.3-88.9-33.2-98.5-79.7l-117.2-567.5c-4.9-23.6-1.1-48.2,10.8-69.2l514.4-916.3c27-48.2,88-65.2,136.2-38.2
		c10.7,6.1,20.3,13.9,28,23.4l608.1,733.7C3063,3593.7,3060.3,3651.9,3023.9,3688.5z"/>
	
		<linearGradient id="Fond_7_" gradientUnits="userSpaceOnUse" x1="4552.9614" y1="4546.8784" x2="4552.3091" y2="4546.3428" gradientTransform="matrix(1247.4529 -714.3858 148.9407 1409.5912 -6354165.5 -3152973.5)">
		<stop  offset="0" style="stop-color:#0D81FE"/>
		<stop  offset="1" style="stop-color:#61CEFF"/>
	</linearGradient>
	<path id="Fond_3_" class="st40" d="M3023.3,3687.8l-746.5,749c-18.6,18.7-44,29.3-70.5,29.4c-98.3,0.4-159.3-0.2-183.1-1.6
		c-28.1-0.4-54.4-2.2-64.3-2.5l0,0l0,0c-48.3,9.3-95.1-22.3-104.4-70.6c-0.2-1.1-0.3-2.1-0.5-3.1c-3-19.1-4.7-29.9-5.1-32.5
		c-6.2-36.4-12.9-65.6-19.4-97.7c-14.2-70.4-28-130.2-43.4-179c-25.5-80.8-44.3-166.9-56.4-258.6l0,0c-3.1-23.4,2.2-47.1,14.8-67
		c16.1-25.3,26.3-41.7,30.6-49.3c46.9-83.5,88.3-166.7,135.1-250.2c32.9-58.8,60.9-76.4,103.5-166c8.7-18.4,42.7-80.2,90.4-163.6
		c23.4-41,57.5-87.6,86.2-139.9c12.3-22.5,35.9-68.5,70.6-138.4l0,0c24.6-49.4,84.6-69.6,134-45c12.6,6.2,23.6,15.1,32.5,25.7
		l601.9,726.3C3062.4,3593,3059.8,3651.2,3023.3,3687.8z"/>
</g>
<g id="Bg-Copy-3_2_" transform="translate(2711.600150, 1358.846046) rotate(159.636885) translate(-2711.600150, -1358.846046) translate(2119.100150, 869.846046)">
	
		<linearGradient id="on_24_" gradientUnits="userSpaceOnUse" x1="4125.6133" y1="1330.3381" x2="4125.4697" y2="1329.3673" gradientTransform="matrix(1074.162 -562.7607 171.706 1186.2948 -4655670.5 743150)">
		<stop  offset="0" style="stop-color:#0D81FE"/>
		<stop  offset="1" style="stop-color:#61CEFF"/>
	</linearGradient>
	<path id="on_7_" class="st41" d="M4962.8-760.1l-628.4,615.6c-23.7,23.2-57.4,33.2-89.9,26.6l-179.8-36.6
		c-31-6.3-57.2-26.9-70.7-55.6c-51.5-110-85.7-185.2-102.6-225.5c-7.2-17.1-14-33.8-20.5-50c-19.1-47.7-22.5-46.5-15.6-132.3
		c6.9-85.8,19.8-85.9,53.5-161.9c22.6-51,2-80,17.7-118.6c7.7-19,25.7-39.6,37.6-65.1c36.2-77.7,83.7-93.4,155-231.8
		c71.2-138.4,122-161.2,133.8-207.6c11.8-46.5,55.5-121.8,86.5-138.3l0,0l0,0c32.3-17.1,72-9.5,95.7,18.2l533.8,626.6
		C5003-856.3,5000.3-796.7,4962.8-760.1z"/>
	<path id="on-dark_6_" class="st5" d="M4941.7-749.5l-605,592.8c-18.9,18.6-44.5,28.8-71,28.5l-203.2-2
		c-46.1-0.5-85.9-32.4-96.3-77.3c-27.9-119.6-45.7-196.3-53.5-230.4c-5.1-22.1-4.9-37.8-9-55.8c-14.8-65.4-13.9-87.9-29.2-120.2
		c-28.6-60.5,54.7-122.3,60.6-183.7c5.9-61.4,16.7-83.6,25-108.5c28.8-87.5,170.9-252,211.4-374.6c18.7-56.7,53.4-122.8,104.1-198.4
		l0,0c30.8-45.9,93-58.1,138.8-27.3c7.5,5.1,14.4,11.2,20.3,18.2l513.2,602.4C4981.9-845.8,4979.2-786.3,4941.7-749.5z"/>
	
		<g id="etoile-confet_x7B_:linearEase_x3B_0_x2C_0.65_x2C_4.07_x2C_1745_x2C_1171_x2C_360_x2C_0.21_x3B_10_x2C_0.2_x2C_4.99_x2C_1745_x2C_1171_x2C_360_x2C_0.21_x3B_20_x2C_0.76_x2C_3.73_x2C_1745_x2C_1171_x2C_360_x2C_0.21_x3B_30_x2C_0.65_x2C_4.07_x2C_1745_x2C_1171_x_4_" transform="translate(-78.481011, -223.614158)" class="st9">
		
			<g id="Group_40_" transform="translate(1228.680113, 578.547106) scale(1, -1) rotate(-20.000000) translate(-1228.680113, -578.547106) translate(1045.285617, 469.514061)" class="st10">
		</g>
		<g id="Group-2_4_" transform="translate(-0.000000, 0.000000)">
			
				<g id="Group_39_" transform="translate(1223.069490, 697.285433) rotate(-332.000000) translate(-1223.069490, -697.285433) translate(1088.569490, 617.285433)" class="st13">
				<path id="Fill-98_20_" class="st14" d="M1977.5-1834.9c0.8-0.8,0.7-2,0-2.8c-0.8-0.8-2-0.8-2.8-0.1s-0.7,2,0,2.8
					C1975.5-1834.2,1976.7-1834.1,1977.5-1834.9"/>
				<path id="Fill-100_18_" class="st14" d="M1903.2-1892.3c0.8-0.8,0.7-2,0-2.8s-2-0.8-2.8-0.1c-0.7,0.7-0.7,2,0,2.8
					C1901.2-1891.6,1902.4-1891.5,1903.2-1892.3"/>
				<path id="Fill-104_18_" class="st14" d="M2040-1910.1c0.8-0.8,0.7-2,0-2.8s-2-0.8-2.8-0.1c-0.7,0.7-0.7,2,0,2.8
					C2038-1909.5,2039.2-1909.4,2040-1910.1"/>
				<path id="Fill-108_18_" class="st14" d="M2017.9-1807.8c0.3-0.3,0.4-0.8,0.2-1.1l-0.8-1.7l0.8-1.6c0.2-0.3,0.2-0.8-0.2-1.2
					c-0.3-0.4-0.8-0.4-1.2-0.2l-1.6,0.7l-1.7-0.9c-0.3-0.2-0.8-0.2-1.1,0.1c-0.3,0.3-0.4,0.8-0.2,1.1l0.8,1.7l-0.8,1.6
					c-0.2,0.3-0.2,0.8,0.2,1.2c0.3,0.3,0.8,0.4,1.2,0.2l1.6-0.7l1.7,0.9C2017.1-1807.5,2017.6-1807.6,2017.9-1807.8 M2015.2-1810.8
					C2015.2-1810.8,2015.1-1810.7,2015.2-1810.8c0,0.1-0.1,0.1-0.1,0.1C2015-1810.7,2015-1810.8,2015.2-1810.8
					C2015-1810.8,2015.1-1810.9,2015.2-1810.8 M2015.3-1811.4L2015.3-1811.4l-0.2-0.5l0.4-0.8l-0.4,0.8L2015.3-1811.4"/>
				<path id="Fill-112_21_" class="st14" d="M1985.3-1932.5c0.3-0.3,0.4-0.8,0.2-1.1l-0.8-1.7l0.8-1.6c0.2-0.3,0.2-0.8-0.2-1.2
					c-0.3-0.3-0.8-0.4-1.2-0.2l-1.6,0.7l-1.7-0.9c-0.3-0.2-0.8-0.2-1.1,0.1c-0.3,0.3-0.4,0.8-0.2,1.1l0.8,1.7l-0.8,1.6
					c-0.2,0.3-0.2,0.8,0.2,1.2c0.3,0.3,0.8,0.4,1.2,0.2l1.6-0.7l1.7,0.9C1984.5-1932.2,1985-1932.2,1985.3-1932.5 M1982.5-1935.4
					L1982.5-1935.4c0,0.1-0.1,0.1-0.1,0.1C1982.5-1935.3,1982.4-1935.4,1982.5-1935.4C1982.5-1935.5,1982.5-1935.4,1982.5-1935.4
					 M1982.7-1936L1982.7-1936l-0.2-0.5l0.4-0.8l-0.4,0.8L1982.7-1936"/>
				<path id="Fill-120_22_" class="st14" d="M1903.7-1816.6c0.3-0.3,0.4-0.8,0.2-1.2l-1.2-2.6l1.2-2.5c0.2-0.3,0.1-0.9-0.2-1.2
					c-0.3-0.4-0.8-0.4-1.2-0.2l-2.5,1.2l-2.5-1.3c-0.3-0.2-0.8-0.2-1.2,0.2c-0.4,0.3-0.4,0.8-0.2,1.2l1.2,2.6l-1.2,2.5
					c-0.2,0.3-0.1,0.9,0.2,1.2c0.3,0.4,0.8,0.4,1.2,0.2l2.5-1.2l2.5,1.3C1902.9-1816.2,1903.4-1816.3,1903.7-1816.6 M1900.5-1819.9
					l0.1,0.2l-0.2-0.1c-0.3-0.1-0.6-0.2-1,0l-0.2,0.1l0.1-0.2c0.1-0.3,0.1-0.6,0-1l-0.1-0.2l0.2,0.1c0.3,0.1,0.6,0.2,1,0l0.2-0.1
					l-0.1,0.2C1900.3-1820.6,1900.4-1820.2,1900.5-1819.9"/>
			</g>
			<path id="Fill-98_19_" class="st14" d="M3794-59.8c1.1-1,1-2.7,0-3.7s-2.7-1.1-3.7-0.1c-1.1,1-1,2.7,0,3.7S3792.9-58.8,3794-59.8
				"/>
			<path id="Fill-108_17_" class="st14" d="M3780.4-123.5c0.4-0.4,0.5-1.1,0.3-1.6l-1.1-2.3l1.1-2.2c0.2-0.5,0.2-1.1-0.3-1.6
				c-0.4-0.4-1.1-0.5-1.6-0.3l-2.2,1l-2.2-1.2c-0.6-0.3-1.1-0.2-1.6,0.3c-0.4,0.4-0.5,1.1-0.3,1.6l1.1,2.3l-1.1,2.2
				c-0.2,0.5-0.2,1.1,0.3,1.6s1.1,0.5,1.6,0.3l2.2-1l2.2,1.2C3779.4-122.9,3780-123.1,3780.4-123.5 M3776.7-127.5l0,0.1l-0.1,0
				l0-0.1C3776.6-127.4,3776.6-127.4,3776.7-127.5 M3776.9-128.1L3776.9-128.1l-0.3-0.6l0.7-1.2l-0.7,1.2L3776.9-128.1"/>
			<path id="Fill-120_21_" class="st14" d="M3733.6,24.5c0.4-0.4,0.5-1.1,0.2-1.6l-1.7-3.5l1.8-3.4c0.3-0.6,0.2-1.3-0.3-1.7
				c-0.4-0.4-1.1-0.6-1.7-0.3l-3.4,1.6l-3.4-1.8c-0.6-0.3-1.2-0.2-1.6,0.2c-0.4,0.4-0.5,1.1-0.2,1.6l1.7,3.5l-1.8,3.4
				c-0.3,0.6-0.2,1.3,0.3,1.7c0.4,0.4,1.1,0.6,1.7,0.3l3.4-1.6l3.4,1.8C3732.5,25,3733.2,24.9,3733.6,24.5 M3729.2,19.8l0.1,0.2
				l-0.2-0.1c-0.3-0.2-0.9-0.2-1.3,0l-0.2,0.1l0.1-0.2c0.2-0.3,0.2-0.9,0-1.3l-0.1-0.2l0.2,0.1c0.3,0.2,0.9,0.2,1.3,0l0.2-0.1
				l-0.1,0.2C3729.1,19,3729,19.5,3729.2,19.8"/>
			
				<g id="Group_38_" transform="translate(1087.006925, 790.292737) scale(-1, -1) rotate(-31.000000) translate(-1087.006925, -790.292737) translate(920.006925, 690.792737)" class="st16">
				<path id="Fill-98_18_" class="st14" d="M-2805.8-292.2c0.9-0.9,1-2.5,0-3.5c-1-1-2.5-1-3.5-0.1c-0.9,0.9-1,2.5,0,3.5
					C-2808.2-291.3-2806.7-291.2-2805.8-292.2"/>
				<path id="Fill-102_17_" class="st14" d="M-2660.8-491.2c0.9-0.9,1-2.5,0-3.5c-1-1-2.5-1-3.5-0.1c-0.9,0.9-1,2.5,0,3.5
					C-2663.3-490.4-2661.7-490.3-2660.8-491.2"/>
				<path id="Fill-104_17_" class="st14" d="M-2728-385.7c0.9-0.9,1-2.5,0-3.5c-1-1-2.5-1-3.5-0.1c-0.9,0.9-1,2.5,0,3.5
					C-2730.6-384.9-2729-384.8-2728-385.7"/>
				<path id="Fill-108_16_" class="st14" d="M-2755.4-258.5c0.4-0.3,0.5-0.9,0.2-1.4l-1-2.1l1-2c0.2-0.5,0.2-1-0.3-1.4
					c-0.4-0.4-0.9-0.5-1.4-0.3l-2,1l-2-1.1c-0.5-0.2-1.1-0.2-1.4,0.1s-0.5,0.9-0.2,1.4l1,2.1l-1,2c-0.2,0.5-0.2,1,0.3,1.4
					s0.9,0.5,1.4,0.3l2-1l2,1.1C-2756.4-258.1-2755.8-258.1-2755.4-258.5 M-2758.8-262.1l0,0.1l-0.1,0l0-0.1
					C-2759-262.1-2758.9-262.2-2758.8-262.1 M-2758.6-262.8L-2758.6-262.8l-0.3-0.6l0.5-1.1l-0.5,1.1L-2758.6-262.8"/>
				<path id="Fill-112_20_" class="st14" d="M-2796.3-413.8c0.4-0.3,0.5-0.9,0.2-1.4l-1-2.1l1-2c0.2-0.5,0.2-1-0.3-1.4
					c-0.4-0.4-0.9-0.5-1.4-0.3l-2,1l-2-1.1c-0.5-0.2-1.1-0.2-1.4,0.1c-0.4,0.3-0.5,0.9-0.2,1.4l1,2.1l-1,2c-0.2,0.5-0.2,1,0.3,1.4
					c0.4,0.4,0.9,0.5,1.4,0.3l2-1l2,1.1C-2797.2-413.3-2796.6-413.4-2796.3-413.8 M-2799.7-417.4l0,0.1l-0.1,0l0-0.1
					C-2799.7-417.4-2799.7-417.4-2799.7-417.4 M-2799.5-418.1L-2799.5-418.1l-0.3-0.6l0.5-1.1l-0.5,1.1L-2799.5-418.1"/>
				<path id="Fill-116_14_" class="st14" d="M-2628.1-356c0.4-0.4,0.4-1,0.2-1.5l-1.6-3.2l1.5-3c0.2-0.5,0.2-1.1-0.3-1.6
					s-1-0.6-1.6-0.3l-3.1,1.4l-3.2-1.7c-0.5-0.2-1.1-0.2-1.5,0.2c-0.4,0.4-0.4,1-0.2,1.5l1.6,3.2l-1.5,3c-0.2,0.5-0.2,1.1,0.3,1.6
					s1.1,0.5,1.6,0.3l3.1-1.4l3.2,1.7C-2629-355.5-2628.5-355.6-2628.1-356 M-2632.7-358.9L-2632.7-358.9l-0.6,1.1L-2632.7-358.9
					l-0.6-1.2l-0.2,0.1l0.1-0.2c0.2-0.3,0.2-0.8,0-1.1l-0.1-0.1l0.2,0.1c0.3,0.2,0.8,0.2,1.1,0l0.2-0.1l-0.1,0.2
					c-0.2,0.3-0.2,0.8,0,1.1l0.1,0.2l-0.2-0.1c-0.3-0.2-0.8-0.2-1.1,0L-2632.7-358.9"/>
				<path id="Fill-120_20_" class="st14" d="M-2897.5-269.6c0.4-0.4,0.4-1,0.2-1.5l-1.6-3.2l1.5-3c0.2-0.5,0.2-1.1-0.3-1.6
					c-0.4-0.4-1.1-0.5-1.6-0.3l-3.1,1.4l-3.2-1.7c-0.5-0.2-1.1-0.2-1.5,0.2c-0.4,0.4-0.4,1-0.2,1.5l1.6,3.2l-1.5,3
					c-0.2,0.5-0.2,1.1,0.3,1.6s1.1,0.5,1.6,0.3l3.1-1.4l3.2,1.7C-2898.5-269.2-2897.9-269.2-2897.5-269.6 M-2901.5-273.8l0.1,0.2
					l-0.2-0.1c-0.3-0.2-0.8-0.2-1.1,0l-0.2,0.1l0.1-0.2c0.2-0.3,0.2-0.8,0-1.1l-0.1-0.2l0.2,0.1c0.3,0.2,0.8,0.2,1.1,0l0.2-0.1
					l-0.1,0.2C-2901.7-274.6-2901.7-274.2-2901.5-273.8"/>
			</g>
			
				<g id="Group_37_" transform="translate(1016.458872, 668.918929) scale(1, -1) rotate(-95.000000) translate(-1016.458872, -668.918929) translate(833.958872, 560.418929)" class="st16">
				<path id="Fill-98_17_" class="st14" d="M-1104.4,2928.4c1,1,2.7,0.9,3.7-0.1c1-1.1,1-2.8,0-3.7c-1-1-2.7-0.9-3.7,0.1
					C-1105.4,2925.7-1105.4,2927.4-1104.4,2928.4"/>
				<path id="Fill-100_17_" class="st14" d="M-1029.8,2824.7c1,1,2.7,0.9,3.7-0.1s1-2.8,0-3.7c-1-1-2.7-0.9-3.7,0.1
					C-1030.8,2822-1030.8,2823.7-1029.8,2824.7"/>
				<path id="Fill-120_19_" class="st14" d="M-1132.6,2829.1c0.4,0.4,1.1,0.5,1.6,0.2l3.4-1.8l3.4,1.6c0.6,0.3,1.3,0.1,1.7-0.3
					c0.4-0.4,0.5-1.1,0.3-1.7l-1.7-3.3l1.7-3.5c0.3-0.6,0.2-1.2-0.2-1.6c-0.4-0.4-1.1-0.5-1.6-0.2l-3.4,1.8l-3.4-1.6
					c-0.6-0.3-1.3-0.1-1.7,0.3c-0.4,0.4-0.5,1.1-0.3,1.7l1.7,3.3l-1.7,3.5C-1133.2,2828-1133,2828.7-1132.6,2829.1 M-1128.2,2824.6
					l-0.2,0.1l0.1-0.2c0.2-0.4,0.2-0.9,0-1.3l-0.1-0.2l0.2,0.1c0.4,0.2,0.9,0.1,1.3,0l0.2-0.1l-0.1,0.2c-0.2,0.4-0.2,0.9,0,1.3
					l0.1,0.2l-0.2-0.1C-1127.3,2824.3-1127.8,2824.4-1128.2,2824.6"/>
			</g>
			
				<g id="Group_36_" transform="translate(957.634972, 722.229401) scale(-1, -1) rotate(-258.000000) translate(-957.634972, -722.229401) translate(761.134972, 605.229401)" class="st18">
				<path id="Fill-102_16_" class="st14" d="M2010.4,2693.6c1.2-1.1,1.1-2.9,0-4c-1.1-1.2-2.9-1.2-4-0.1s-1.2,2.8-0.1,4
					C2007.5,2694.6,2009.4,2694.7,2010.4,2693.6"/>
				<path id="Fill-104_16_" class="st14" d="M1931.2,2817.8c1.2-1.1,1.1-2.9,0-4s-2.9-1.2-4-0.1c-1.2,1.1-1.1,2.9,0,4
					C1928.2,2818.9,1930,2819,1931.2,2817.8"/>
				<path id="Fill-112_19_" class="st14" d="M1850.9,2784.9c0.4-0.4,0.5-1.1,0.2-1.6l-1.2-2.4l1.2-2.4c0.3-0.6,0.2-1.3-0.3-1.7
					c-0.4-0.4-1.1-0.6-1.7-0.3l-2.4,1.1l-2.4-1.3c-0.6-0.3-1.2-0.2-1.6,0.2c-0.4,0.4-0.5,1.1-0.2,1.6l1.2,2.4l-1.2,2.4
					c-0.3,0.6-0.2,1.3,0.3,1.7c0.4,0.4,1.1,0.6,1.7,0.3l2.4-1.1l2.4,1.3C1849.7,2785.4,1850.4,2785.3,1850.9,2784.9 M1846.8,2780.6
					l0,0.1l-0.1,0l0-0.1C1846.8,2780.7,1846.8,2780.6,1846.8,2780.6 M1847.1,2779.9L1847.1,2779.9l-0.3-0.6l0.7-1.3l-0.6,1.3
					L1847.1,2779.9"/>
			</g>
			
				<g id="Group_35_" transform="translate(933.926630, 647.516983) scale(1, -1) rotate(-177.000000) translate(-933.926630, -647.516983) translate(744.426630, 535.016983)" class="st16">
			</g>
		</g>
	</g>
</g>
</svg>
