<svg width="50px" height="44px" viewBox="0 0 50 44" version="1.1" xmlns="http://www.w3.org/2000/svg" xmlns:xlink="http://www.w3.org/1999/xlink">
   <!-- Generator: Sketch 49 (51002) - http://www.bohemiancoding.com/sketch -->
   <desc>Created with Sketch.</desc>
   <defs></defs>
   <g id="Page-1" stroke="none" stroke-width="1" fill="none" fill-rule="evenodd" fill-opacity="0.5">
       <g id="Desktop-HD-Copy-4" transform="translate(-1076.000000, -1232.000000)" fill="#5AC0FA">
           <g id="--Features" transform="translate(-1151.000000, -900.000000)">
               <g id="Content" transform="translate(1301.000000, 2082.000000)">
                   <g id="3" transform="translate(770.000000, 43.000000)">
                       <path d="M182.855463,11.1729296 C190.971476,14.0709932 197.402704,15.6289713 202.149146,15.8468639 C210.056791,16.2098762 212.176191,20.139455 208.507347,27.6356003 C205.862679,33.2845384 200.307606,38.4901403 191.84213,43.2524061 C186.899732,46.0327592 179.918721,47.0770987 170.899097,46.3854247 L170.899101,46.3853772 C161.521143,45.6662242 154.501795,37.4808987 155.220948,28.1029411 C155.357309,26.3247556 155.772132,24.5790244 156.450251,22.9295722 L156.450251,22.9295722 C160.701335,12.5892608 172.326512,7.41328247 182.855455,11.1729544 Z" id="forme-supplémentaire-copy-3" transform="translate(182.710862, 28.270485) rotate(-25.087622) translate(-182.710862, -28.270485) "></path>
                   </g>
               </g>
           </g>
       </g>
   </g>
</svg>