<svg width="60px" height="60px" viewBox="0 0 60 60" version="1.1" xmlns="http://www.w3.org/2000/svg" xmlns:xlink="http://www.w3.org/1999/xlink">
   <!-- Generator: Sketch 49 (51002) - http://www.bohemiancoding.com/sketch -->
   <desc>Created with Sketch.</desc>
   <defs></defs>
   <g id="Page-1" stroke="none" stroke-width="1" fill="none" fill-rule="evenodd">
       <g id="Desktop-HD-Copy-4" transform="translate(-1070.000000, -1225.000000)" fill="#545458">
           <g id="--Features" transform="translate(-1151.000000, -900.000000)">
               <g id="Content" transform="translate(1301.000000, 2082.000000)">
                   <g id="3" transform="translate(770.000000, 43.000000)">
                       <path d="M180,13 C181.103,13 182,13.897 182,15 C182,15.552 182.447,16 183,16 C183.553,16 184,15.552 184,15 C184,13.142 182.721,11.589 181,11.142 L181,11 C181,10.448 180.553,10 180,10 C179.447,10 179,10.448 179,11 L179,11.142 C177.279,11.589 176,13.142 176,15 C176,17.206 177.794,19 180,19 C181.103,19 182,19.897 182,21 C182,22.103 181.103,23 180,23 C178.897,23 178,22.103 178,21 C178,20.448 177.553,20 177,20 C176.447,20 176,20.448 176,21 C176,22.858 177.279,24.411 179,24.858 L179,25 C179,25.552 179.447,26 180,26 C180.553,26 181,25.552 181,25 L181,24.858 C182.721,24.411 184,22.858 184,21 C184,18.794 182.206,17 180,17 C178.897,17 178,16.103 178,15 C178,13.897 178.897,13 180,13 L180,13 Z M196,18 C196,9.178 188.822,2 180,2 C171.178,2 164,9.178 164,18 C164,26.822 171.178,34 180,34 C188.822,34 196,26.822 196,18 L196,18 Z M180,36 C170.075,36 162,27.925 162,18 C162,8.075 170.075,0 180,0 C189.925,0 198,8.075 198,18 C198,27.925 189.925,36 180,36 L180,36 Z M192,18 C192,11.383 186.617,6 180,6 C173.383,6 168,11.383 168,18 C168,24.617 173.383,30 180,30 C186.617,30 192,24.617 192,18 L192,18 Z M194,18 C194,25.72 187.72,32 180,32 C172.28,32 166,25.72 166,18 C166,10.28 172.28,4 180,4 C187.72,4 194,10.28 194,18 L194,18 Z M203,54 L187,54 C186.447,54 186,54.448 186,55 L186,59 C186,59.552 186.447,60 187,60 C187.553,60 188,59.552 188,59 L188,56 L202,56 L202,59 C202,59.552 202.447,60 203,60 C203.553,60 204,59.552 204,59 L204,55 C204,54.448 203.553,54 203,54 L203,54 Z M196.293,42.293 C195.902,42.684 195.902,43.316 196.293,43.707 C196.684,44.098 197.316,44.098 197.707,43.707 L202.707,38.708 C203.46,37.955 203.897,36.986 203.939,35.98 C203.982,34.929 203.588,33.931 202.828,33.172 C202.068,32.413 201.083,32.022 200.019,32.061 C199.014,32.103 198.045,32.54 197.293,33.293 L190.345,40.245 C190.249,40.328 188,42.32 188,46 L188,51 C188,51.552 188.447,52 189,52 C189.553,52 190,51.552 190,51 L190,46 C190,43.266 191.593,41.812 191.707,41.707 L198.707,34.707 C199.104,34.31 199.599,34.08 200.101,34.06 C200.611,34.038 201.049,34.222 201.414,34.586 C201.778,34.951 201.961,35.405 201.94,35.899 C201.92,36.401 201.69,36.896 201.293,37.293 L196.293,42.293 Z M206,18 C203.794,18 202,19.794 202,22 L202,29.917 C202,30.469 202.447,30.917 203,30.917 C203.553,30.917 204,30.469 204,29.917 L204,22 C204,20.897 204.897,20 206,20 C207.103,20 208,20.897 208,22 L208,37 C208,39.77 206.417,41.182 206.293,41.293 L198.293,49.293 C197.902,49.684 197.902,50.316 198.293,50.707 C198.488,50.902 198.744,51 199,51 C199.256,51 199.512,50.902 199.707,50.707 L207.645,42.764 C207.741,42.683 210,40.734 210,37 L210,22 C210,19.794 208.206,18 206,18 L206,18 Z M173,54 L157,54 C156.447,54 156,54.448 156,55 L156,59 C156,59.552 156.447,60 157,60 C157.553,60 158,59.552 158,59 L158,56 L172,56 L172,59 C172,59.552 172.447,60 173,60 C173.553,60 174,59.552 174,59 L174,55 C174,54.448 173.553,54 173,54 L173,54 Z M171,52 C171.553,52 172,51.552 172,51 L172,46 C172,42.32 169.751,40.328 169.707,40.293 L162.707,33.293 C161.955,32.54 160.986,32.103 159.981,32.061 C158.913,32.024 157.931,32.413 157.172,33.172 C156.412,33.931 156.018,34.929 156.061,35.98 C156.103,36.986 156.54,37.955 157.293,38.707 L162.293,43.707 C162.684,44.098 163.316,44.098 163.707,43.707 C164.098,43.316 164.098,42.684 163.707,42.293 L158.707,37.292 C158.31,36.896 158.08,36.401 158.06,35.899 C158.039,35.405 158.222,34.951 158.586,34.586 C158.951,34.222 159.392,34.038 159.899,34.06 C160.401,34.08 160.896,34.31 161.293,34.707 L168.34,41.751 C168.407,41.812 170,43.266 170,46 L170,51 C170,51.552 170.447,52 171,52 L171,52 Z M160.293,50.707 L152.293,42.707 C152.259,42.683 150,40.734 150,37 L150,22 C150,19.794 151.794,18 154,18 C156.206,18 158,19.794 158,22 L158,29.917 C158,30.469 157.553,30.917 157,30.917 C156.447,30.917 156,30.469 156,29.917 L156,22 C156,20.897 155.103,20 154,20 C152.897,20 152,20.897 152,22 L152,37 C152,39.77 153.583,41.182 153.65,41.241 L161.707,49.293 C162.098,49.684 162.098,50.316 161.707,50.707 C161.512,50.902 161.256,51 161,51 C160.744,51 160.488,50.902 160.293,50.707 L160.293,50.707 Z" id="money-take"></path>
                   </g>
               </g>
           </g>
       </g>
   </g>
</svg>