<svg width="56px" height="60px" viewBox="0 0 56 60" version="1.1" xmlns="http://www.w3.org/2000/svg" xmlns:xlink="http://www.w3.org/1999/xlink">
   <!-- Generator: Sketch 49 (51002) - http://www.bohemiancoding.com/sketch -->
   <desc>Created with Sketch.</desc>
   <defs></defs>
   <g id="Page-1" stroke="none" stroke-width="1" fill="none" fill-rule="evenodd">
       <g id="Desktop-HD-Copy-4" transform="translate(-690.000000, -1225.000000)" fill="#545458">
           <g id="--Features" transform="translate(-1151.000000, -900.000000)">
               <g id="Content" transform="translate(1301.000000, 2082.000000)">
                   <g id="Design" transform="translate(390.000000, 0.000000)">
                       <path d="M202,74.00025 L202,79.00025 C202,88.92525 193.925,97.00025 184,97.00025 L180.414,97.00025 L184.707,101.29325 C185.098,101.68425 185.098,102.31625 184.707,102.70725 C184.512,102.90225 184.256,103.00025 184,103.00025 C183.744,103.00025 183.488,102.90225 183.293,102.70725 L177.293,96.70825 C177.201,96.61525 177.128,96.50425 177.077,96.38225 C176.976,96.13825 176.976,95.86225 177.077,95.61825 C177.128,95.49625 177.201,95.38525 177.293,95.29225 L183.293,89.29325 C183.684,88.90225 184.316,88.90225 184.707,89.29325 C185.098,89.68425 185.098,90.31625 184.707,90.70725 L180.414,95.00025 L184,95.00025 C192.822,95.00025 200,87.82225 200,79.00025 L200,74.00025 C200,73.44825 200.448,73.00025 201,73.00025 C201.552,73.00025 202,73.44825 202,74.00025 M154,72.00025 L154,67.00025 C154,57.07525 162.075,49.00025 172,49.00025 L175.586,49.00025 L171.293,44.70725 C170.902,44.31625 170.902,43.68425 171.293,43.29325 C171.684,42.90225 172.316,42.90225 172.707,43.29325 L178.707,49.29225 C178.799,49.38525 178.872,49.49625 178.923,49.61825 C179.024,49.86225 179.024,50.13825 178.923,50.38225 C178.872,50.50425 178.799,50.61525 178.707,50.70825 L172.707,56.70725 C172.512,56.90225 172.256,57.00025 172,57.00025 C171.744,57.00025 171.488,56.90225 171.293,56.70725 C170.902,56.31625 170.902,55.68425 171.293,55.29325 L175.586,51.00025 L172,51.00025 C163.178,51.00025 156,58.17825 156,67.00025 L156,72.00025 C156,72.55225 155.552,73.00025 155,73.00025 C154.448,73.00025 154,72.55225 154,72.00025 M164,99.00025 C157.383,99.00025 152,93.61725 152,87.00025 C152,80.38325 157.383,75.00025 164,75.00025 C170.617,75.00025 176,80.38325 176,87.00025 C176,93.61725 170.617,99.00025 164,99.00025 M164,73.00025 C156.28,73.00025 150,79.28025 150,87.00025 C150,94.72025 156.28,101.00025 164,101.00025 C171.72,101.00025 178,94.72025 178,87.00025 C178,79.28025 171.72,73.00025 164,73.00025 M192,47.00025 C198.617,47.00025 204,52.38325 204,59.00025 C204,65.61725 198.617,71.00025 192,71.00025 C185.383,71.00025 180,65.61725 180,59.00025 C180,52.38325 185.383,47.00025 192,47.00025 M192,73.00025 C199.72,73.00025 206,66.72025 206,59.00025 C206,51.28025 199.72,45.00025 192,45.00025 C184.28,45.00025 178,51.28025 178,59.00025 C178,66.72025 184.28,73.00025 192,73.00025" id="currency-convertion"></path>
                   </g>
               </g>
           </g>
       </g>
   </g>
</svg>